<svg width="56" height="56" viewBox="0 0 56 56" fill="none" xmlns="http://www.w3.org/2000/svg">
<path fill-rule="evenodd" clip-rule="evenodd" d="M32.6663 9.28208L41.3977 18.6667H34.3323C33.413 18.6667 32.6663 17.7777 32.6663 16.6834V9.28208ZM46.062 17.0987L35.6903 5.43208C35.2493 4.94441 34.6217 4.66675 33.9637 4.66675H15.297C12.007 4.66675 9.33301 7.28475 9.33301 10.5001V45.5001C9.33301 48.7154 12.007 51.3334 15.297 51.3334H40.7023C43.9923 51.3334 46.6663 48.7154 46.6663 45.5001V18.6667C46.6663 18.0857 46.4517 17.5281 46.062 17.0987Z" fill="#07A287"/>
<path d="M24.3869 31.41V30.132H27.8249V26.856H29.1749V30.132H32.6129V31.41H29.1749V34.704H27.8249V31.41H24.3869Z" fill="white"/>
</svg>
