<svg width="20" height="17" viewBox="0 0 20 17" fill="none" xmlns="http://www.w3.org/2000/svg">
<path fill-rule="evenodd" clip-rule="evenodd" d="M10.8334 9.79655C10.8334 10.2566 10.4601 10.6299 10.0001 10.6299C9.54009 10.6299 9.16675 10.2566 9.16675 9.79655V6.46322C9.16675 6.00322 9.54009 5.62988 10.0001 5.62988C10.4601 5.62988 10.8334 6.00322 10.8334 6.46322V9.79655ZM10.0001 13.1299C9.54009 13.1299 9.16675 12.7565 9.16675 12.2965C9.16675 11.8365 9.54009 11.4632 10.0001 11.4632C10.4601 11.4632 10.8334 11.8365 10.8334 12.2965C10.8334 12.7565 10.4601 13.1299 10.0001 13.1299V13.1299ZM18.8009 12.549L12.4076 1.94988C11.9084 1.12322 11.0084 0.629883 10.0001 0.629883C8.99176 0.629883 8.09176 1.12322 7.59259 1.94988L1.19926 12.549C0.725922 13.3349 0.711755 14.2799 1.16176 15.0765C1.64426 15.9324 2.58176 16.4632 3.60676 16.4632H16.3934C17.4184 16.4632 18.3559 15.9324 18.8384 15.0765C19.2884 14.2799 19.2743 13.3349 18.8009 12.549V12.549Z" fill="url(#paint0_linear_3595_2388)"/>
<defs>
<linearGradient id="paint0_linear_3595_2388" x1="10.0001" y1="0.629883" x2="10.0001" y2="16.4632" gradientUnits="userSpaceOnUse">
<stop stop-color="#FF5959"/>
<stop offset="1" stop-color="#EF2C2C"/>
</linearGradient>
</defs>
</svg>
