<svg width="47" height="47" viewBox="0 0 47 47" fill="none" xmlns="http://www.w3.org/2000/svg">
<path fill-rule="evenodd" clip-rule="evenodd" d="M31.125 20.9583H26.0417V15.875C26.0417 14.4771 24.8979 13.3333 23.5 13.3333C22.1021 13.3333 20.9583 14.4771 20.9583 15.875V20.9583H15.875C14.4771 20.9583 13.3333 22.1021 13.3333 23.5C13.3333 24.8979 14.4771 26.0417 15.875 26.0417H20.9583V31.125C20.9583 32.5229 22.1021 33.6667 23.5 33.6667C24.8979 33.6667 26.0417 32.5229 26.0417 31.125V26.0417H31.125C32.5229 26.0417 33.6667 24.8979 33.6667 23.5C33.6667 22.1021 32.5229 20.9583 31.125 20.9583ZM41.2917 38.75C41.2917 40.1505 40.153 41.2917 38.75 41.2917H8.25C6.847 41.2917 5.70833 40.1505 5.70833 38.75V8.25C5.70833 6.84954 6.847 5.70833 8.25 5.70833H38.75C40.153 5.70833 41.2917 6.84954 41.2917 8.25V38.75ZM38.75 0.625H8.25C4.04608 0.625 0.625 4.04608 0.625 8.25V38.75C0.625 42.9539 4.04608 46.375 8.25 46.375H38.75C42.9539 46.375 46.375 42.9539 46.375 38.75V8.25C46.375 4.04608 42.9539 0.625 38.75 0.625Z" fill="#2F80ED"/>
</svg>
