<svg width="20" height="20" viewBox="0 0 20 20" fill="none" xmlns="http://www.w3.org/2000/svg">
<path d="M9.99967 3.33325C10.8837 3.33325 11.7316 3.68444 12.3567 4.30956C12.9818 4.93468 13.333 5.78253 13.333 6.66658C13.333 7.55064 12.9818 8.39849 12.3567 9.02361C11.7316 9.64873 10.8837 9.99992 9.99967 9.99992C9.11562 9.99992 8.26777 9.64873 7.64265 9.02361C7.01753 8.39849 6.66634 7.55064 6.66634 6.66658C6.66634 5.78253 7.01753 4.93468 7.64265 4.30956C8.26777 3.68444 9.11562 3.33325 9.99967 3.33325ZM9.99967 11.6666C13.683 11.6666 16.6663 13.1583 16.6663 14.9999V16.6666H3.33301V14.9999C3.33301 13.1583 6.31634 11.6666 9.99967 11.6666Z" fill="#C3C3C3"/>
</svg>
