<svg width="60" height="60" viewBox="0 0 60 60" fill="none" xmlns="http://www.w3.org/2000/svg">
<path d="M22.5 11.25H18.75C17.7554 11.25 16.8016 11.6451 16.0984 12.3483C15.3951 13.0516 15 14.0054 15 15V45C15 45.9946 15.3951 46.9484 16.0984 47.6516C16.8016 48.3549 17.7554 48.75 18.75 48.75H22.5C23.4946 48.75 24.4484 48.3549 25.1516 47.6516C25.8549 46.9484 26.25 45.9946 26.25 45V15C26.25 14.0054 25.8549 13.0516 25.1516 12.3483C24.4484 11.6451 23.4946 11.25 22.5 11.25Z" fill="#252525"/>
<path d="M41.25 11.25H37.5C36.5054 11.25 35.5516 11.6451 34.8484 12.3483C34.1451 13.0516 33.75 14.0054 33.75 15V45C33.75 45.9946 34.1451 46.9484 34.8484 47.6516C35.5516 48.3549 36.5054 48.75 37.5 48.75H41.25C42.2446 48.75 43.1984 48.3549 43.9016 47.6516C44.6049 46.9484 45 45.9946 45 45V15C45 14.0054 44.6049 13.0516 43.9016 12.3483C43.1984 11.6451 42.2446 11.25 41.25 11.25Z" fill="#252525"/>
</svg>
