<svg width="39" height="52" viewBox="0 0 39 52" fill="none" xmlns="http://www.w3.org/2000/svg">
<mask id="path-1-inside-1_2060_21427" fill="white">
<path d="M38.2899 24.6573L2.53987 0.281922C2.041 -0.0560836 1.3975 -0.0934586 0.864499 0.187671C0.333124 0.4688 0 1.02131 0 1.62419V50.375C0 50.9779 0.333127 51.5304 0.866127 51.8115C1.10338 51.9382 1.365 52 1.625 52C1.94512 52 2.26525 51.9041 2.53987 51.7172L38.2899 27.3419C38.7335 27.0396 39 26.5375 39 25.9996C39 25.4617 38.7335 24.9596 38.2899 24.6573ZM0.866127 51.7172L33.2938 29L38.2899 25.5L0.866127 51.7172Z"/>
</mask>
<path d="M38.2899 24.6573L2.53987 0.281922C2.041 -0.0560836 1.3975 -0.0934586 0.864499 0.187671C0.333124 0.4688 0 1.02131 0 1.62419V50.375C0 50.9779 0.333127 51.5304 0.866127 51.8115C1.10338 51.9382 1.365 52 1.625 52C1.94512 52 2.26525 51.9041 2.53987 51.7172L38.2899 27.3419C38.7335 27.0396 39 26.5375 39 25.9996C39 25.4617 38.7335 24.9596 38.2899 24.6573ZM0.866127 51.7172L33.2938 29L38.2899 25.5L0.866127 51.7172Z" fill="#1B1D24"/>
<path d="M38.2899 24.6573L6.74267 70.9258L6.75056 70.9312L6.75845 70.9366L38.2899 24.6573ZM2.53987 0.281922L34.0871 -45.9866L34.0191 -46.0329L33.9511 -46.079L2.53987 0.281922ZM0.864499 0.187671L-25.2612 -49.3446L-25.2924 -49.3282L-25.3236 -49.3116L0.864499 0.187671ZM0.866127 51.8115L27.2545 2.41865L27.1233 2.34858L26.9918 2.2792L0.866127 51.8115ZM2.53987 51.7172L34.0446 98.0147L34.0658 98.0002L34.0871 97.9857L2.53987 51.7172ZM38.2899 27.3419L6.75845 -18.9374L6.75056 -18.932L6.74267 -18.9266L38.2899 27.3419ZM33.2938 29L1.16296 -16.8651L1.16296 -16.8651L33.2938 29ZM69.8371 -21.6112L34.0871 -45.9866L-29.0073 46.5504L6.74267 70.9258L69.8371 -21.6112ZM33.9511 -46.079C16.4486 -57.9375 -6.30899 -59.3409 -25.2612 -49.3446L26.9902 49.72C9.10399 59.154 -12.3666 57.8254 -28.8713 46.6429L33.9511 -46.079ZM-25.3236 -49.3116C-44.2036 -39.323 -56 -19.7173 -56 1.62419H56C56 21.7599 44.8699 40.2606 27.0526 49.687L-25.3236 -49.3116ZM-56 1.62419V50.375H56V1.62419H-56ZM-56 50.375C-56 71.7394 -44.178 91.3653 -25.2596 101.344L26.9918 2.2792C44.8443 11.6954 56 30.2164 56 50.375H-56ZM-25.5223 101.204C-16.8392 105.843 -7.46317 108 1.625 108V-4C10.1932 -4 19.046 -1.9668 27.2545 2.41865L-25.5223 101.204ZM1.625 108C13.0829 108 24.3979 104.579 34.0446 98.0147L-28.9648 5.41979C-19.8674 -0.77089 -9.19264 -4 1.625 -4V108ZM34.0871 97.9857L69.8371 73.6104L6.74267 -18.9266L-29.0073 5.44875L34.0871 97.9857ZM69.8213 73.6211C85.5301 62.9182 95 45.1136 95 25.9996H-17C-17 7.96138 -8.06311 -8.83903 6.75845 -18.9374L69.8213 73.6211ZM95 25.9996C95 6.88569 85.5302 -10.919 69.8213 -21.6219L6.75845 70.9366C-8.06317 60.8382 -17 44.0377 -17 25.9996H95ZM32.997 97.5824L65.4247 74.8651L1.16296 -16.8651L-31.2647 5.85214L32.997 97.5824ZM65.4247 74.8651L70.4207 71.3651L6.15902 -20.3651L1.16296 -16.8651L65.4247 74.8651ZM6.15902 -20.3651L-31.2647 5.85214L32.997 97.5824L70.4207 71.3651L6.15902 -20.3651Z" fill="#1B1D24" mask="url(#path-1-inside-1_2060_21427)"/>
</svg>
