<svg width="20" height="20" viewBox="0 0 20 20" fill="none" xmlns="http://www.w3.org/2000/svg">
<path fill-rule="evenodd" clip-rule="evenodd" d="M7.08342 7.9165C7.08342 6.30817 8.39175 4.99984 10.0001 4.99984C11.6084 4.99984 12.9167 6.30817 12.9167 7.9165C12.9167 9.23317 12.0334 10.3357 10.8334 10.6973V11.6665C10.8334 12.1273 10.4609 12.4998 10.0001 12.4998C9.53925 12.4998 9.16675 12.1273 9.16675 11.6665V9.99984C9.16675 9.539 9.53925 9.1665 10.0001 9.1665C10.6892 9.1665 11.2501 8.60567 11.2501 7.9165C11.2501 7.22734 10.6892 6.6665 10.0001 6.6665C9.31091 6.6665 8.75008 7.22734 8.75008 7.9165C8.75008 8.37734 8.37758 8.74984 7.91675 8.74984C7.45591 8.74984 7.08342 8.37734 7.08342 7.9165ZM9.16675 14.1665C9.16675 13.7057 9.53925 13.3332 10.0001 13.3332C10.4609 13.3332 10.8334 13.7057 10.8334 14.1665C10.8334 14.6273 10.4609 14.9998 10.0001 14.9998C9.53925 14.9998 9.16675 14.6273 9.16675 14.1665ZM10.0001 16.6665C6.32425 16.6665 3.33341 13.6757 3.33341 9.99984C3.33341 6.324 6.32425 3.33317 10.0001 3.33317C13.6759 3.33317 16.6667 6.324 16.6667 9.99984C16.6667 13.6757 13.6759 16.6665 10.0001 16.6665ZM10.0001 1.6665C5.40508 1.6665 1.66675 5.40484 1.66675 9.99984C1.66675 14.5948 5.40508 18.3332 10.0001 18.3332C14.5951 18.3332 18.3334 14.5948 18.3334 9.99984C18.3334 5.40484 14.5951 1.6665 10.0001 1.6665Z" fill="#C3C3C3"/>
</svg>
