<svg width="17" height="12" viewBox="0 0 17 12" fill="none" xmlns="http://www.w3.org/2000/svg">
<path d="M11.2793 5.96118C11.2793 6.62422 11.0159 7.26011 10.5471 7.72895C10.0782 8.19779 9.44234 8.46118 8.7793 8.46118C8.11626 8.46118 7.48037 8.19779 7.01153 7.72895C6.54269 7.26011 6.2793 6.62422 6.2793 5.96118C6.2793 5.29814 6.54269 4.66226 7.01153 4.19341C7.48037 3.72457 8.11626 3.46118 8.7793 3.46118C9.44234 3.46118 10.0782 3.72457 10.5471 4.19341C11.0159 4.66226 11.2793 5.29814 11.2793 5.96118Z" fill="white" fill-opacity="0.6"/>
<path d="M0.779297 5.96118C0.779297 5.96118 3.7793 0.461182 8.7793 0.461182C13.7793 0.461182 16.7793 5.96118 16.7793 5.96118C16.7793 5.96118 13.7793 11.4612 8.7793 11.4612C3.7793 11.4612 0.779297 5.96118 0.779297 5.96118ZM8.7793 9.46118C9.70755 9.46118 10.5978 9.09243 11.2542 8.43606C11.9105 7.77968 12.2793 6.88944 12.2793 5.96118C12.2793 5.03292 11.9105 4.14269 11.2542 3.48631C10.5978 2.82993 9.70755 2.46118 8.7793 2.46118C7.85104 2.46118 6.9608 2.82993 6.30442 3.48631C5.64805 4.14269 5.2793 5.03292 5.2793 5.96118C5.2793 6.88944 5.64805 7.77968 6.30442 8.43606C6.9608 9.09243 7.85104 9.46118 8.7793 9.46118Z" fill="white" fill-opacity="0.6"/>
</svg>
