<svg width="32" height="32" viewBox="0 0 32 32" fill="none" xmlns="http://www.w3.org/2000/svg">
<rect width="32" height="32" rx="8" fill="#4E73F8"/>
<path fill-rule="evenodd" clip-rule="evenodd" d="M15 19H11C10.45 19 10 18.55 10 18C10 17.45 10.45 17 11 17H15C15.55 17 16 17.45 16 18C16 18.55 15.55 19 15 19ZM21 19H19C18.45 19 18 18.55 18 18C18 17.45 18.45 17 19 17H21C21.55 17 22 17.45 22 18C22 18.55 21.55 19 21 19ZM24 20C24 20.551 23.552 21 23 21H9C8.448 21 8 20.551 8 20V15H24V20ZM8 12C8 11.449 8.448 11 9 11H23C23.552 11 24 11.449 24 12V13H8V12ZM23 9H9C7.346 9 6 10.346 6 12V20C6 21.654 7.346 23 9 23H23C24.654 23 26 21.654 26 20V12C26 10.346 24.654 9 23 9V9Z" fill="white"/>
</svg>
