<svg width="32" height="32" viewBox="0 0 32 32" fill="none" xmlns="http://www.w3.org/2000/svg">
<rect width="32" height="32" rx="8" fill="#6FCF97"/>
<path fill-rule="evenodd" clip-rule="evenodd" d="M12.5 13.5C12.5 11.57 14.07 10 16 10C17.93 10 19.5 11.57 19.5 13.5C19.5 15.08 18.44 16.403 17 16.837V18C17 18.553 16.553 19 16 19C15.447 19 15 18.553 15 18V16C15 15.447 15.447 15 16 15C16.827 15 17.5 14.327 17.5 13.5C17.5 12.673 16.827 12 16 12C15.173 12 14.5 12.673 14.5 13.5C14.5 14.053 14.053 14.5 13.5 14.5C12.947 14.5 12.5 14.053 12.5 13.5ZM15 21C15 20.447 15.447 20 16 20C16.553 20 17 20.447 17 21C17 21.553 16.553 22 16 22C15.447 22 15 21.553 15 21ZM16 24C11.589 24 8 20.411 8 16C8 11.589 11.589 8 16 8C20.411 8 24 11.589 24 16C24 20.411 20.411 24 16 24M16 6C10.486 6 6 10.486 6 16C6 21.514 10.486 26 16 26C21.514 26 26 21.514 26 16C26 10.486 21.514 6 16 6" fill="white"/>
</svg>
