<svg width="32" height="32" viewBox="0 0 32 32" fill="none" xmlns="http://www.w3.org/2000/svg">
<rect width="32" height="32" rx="8" fill="#FFBE5C"/>
<path fill-rule="evenodd" clip-rule="evenodd" d="M15.9995 20.05C16.1585 20.05 16.3175 20.088 16.4625 20.163L20.2315 22.133L19.5145 17.976C19.4575 17.65 19.5665 17.318 19.8045 17.087L22.8405 14.151L18.6375 13.539C18.3125 13.492 18.0315 13.289 17.8855 12.995L15.9995 9.201L14.1135 12.995C13.9675 13.289 13.6865 13.492 13.3615 13.539L9.15855 14.151L12.1945 17.087C12.4325 17.318 12.5415 17.65 12.4845 17.976L11.7675 22.133L15.5365 20.163C15.6815 20.088 15.8405 20.05 15.9995 20.05M21.5615 24.955C21.4025 24.955 21.2435 24.918 21.0985 24.842L15.9995 22.178L10.9005 24.842C10.5625 25.018 10.1545 24.987 9.84955 24.763C9.54155 24.539 9.38855 24.16 9.45255 23.785L10.4245 18.157L6.30455 14.172C6.02955 13.907 5.93155 13.509 6.04855 13.146C6.16455 12.783 6.47855 12.519 6.85555 12.464L12.5565 11.636L15.1035 6.51C15.4415 5.83 16.5575 5.83 16.8955 6.51L19.4425 11.636L25.1435 12.464C25.5205 12.519 25.8345 12.783 25.9505 13.146C26.0675 13.509 25.9695 13.907 25.6945 14.172L21.5745 18.157L22.5465 23.785C22.6105 24.16 22.4575 24.539 22.1495 24.763C21.9765 24.891 21.7695 24.955 21.5615 24.955" fill="white"/>
</svg>
