<svg width="32" height="32" viewBox="0 0 32 32" fill="none" xmlns="http://www.w3.org/2000/svg">
<rect width="32" height="32" rx="8" fill="#E85D5D"/>
<path fill-rule="evenodd" clip-rule="evenodd" d="M15.0005 13C15.0005 12.448 15.4485 12 16.0005 12C16.5525 12 17.0005 12.448 17.0005 13V17C17.0005 17.552 16.5525 18 16.0005 18C15.4485 18 15.0005 17.552 15.0005 17V13ZM15.0005 20C15.0005 19.448 15.4485 19 16.0005 19C16.5525 19 17.0005 19.448 17.0005 20C17.0005 20.552 16.5525 21 16.0005 21C15.4485 21 15.0005 20.552 15.0005 20ZM24.8652 22.353C24.6362 22.758 24.1902 23 23.6722 23H8.32819C7.81019 23 7.36419 22.758 7.13619 22.353C7.02819 22.163 6.88619 21.776 7.15319 21.336L14.8242 8.618C15.2912 7.844 16.7092 7.844 17.1762 8.618L24.8482 21.336C25.1142 21.776 24.9732 22.163 24.8652 22.353ZM26.5612 20.303L18.8892 7.584C18.2902 6.592 17.2102 6 16.0002 6C14.7902 6 13.7102 6.592 13.1122 7.584L5.44019 20.303C4.87119 21.246 4.85419 22.38 5.39419 23.336C5.97319 24.363 7.09819 25 8.32819 25H23.6722C24.9032 25 26.0272 24.363 26.6072 23.336C27.1472 22.38 27.1302 21.246 26.5612 20.303Z" fill="white"/>
</svg>
