<svg width="26" height="26" viewBox="0 0 26 26" fill="none" xmlns="http://www.w3.org/2000/svg">
<path d="M0 13C0 20.1797 5.8203 26 13 26C20.1797 26 26 20.1797 26 13C26 5.8203 20.1797 0 13 0C5.8203 0 0 5.8203 0 13Z" fill="#F00073"/>
<path d="M13.0001 7.4751C14.7876 7.4751 15.0313 7.4751 15.7626 7.4751C16.4126 7.4751 16.7376 7.6376 16.9813 7.71885C17.3063 7.88135 17.5501 7.9626 17.7938 8.20635C18.0376 8.4501 18.2001 8.69385 18.2813 9.01885C18.3626 9.2626 18.4438 9.5876 18.5251 10.2376C18.5251 10.9688 18.5251 11.1313 18.5251 13.0001C18.5251 14.8688 18.5251 15.0313 18.5251 15.7626C18.5251 16.4126 18.3626 16.7376 18.2813 16.9813C18.1188 17.3063 18.0376 17.5501 17.7938 17.7938C17.5501 18.0376 17.3063 18.2001 16.9813 18.2813C16.7376 18.3626 16.4126 18.4438 15.7626 18.5251C15.0313 18.5251 14.8688 18.5251 13.0001 18.5251C11.1313 18.5251 10.9688 18.5251 10.2376 18.5251C9.5876 18.5251 9.2626 18.3626 9.01885 18.2813C8.69385 18.1188 8.4501 18.0376 8.20635 17.7938C7.9626 17.5501 7.8001 17.3063 7.71885 16.9813C7.6376 16.7376 7.55635 16.4126 7.4751 15.7626C7.4751 15.0313 7.4751 14.8688 7.4751 13.0001C7.4751 11.1313 7.4751 10.9688 7.4751 10.2376C7.4751 9.5876 7.6376 9.2626 7.71885 9.01885C7.88135 8.69385 7.9626 8.4501 8.20635 8.20635C8.4501 7.9626 8.69385 7.8001 9.01885 7.71885C9.2626 7.6376 9.5876 7.55635 10.2376 7.4751C10.9688 7.4751 11.2126 7.4751 13.0001 7.4751ZM13.0001 6.25635C11.1313 6.25635 10.9688 6.25635 10.2376 6.25635C9.50635 6.25635 9.01885 6.41885 8.6126 6.58135C8.20635 6.74385 7.8001 6.9876 7.39385 7.39385C6.9876 7.8001 6.8251 8.1251 6.58135 8.6126C6.41885 9.01885 6.3376 9.50635 6.25635 10.2376C6.25635 10.9688 6.25635 11.2126 6.25635 13.0001C6.25635 14.8688 6.25635 15.0313 6.25635 15.7626C6.25635 16.4938 6.41885 16.9813 6.58135 17.3876C6.74385 17.7938 6.9876 18.2001 7.39385 18.6063C7.8001 19.0126 8.1251 19.1751 8.6126 19.4188C9.01885 19.5813 9.50635 19.6626 10.2376 19.7438C10.9688 19.7438 11.2126 19.7438 13.0001 19.7438C14.7876 19.7438 15.0313 19.7438 15.7626 19.7438C16.4938 19.7438 16.9813 19.5813 17.3876 19.4188C17.7938 19.2563 18.2001 19.0126 18.6063 18.6063C19.0126 18.2001 19.1751 17.8751 19.4188 17.3876C19.5813 16.9813 19.6626 16.4938 19.7438 15.7626C19.7438 15.0313 19.7438 14.7876 19.7438 13.0001C19.7438 11.2126 19.7438 10.9688 19.7438 10.2376C19.7438 9.50635 19.5813 9.01885 19.4188 8.6126C19.2563 8.20635 19.0126 7.8001 18.6063 7.39385C18.2001 6.9876 17.8751 6.8251 17.3876 6.58135C16.9813 6.41885 16.4938 6.3376 15.7626 6.25635C15.0313 6.25635 14.8688 6.25635 13.0001 6.25635Z" fill="white"/>
<path d="M13.0001 9.50635C11.0501 9.50635 9.50635 11.0501 9.50635 13.0001C9.50635 14.9501 11.0501 16.4938 13.0001 16.4938C14.9501 16.4938 16.4938 14.9501 16.4938 13.0001C16.4938 11.0501 14.9501 9.50635 13.0001 9.50635ZM13.0001 15.2751C11.7813 15.2751 10.7251 14.3001 10.7251 13.0001C10.7251 11.7813 11.7001 10.7251 13.0001 10.7251C14.2188 10.7251 15.2751 11.7001 15.2751 13.0001C15.2751 14.2188 14.2188 15.2751 13.0001 15.2751Z" fill="white"/>
<path d="M16.5751 10.2376C17.0238 10.2376 17.3876 9.87383 17.3876 9.4251C17.3876 8.97637 17.0238 8.6126 16.5751 8.6126C16.1264 8.6126 15.7626 8.97637 15.7626 9.4251C15.7626 9.87383 16.1264 10.2376 16.5751 10.2376Z" fill="white"/>
</svg>
