<svg width="26" height="26" viewBox="0 0 26 26" fill="none" xmlns="http://www.w3.org/2000/svg">
<path d="M0 13C0 20.1797 5.8203 26 13 26C20.1797 26 26 20.1797 26 13C26 5.8203 20.1797 0 13 0C5.8203 0 0 5.8203 0 13Z" fill="#0078D7"/>
<path d="M13 16.9C10.8062 16.9 9.83118 15.7625 9.83118 14.95C9.83118 14.7875 9.91247 14.5437 10.075 14.4625C10.2375 14.3 10.4 14.3 10.5625 14.3C11.4562 14.3 11.2125 15.6812 13 15.6812C13.8937 15.6812 14.3812 15.1125 14.3812 14.625C14.3812 14.3 14.2187 13.975 13.6499 13.8125L11.7 13.325C10.1562 12.9187 9.91246 12.025 9.91246 11.2937C9.91246 9.5875 11.4562 9.01875 12.9187 9.01875C14.2187 9.01875 15.8437 9.75 15.8437 10.725C15.8437 11.1312 15.5187 11.375 15.0312 11.375C14.2187 11.375 14.3812 10.2375 12.7562 10.2375C11.9437 10.2375 11.5375 10.6437 11.5375 11.1312C11.5375 11.6187 12.1874 11.8625 12.6749 11.9437L14.1375 12.2688C15.6812 12.5938 16.0874 13.5688 16.0874 14.3813C16.0874 15.925 15.0312 16.9 13 16.9ZM19.0125 14.0562C19.0937 13.7312 19.0937 13.325 19.0937 13C19.0937 11.2125 18.2812 9.50625 16.8999 8.2875C15.5187 7.06875 13.6499 6.6625 11.8624 6.90625C11.3749 6.6625 10.725 6.5 10.075 6.5C8.77497 6.5 7.5562 7.23125 6.9062 8.36875C6.2562 9.50625 6.2562 10.8875 6.9062 12.025C6.5812 13.975 7.14993 16.0062 8.61243 17.4688C9.99368 18.85 12.025 19.5 13.975 19.175C14.5437 19.5 15.1125 19.6625 15.7625 19.6625C17.0625 19.6625 18.2812 18.9312 18.9312 17.7937C19.5812 16.575 19.6625 15.1937 19.0125 14.0562Z" fill="white"/>
</svg>
