<svg width="26" height="26" viewBox="0 0 26 26" fill="none" xmlns="http://www.w3.org/2000/svg">
<path d="M0 13C0 20.1797 5.8203 26 13 26C20.1797 26 26 20.1797 26 13C26 5.8203 20.1797 0 13 0C5.8203 0 0 5.8203 0 13Z" fill="#0088CC"/>
<path d="M6.58118 12.763C10.0708 11.2426 12.3978 10.2403 13.5621 9.75599C16.8865 8.37328 17.5772 8.13309 18.0275 8.12508C18.1265 8.12342 18.3479 8.14796 18.4913 8.26433C18.6124 8.3626 18.6458 8.49534 18.6617 8.58851C18.6776 8.68168 18.6975 8.89392 18.6817 9.05975C18.5016 10.9526 17.7221 15.546 17.3255 17.666C17.1577 18.563 16.8273 18.8638 16.5074 18.8932C15.8123 18.9572 15.2844 18.4338 14.6111 17.9925C13.5576 17.3018 12.9624 16.8719 11.9397 16.198C10.7578 15.4192 11.524 14.9911 12.1975 14.2915C12.3738 14.1085 15.4367 11.3226 15.4959 11.0698C15.5034 11.0382 15.5102 10.9204 15.4402 10.8582C15.3703 10.796 15.2669 10.8173 15.1924 10.8342C15.0867 10.8582 13.4037 11.9706 10.1432 14.1715C9.66542 14.4996 9.23271 14.6594 8.845 14.6511C8.41759 14.6418 7.59543 14.4094 6.98423 14.2107C6.23458 13.967 5.63877 13.8382 5.69065 13.4243C5.71767 13.2088 6.01452 12.9883 6.58118 12.763Z" fill="white"/>
</svg>
