<svg width="26" height="26" viewBox="0 0 26 26" fill="none" xmlns="http://www.w3.org/2000/svg">
<path d="M0 13C0 20.1797 5.8203 26 13 26C20.1797 26 26 20.1797 26 13C26 5.8203 20.1797 0 13 0C5.8203 0 0 5.8203 0 13Z" fill="#1DA1F2"/>
<path d="M19.5 8.9375C19.0125 9.18125 18.525 9.2625 17.9563 9.34375C18.525 9.01875 18.9312 8.53125 19.0938 7.88125C18.6062 8.20625 18.0375 8.36875 17.3875 8.53125C16.9 8.04375 16.1687 7.71875 15.4375 7.71875C13.7313 7.71875 12.4313 9.34375 12.8375 10.9688C10.6438 10.8875 8.69375 9.83125 7.3125 8.20625C6.58125 9.425 6.9875 10.9688 8.125 11.7812C7.71875 11.7812 7.3125 11.6188 6.90625 11.4563C6.90625 12.675 7.8 13.8125 9.01875 14.1375C8.6125 14.2187 8.20625 14.3 7.8 14.2188C8.125 15.275 9.1 16.0875 10.3187 16.0875C9.34375 16.8187 7.88125 17.225 6.5 17.0625C7.71875 17.7937 9.1 18.2812 10.5625 18.2812C15.5187 18.2812 18.2812 14.1375 18.1187 10.3187C18.6875 9.99375 19.175 9.50625 19.5 8.9375Z" fill="white"/>
</svg>
