<svg width="16" height="13" viewBox="0 0 16 13" fill="none" xmlns="http://www.w3.org/2000/svg">
<path fill-rule="evenodd" clip-rule="evenodd" d="M13.25 11H2.75C2.33675 11 2 10.664 2 10.25V2.9375L7.55 7.1C7.6835 7.2005 7.84175 7.25 8 7.25C8.15825 7.25 8.3165 7.2005 8.45 7.1L14 2.9375V10.25C14 10.664 13.6632 11 13.25 11V11ZM12.7498 2L8 5.5625L3.25025 2H12.7498ZM13.25 0.5H2.75C1.5095 0.5 0.5 1.5095 0.5 2.75V10.25C0.5 11.4905 1.5095 12.5 2.75 12.5H13.25C14.4905 12.5 15.5 11.4905 15.5 10.25V2.75C15.5 1.5095 14.4905 0.5 13.25 0.5V0.5Z" fill="#757D8A"/>
</svg>
