<svg width="16" height="15" viewBox="0 0 16 15" fill="none" xmlns="http://www.w3.org/2000/svg">
<path fill-rule="evenodd" clip-rule="evenodd" d="M3.95 1.5C2.8745 1.5 2 2.3745 2 3.45C2 8.991 6.50825 13.5 12.05 13.5C13.1247 13.5 14 12.6255 14 11.55C14 11.4667 13.9948 11.385 13.9843 11.304L10.5193 10.509C10.4503 10.641 10.3745 10.7843 10.3055 10.9178C9.9635 11.5703 9.716 12.0443 9.0845 11.79C6.605 10.92 4.58075 8.895 3.6995 6.3855C3.43175 5.79675 3.94175 5.52975 4.58825 5.19225C4.7195 5.12325 4.86125 5.049 4.991 4.9815L4.196 1.51575C4.11275 1.50525 4.03175 1.5 3.95 1.5M12.05 15C5.681 15 0.5 9.819 0.5 3.45C0.5 1.54725 2.04725 0 3.95 0C4.145 0 4.33775 0.0165 4.5245 0.04875C4.70675 0.078 4.88975 0.1245 5.06825 0.186C5.312 0.27075 5.49575 0.4755 5.5535 0.7275L6.58025 5.2005C6.63725 5.4465 6.566 5.7045 6.3905 5.8875C6.2885 5.994 6.28625 5.99625 5.35625 6.483C6.10925 8.1135 7.418 9.41775 9.0155 10.1453C9.503 9.2145 9.506 9.2115 9.6125 9.1095C9.7955 8.934 10.055 8.86575 10.2995 8.91975L14.7733 9.9465C15.0245 10.0043 15.2292 10.1873 15.3132 10.431C15.3747 10.608 15.4213 10.791 15.452 10.9792C15.4835 11.1645 15.5 11.3565 15.5 11.55C15.5 13.4527 13.952 15 12.05 15" fill="#757D8A"/>
</svg>
