<svg width="14" height="15" viewBox="0 0 14 15" fill="none" xmlns="http://www.w3.org/2000/svg">
<path fill-rule="evenodd" clip-rule="evenodd" d="M5.27374 9.00008L5.82049 6.00008H8.72674L8.17999 9.00008H5.27374ZM13.0002 9.00008H9.77374L10.3205 6.00008H13.0002C13.4127 6.00008 13.7502 5.66258 13.7502 5.25008C13.7502 4.83758 13.4127 4.50008 13.0002 4.50008H10.5927L11.1132 1.64183C11.1882 1.23083 10.9017 0.834076 10.4765 0.762076C10.0512 0.689326 9.64249 0.966826 9.56749 1.37858L8.99899 4.50008H6.09274L6.61324 1.64183C6.68824 1.23083 6.40174 0.834076 5.97649 0.762076C5.55124 0.689326 5.14249 0.966826 5.06749 1.37858L4.49899 4.50008H1.00024C0.587744 4.50008 0.250244 4.83758 0.250244 5.25008C0.250244 5.66258 0.587744 6.00008 1.00024 6.00008H4.22674L3.67999 9.00008H1.00024C0.587744 9.00008 0.250244 9.33758 0.250244 9.75008C0.250244 10.1626 0.587744 10.5001 1.00024 10.5001H3.40699L2.88649 13.3583C2.81224 13.7693 3.09874 14.1661 3.52399 14.2381C3.94849 14.3108 4.35799 14.0333 4.43224 13.6216L5.00074 10.5001H7.90699L7.38649 13.3583C7.31224 13.7693 7.59874 14.1661 8.02399 14.2381C8.44849 14.3108 8.85799 14.0333 8.93224 13.6216L9.50074 10.5001H13.0002C13.4127 10.5001 13.7502 10.1626 13.7502 9.75008C13.7502 9.33758 13.4127 9.00008 13.0002 9.00008V9.00008Z" fill="#757D8A"/>
</svg>
