<svg width="19" height="20" viewBox="0 0 19 20" fill="none" xmlns="http://www.w3.org/2000/svg">
<path fill-rule="evenodd" clip-rule="evenodd" d="M16.5 17C16.5 17.552 16.051 18 15.5 18H3.5C2.949 18 2.5 17.552 2.5 17V6C2.5 5.448 2.949 5 3.5 5V6C3.5 7.103 4.397 8 5.5 8H13.5C14.603 8 15.5 7.103 15.5 6V5C16.051 5 16.5 5.448 16.5 6V17ZM5.5 2L13.5 2.003V3V6H5.5V3V2ZM15.5 3V2C15.5 0.897 14.603 0 13.5 0H5.5C4.397 0 3.5 0.897 3.5 2V3C1.846 3 0.5 4.346 0.5 6V17C0.5 18.654 1.846 20 3.5 20H15.5C17.154 20 18.5 18.654 18.5 17V6C18.5 4.346 17.154 3 15.5 3Z" fill="#F2F2F2"/>
</svg>
