<svg width="19" height="10" viewBox="0 0 19 10" fill="none" xmlns="http://www.w3.org/2000/svg">
<path fill-rule="evenodd" clip-rule="evenodd" d="M3.59 6.99999L15.586 6.99999L14.293 8.29299C13.903 8.68399 13.903 9.31599 14.293 9.70699C14.684 10.098 15.317 10.098 15.707 9.70699L18.707 6.70699C19.098 6.31599 19.098 5.68399 18.707 5.29299L15.707 2.29299C15.512 2.09799 15.256 1.99999 15 1.99999C14.744 1.99999 14.488 2.09799 14.293 2.29299C13.903 2.68399 13.903 3.31599 14.293 3.70699L15.586 4.99999L3.59 4.99999C2.713 4.99999 2 4.31299 2 3.47099V0.999994C2 0.446995 1.553 -5.72205e-06 1 -5.72205e-06C0.447 -5.72205e-06 0 0.446995 0 0.999994L0 3.47099C0 5.41699 1.611 6.99999 3.59 6.99999Z" fill="#757D8A"/>
</svg>
