<svg width="19" height="10" viewBox="0 0 19 10" fill="none" xmlns="http://www.w3.org/2000/svg">
<path fill-rule="evenodd" clip-rule="evenodd" d="M3.29325 7.707C3.68425 8.098 4.31625 8.098 4.70725 7.707C5.09825 7.316 5.09825 6.684 4.70725 6.293L3.41425 5L15.4102 5C16.2873 5 17.0002 5.686 17.0002 6.529V9C17.0002 9.553 17.4473 10 18.0002 10C18.5532 10 19.0002 9.553 19.0002 9V6.529C19.0002 4.583 17.3902 3 15.4102 3L3.41425 3L4.70725 1.707C5.09825 1.316 5.09825 0.684 4.70725 0.293C4.51225 0.0980005 4.25625 0 4.00025 0C3.74425 0 3.48825 0.0980005 3.29325 0.293L0.29325 3.293C-0.09775 3.684 -0.09775 4.316 0.29325 4.707L3.29325 7.707Z" fill="#757D8A"/>
</svg>
