<svg width="18" height="8" viewBox="0 0 18 8" fill="none" xmlns="http://www.w3.org/2000/svg">
<path fill-rule="evenodd" clip-rule="evenodd" d="M17 2.99995H4.00002L5.60002 1.79995C6.04202 1.46895 6.13102 0.84195 5.80002 0.39995C5.46902 -0.0420496 4.84302 -0.13105 4.40002 0.19995L0.400021 3.19995C0.150021 3.38695 0.00202085 3.67995 2.08464e-05 3.99095C-0.00197915 4.30395 0.140021 4.59895 0.387021 4.78995L4.24902 7.78995C4.43102 7.93195 4.64702 7.99995 4.86202 7.99995C5.16002 7.99995 5.45502 7.86695 5.65202 7.61295C5.99102 7.17795 5.91202 6.54895 5.47602 6.20995L3.91802 4.99995H17C17.552 4.99995 18 4.55295 18 3.99995C18 3.44695 17.552 2.99995 17 2.99995" fill="#757D8A"/>
</svg>
