<svg width="18" height="8" viewBox="0 0 18 8" fill="none" xmlns="http://www.w3.org/2000/svg">
<path fill-rule="evenodd" clip-rule="evenodd" d="M1 5.00038H14L12.4 6.20038C11.958 6.53138 11.869 7.15838 12.2 7.60038C12.396 7.86238 12.697 8.00038 13.001 8.00038C13.209 8.00038 13.42 7.93538 13.6 7.80038L17.6 4.80038C17.85 4.61338 17.998 4.32038 18 4.00938C18.002 3.69638 17.86 3.40138 17.613 3.21038L13.751 0.210384C13.316 -0.128616 12.687 -0.0496158 12.348 0.387384C12.009 0.822384 12.088 1.45138 12.524 1.79038L14.082 3.00038H1C0.448 3.00038 0 3.44738 0 4.00038C0 4.55338 0.448 5.00038 1 5.00038Z" fill="#757D8A"/>
</svg>
