<svg width="12" height="12" viewBox="0 0 12 12" fill="none" xmlns="http://www.w3.org/2000/svg">
<path fill-rule="evenodd" clip-rule="evenodd" d="M9.84346 2.92849L5.93213 6.83849C5.83146 6.68782 5.71613 6.54515 5.58479 6.41449C5.45346 6.28315 5.31079 6.16849 5.16013 6.06982L9.07279 2.15849C9.27679 1.95382 9.63813 1.95315 9.84413 2.15915C9.94613 2.26115 10.0015 2.39449 9.99946 2.55182C10.0015 2.69249 9.94546 2.82582 9.84346 2.92849M3.49679 9.96049L2.01146 9.98782L2.03746 8.50049C2.05146 7.65649 2.75079 6.95649 3.59679 6.94182C3.60613 6.94182 3.61413 6.94115 3.62346 6.94115C4.01279 6.94115 4.37346 7.08782 4.64213 7.35715C4.91746 7.63182 5.06479 8.00249 5.05813 8.40115C5.04413 9.24649 4.34346 9.94582 3.49679 9.96049M11.3328 2.55182C11.3395 2.04782 11.1448 1.57315 10.7868 1.21582C10.0788 0.508487 8.83679 0.506487 8.13013 1.21582L3.72146 5.62249C3.67146 5.61982 3.62346 5.60915 3.57346 5.60849C2.01746 5.63649 0.730127 6.92382 0.704127 8.47782L0.666127 10.6552C0.662794 10.8358 0.734127 11.0105 0.861461 11.1378C0.986794 11.2632 1.15679 11.3332 1.33279 11.3332H1.34546L3.52279 11.2938C5.07746 11.2665 6.36413 9.97915 6.39146 8.42382C6.39213 8.37382 6.38146 8.32649 6.38013 8.27582L10.7861 3.87115C11.1448 3.51249 11.3395 3.03782 11.3328 2.55182" fill="#757D8A"/>
</svg>
