<svg width="20" height="20" viewBox="0 0 20 20" fill="none" xmlns="http://www.w3.org/2000/svg">
<path fill-rule="evenodd" clip-rule="evenodd" d="M5.20725 7.70675C4.81625 8.09775 4.18425 8.09775 3.79325 7.70675L0.79325 4.70675C0.40225 4.31575 0.40225 3.68375 0.79325 3.29275L3.79325 0.292751C3.98825 0.0977497 4.24425 -0.000249865 4.50025 -0.000249865C4.75625 -0.000249865 5.01225 0.0977497 5.20725 0.292751C5.59825 0.68375 5.59825 1.31575 5.20725 1.70675L3.91425 2.99975H15.9102C17.8902 2.99975 19.5002 4.58275 19.5002 6.52875V8.99975C19.5002 9.55275 19.0532 9.99975 18.5002 9.99975C17.9473 9.99975 17.5002 9.55275 17.5002 8.99975V6.52875C17.5002 5.68575 16.7873 4.99975 15.9102 4.99975L3.91425 4.99975L5.20725 6.29275C5.59825 6.68375 5.59825 7.31575 5.20725 7.70675ZM16.0861 16.9997H4.09005C2.11105 16.9997 0.50005 15.4167 0.50005 13.4707L0.50005 10.9998C0.50005 10.4468 0.94705 9.99975 1.50005 9.99975C2.05305 9.99975 2.50005 10.4468 2.50005 10.9998V13.4707C2.50005 14.3127 3.21305 14.9998 4.09005 14.9998H16.0861L14.793 13.7067C14.4031 13.3158 14.4031 12.6837 14.793 12.2927C14.9881 12.0977 15.2441 11.9998 15.5 11.9998C15.7561 11.9998 16.012 12.0977 16.207 12.2927L19.2071 15.2927C19.5981 15.6837 19.5981 16.3157 19.2071 16.7067L16.207 19.7068C15.817 20.0977 15.1841 20.0977 14.793 19.7068C14.4031 19.3158 14.4031 18.6838 14.793 18.2927L16.0861 16.9997Z" fill="#757D8A"/>
</svg>
