<svg width="24" height="25" viewBox="0 0 24 25" fill="none" xmlns="http://www.w3.org/2000/svg">
<rect y="0.962891" width="24" height="24" rx="12" fill="#F1F2F3"/>
<path fill-rule="evenodd" clip-rule="evenodd" d="M13.4142 12.9631L17.7072 8.67014C18.0982 8.27914 18.0982 7.64714 17.7072 7.25614C17.3162 6.86514 16.6843 6.86514 16.2933 7.25614L12.0002 11.5491L7.70725 7.25614C7.31625 6.86514 6.68425 6.86514 6.29325 7.25614C5.90225 7.64714 5.90225 8.27914 6.29325 8.67014L10.5862 12.9631L6.29325 17.2561C5.90225 17.6471 5.90225 18.2791 6.29325 18.6701C6.48825 18.8651 6.74425 18.9631 7.00025 18.9631C7.25625 18.9631 7.51225 18.8651 7.70725 18.6701L12.0002 14.3771L16.2933 18.6701C16.4883 18.8651 16.7442 18.9631 17.0002 18.9631C17.2562 18.9631 17.5122 18.8651 17.7072 18.6701C18.0982 18.2791 18.0982 17.6471 17.7072 17.2561L13.4142 12.9631Z" fill="#757D8A"/>
</svg>
