<svg width="41" height="40" viewBox="0 0 41 40" fill="none" xmlns="http://www.w3.org/2000/svg">
<rect x="1.66602" y="1" width="38" height="38" rx="19" stroke="#4E73F8" stroke-opacity="0.4" stroke-width="2" stroke-dasharray="4 4"/>
<path fill-rule="evenodd" clip-rule="evenodd" d="M27.666 19H21.666V13C21.666 12.447 21.218 12 20.666 12C20.114 12 19.666 12.447 19.666 13V19H13.666C13.114 19 12.666 19.447 12.666 20C12.666 20.553 13.114 21 13.666 21H19.666V27C19.666 27.553 20.114 28 20.666 28C21.218 28 21.666 27.553 21.666 27V21H27.666C28.218 21 28.666 20.553 28.666 20C28.666 19.447 28.218 19 27.666 19Z" fill="#4E73F8"/>
</svg>
