<svg width="32" height="32" viewBox="0 0 32 32" fill="none" xmlns="http://www.w3.org/2000/svg">
<path d="M0 7C0 3.13401 3.13401 0 7 0H25C28.866 0 32 3.13401 32 7V25C32 28.866 28.866 32 25 32H7C3.13401 32 0 28.866 0 25V7Z" fill="url(#paint0_linear_1966_21603)"/>
<path d="M24.3648 21.9446C25.0552 22.524 25.1523 23.5645 24.4763 24.1606C23.2821 25.2136 21.8661 25.9962 20.3249 26.4455C18.259 27.0476 16.061 27.0236 14.0087 26.3766C11.9565 25.7295 10.1422 24.4884 8.79525 22.8102C7.44835 21.132 6.62935 19.092 6.4418 16.9484C6.25425 14.8047 6.70659 12.6536 7.74161 10.767C8.77663 8.88037 10.3478 7.34307 12.2566 6.34945C14.1653 5.35583 16.3258 4.95053 18.4649 5.18479C20.0606 5.35956 21.591 5.88441 22.9499 6.71403C23.7192 7.1837 23.8043 8.22529 23.2249 8.91574V8.91574C22.6455 9.6062 21.6211 9.67761 20.8232 9.25833C19.9828 8.81668 19.0628 8.53379 18.1095 8.42939C16.6122 8.2654 15.0998 8.54912 13.7637 9.24465C12.4276 9.94018 11.3278 11.0163 10.6032 12.3369C9.87873 13.6575 9.56209 15.1633 9.69338 16.6639C9.82466 18.1645 10.398 19.5924 11.3408 20.7672C12.2836 21.9419 13.5536 22.8107 14.9902 23.2636C16.4268 23.7166 17.9654 23.7334 19.4116 23.3119C20.3323 23.0435 21.1891 22.6052 21.9401 22.0243C22.6531 21.4728 23.6743 21.3653 24.3648 21.9446V21.9446Z" fill="white"/>
<path d="M21.2951 19.3684C21.6863 19.6967 21.7413 20.2863 21.3582 20.6241C20.6815 21.2208 19.8791 21.6643 19.0058 21.9188C17.8351 22.2601 16.5896 22.2465 15.4266 21.8798C14.2637 21.5131 13.2356 20.8098 12.4723 19.8588C11.7091 18.9079 11.245 17.7519 11.1387 16.5372C11.0324 15.3224 11.2887 14.1034 11.8753 13.0344C12.4618 11.9653 13.3521 11.0941 14.4337 10.5311C15.5153 9.96804 16.7396 9.73837 17.9518 9.87112C18.856 9.97016 19.7233 10.2676 20.4933 10.7377C20.9292 11.0038 20.9774 11.5941 20.6491 11.9853V11.9853C20.3208 12.3766 19.7403 12.4171 19.2882 12.1795C18.8119 11.9292 18.2906 11.7689 17.7504 11.7097C16.9019 11.6168 16.0449 11.7776 15.2878 12.1717C14.5307 12.5658 13.9074 13.1756 13.4969 13.924C13.0863 14.6723 12.9069 15.5256 12.9813 16.3759C13.0557 17.2263 13.3805 18.0354 13.9148 18.7011C14.4491 19.3668 15.1687 19.8591 15.9828 20.1158C16.7969 20.3725 17.6688 20.382 18.4882 20.1431C19.01 19.9911 19.4955 19.7427 19.9211 19.4135C20.3251 19.101 20.9038 19.0401 21.2951 19.3684V19.3684Z" fill="white"/>
<path d="M18.9121 15.0574C19.6374 15.4762 19.6374 16.5231 18.9121 16.9419L17.2801 17.8841C16.5547 18.3029 15.6481 17.7794 15.6481 16.9419V15.0574C15.6481 14.2199 16.5547 13.6964 17.2801 14.1152L18.9121 15.0574Z" fill="white"/>
<defs>
<linearGradient id="paint0_linear_1966_21603" x1="32" y1="32" x2="-5.9822" y2="10.635" gradientUnits="userSpaceOnUse">
<stop stop-color="#3765DF"/>
<stop offset="1" stop-color="#64A2FF"/>
</linearGradient>
</defs>
</svg>
