<?xml version="1.0" encoding="utf-8"?>
<!-- Generator: Adobe Illustrator 25.4.1, SVG Export Plug-In . SVG Version: 6.00 Build 0)  -->
<svg fill="pink" version="1.1" id="Слой_1" xmlns="http://www.w3.org/2000/svg" xmlns:xlink="http://www.w3.org/1999/xlink" x="0px" y="0px"
	 viewBox="0 0 841.9 595.3" style="enable-background:new 0 0 841.9 595.3;" xml:space="preserve">
<style type="text/css">
	.st0{fill:#F0D4C7;}
	.st1{fill:#E2D1CB;}
	.st2{fill:#E2D0C9;}
	.st3{fill:#EFEFEF;}
	.st4{fill:#E0CEC9;}
	.st5{fill:#C9D0DA;}
	.st6{fill:#F0EFEF;}
	.st7{fill:#DDAF94;}
	.st8{fill:#F0D2C5;}
	.st9{fill:#B99F95;}
	.st10{fill:#71645F;}
	.st11{fill:#7D6B62;}
	.st12{fill:#755C4E;}
	.st13{fill:#7A7374;}
	.st14{fill:#AA9085;}
	.st15{fill:#656565;}
	.st16{fill:#877066;}
	.st17{fill:#9D8376;}
	.st18{fill:#979696;}
	.st19{fill:#9F8374;}
	.st20{fill:#BC7F61;}
	.st21{fill:#B8795D;}
	.st22{fill:#DDAB8D;}
	.st23{fill:#E2D0CB;}
	.st24{fill:#F2D3C5;}
	.st25{fill:#8C5649;}
	.st26{fill:#F0EFEE;}
	.st27{fill:#8E584A;}
	.st28{fill:#BE8A75;}
	.st29{fill:#6F6A69;}
	.st30{fill:#AF8D7E;}
	.st31{fill:#73615B;}
	.st32{fill:#C0927B;}
	.st33{fill:#6A605E;}
	.st34{fill:#705E58;}
	.st35{fill:#866759;}
	.st36{fill:#674438;}
	.st37{fill:#947B6D;}
	.st38{fill:#997A6C;}
	.st39{fill:#835F4E;}
	.st40{fill:#736560;}
	.st41{fill:#A28476;}
	.st42{fill:#937568;}
	.st43{fill:#916F5F;}
	.st44{fill:#572817;}
	.st45{fill:#B78674;}
	.st46{fill:#7B797A;}
	.st47{fill:#A1887C;}
	.st48{fill:#966651;}
	.st49{fill:#58362E;}
	.st50{fill:#787372;}
	.st51{fill:#A47963;}
	.st52{fill:#9B9A99;}
	.st53{fill:#937265;}
	.st54{fill:#856455;}
	.st55{fill:#AC9081;}
	.st56{fill:#876351;}
	.st57{fill:#93694C;}
	.st58{fill:#EDEDEC;}
	.st59{fill:#9A6F5B;}
	.st60{fill:#966242;}
	.st61{fill:#905C3F;}
	.st62{fill:#AE8A77;}
	.st63{fill:#A6A4A2;}
	.st64{fill:#D3B29E;}
	.st65{fill:#8A5C41;}
	.st66{fill:#A39B94;}
	.st67{fill:#8F553C;}
	.st68{fill:#7C7B7E;}
	.st69{fill:#8C8B8B;}
	.st70{fill:#474848;}
	.st71{fill:#7B6E69;}
	.st72{fill:#B2A49C;}
	.st73{fill:#97877F;}
	.st74{fill:#A4A4A3;}
	.st75{fill:#503627;}
	.st76{fill:#A87C62;}
	.st77{fill:#A97A62;}
	.st78{fill:#8C8684;}
	.st79{fill:#959894;}
	.st80{fill:#AE7F68;}
	.st81{fill:#9B8E87;}
	.st82{fill:#6D442F;}
	.st83{fill:#A88D7E;}
	.st84{fill:#B39B8D;}
	.st85{fill:#6D6E6D;}
	.st86{fill:#A38A7F;}
	.st87{fill:#A0745D;}
	.st88{fill:#B59E97;}
	.st89{fill:#A57E69;}
	.st90{fill:#DBAC90;}
	.st91{fill:#7A6A63;}
	.st92{fill:#7F5E4E;}
	.st93{fill:#D9AF98;}
	.st94{fill:#865B47;}
	.st95{fill:#886351;}
	.st96{fill:#78555E;}
	.st97{fill:#4D393E;}
	.st98{fill:#6D5F5B;}
	.st99{fill:#553A3E;}
	.st100{fill:#6B4C41;}
	.st101{fill:#4D4646;}
	.st102{fill:#715F59;}
	.st103{fill:#553A34;}
	.st104{fill:#756C6D;}
	.st105{fill:#95847F;}
	.st106{fill:#696C72;}
	.st107{fill:#B49B94;}
	.st108{fill:#553329;}
	.st109{fill:#42312B;}
	.st110{fill:#B6A49F;}
	.st111{fill:#4E4A48;}
	.st112{fill:#F1F0F1;}
	.st113{fill:#C9CED7;}
	.st114{fill:#7B7C7F;}
	.st115{fill:#8C7D74;}
	.st116{fill:#A39B95;}
	.st117{fill:#B5AAA7;}
	.st118{fill:#433C3D;}
	.st119{fill:#E0BEAD;}
	.st120{fill:#623322;}
	.st121{fill:#894C3E;}
	.st122{fill:#5D2F1E;}
	.st123{fill:#F0C8B4;}
	.st124{fill:#5F2F1E;}
	.st125{fill:#F1C8B4;}
	.st126{fill:#713C29;}
	.st127{fill:#8C503F;}
	.st128{fill:#885243;}
	.st129{fill:#794129;}
	.st130{fill:#82483E;}
	.st131{fill:#5E3629;}
	.st132{fill:#8C4F3E;}
	.st133{fill:#7F5041;}
	.st134{fill:#94614A;}
	.st135{fill:#532216;}
	.st136{fill:#835C48;}
	.st137{fill:#8C5A3F;}
	.st138{fill:#646264;}
	.st139{fill:#707071;}
	.st140{fill:#D8AE99;}
	.st141{fill:#967667;}
	.st142{fill:#543323;}
	.st143{fill:#885248;}
	.st144{fill:#BAB3B5;}
	.st145{fill:#785749;}
	.st146{fill:#AF9B95;}
	.st147{fill:#CCD0D8;}
	.st148{fill:#EECEBF;}
	.st149{fill:#B68671;}
	.st150{fill:#E0C8BC;}
	.st151{fill:#3A2517;}
	.st152{fill:#F1D2C7;}
	.st153{fill:#F3D3C5;}
	.st154{fill:#D7AE9A;}
	.st155{fill:#4C2B1D;}
	.st156{fill:#D1D0D1;}
	.st157{fill:#F4D6C7;}
	.st158{fill:#DCB098;}
	.st159{fill:#EED1C5;}
	.st160{fill:#604438;}
	.st161{fill:#EFEEEE;}
	.st162{fill:#E7CFD0;}
	.st163{fill:#553F46;}
	.st164{fill:#656E78;}
	.st165{fill:#C2CDD8;}
	.st166{fill:#C2CED9;}
	.st167{fill:#58626C;}
	.st168{fill:#737171;}
	.st169{fill:#2D2628;}
	.st170{fill:#C3CFD9;}
	.st171{fill:#D9AB8F;}
	.st172{fill:#6F564D;}
	.st173{fill:#502A1E;}
	.st174{fill:#88554C;}
	.st175{fill:#C9D1D9;}
	.st176{fill:#7D7F82;}
	.st177{fill:#EDDDB8;}
	.st178{fill:#9E6E5B;}
	.st179{fill:#4D2C21;}
	.st180{fill:#673A27;}
	.st181{fill:#251E1C;}
	.st182{fill:#8A4C3E;}
	.st183{fill:#8A4C3C;}
	.st184{fill:#8A4B3B;}
	.st185{fill:#834E3F;}
	.st186{fill:#894C3B;}
	.st187{fill:#865146;}
	.st188{fill:#6A3E2C;}
	.st189{fill:#5A3223;}
	.st190{fill:#EDC7B4;}
	.st191{fill:#824F45;}
	.st192{fill:#5E311E;}
	.st193{fill:#684538;}
	.st194{fill:#6D483A;}
	.st195{fill:#4A3026;}
	.st196{fill:#754F40;}
	.st197{fill:#EFC8B3;}
	.st198{fill:#592E22;}
	.st199{fill:#EFC8B5;}
	.st200{fill:#482417;}
	.st201{fill:#835448;}
	.st202{fill:#6A3420;}
	.st203{fill:#6E402E;}
	.st204{fill:#75402C;}
	.st205{fill:#F0C4AC;}
	.st206{fill:#EFC6B5;}
	.st207{fill:#F0C6B6;}
	.st208{fill:#EDC5AE;}
	.st209{fill:#592B1C;}
	.st210{fill:#714B3B;}
	.st211{fill:#E7CBBE;}
	.st212{fill:#B5775F;}
	.st213{fill:#D3D0CB;}
	.st214{fill:#6B4E42;}
	.st215{fill:#52281F;}
	.st216{fill:#D29E80;}
	.st217{fill:#D09F84;}
	.st218{fill:#EAC8BA;}
	.st219{fill:#C5CFD8;}
	.st220{fill:#27201D;}
	.st221{fill:#D29E83;}
	.st222{fill:#5B3A31;}
	.st223{fill:#5C3E33;}
	.st224{fill:#F0EDED;}
	.st225{fill:#F3EDEB;}
	.st226{fill:#CEAB9D;}
	.st227{fill:#C5C4C7;}
	.st228{fill:#C99987;}
	.st229{fill:#92776A;}
	.st230{fill:#A67E73;}
	.st231{fill:#6E5D56;}
	.st232{fill:#9C7F73;}
	.st233{fill:#6D4936;}
	.st234{fill:#5B3F38;}
	.st235{fill:#D2A695;}
	.st236{fill:#8E7366;}
	.st237{fill:#6E5146;}
	.st238{fill:#C4CFD9;}
	.st239{fill:#757576;}
	.st240{fill:#7E7F7F;}
	.st241{fill:#393939;}
	.st242{fill:#BABABA;}
	.st243{fill:#777A7A;}
	.st244{fill:#EFF1F2;}
	.st245{fill:#EDCEC3;}
	.st246{fill:#EBCBC2;}
	.st247{fill:#E9CFC4;}
	.st248{fill:#73544C;}
	.st249{fill:#B67B61;}
	.st250{fill:#EACABC;}
	.st251{fill:#D09E85;}
	.st252{fill:#D19E82;}
	.st253{fill:#EECDBC;}
	.st254{fill:#EDCABD;}
	.st255{fill:#AF7C69;}
	.st256{fill:#78594B;}
	.st257{fill:#2F130D;}
	.st258{fill:#EBCBBD;}
	.st259{fill:#B8B6BD;}
	.st260{fill:#E7CDC5;}
	.st261{fill:#DBCAC3;}
	.st262{fill:#EFCDBF;}
	.st263{fill:#D3A48A;}
	.st264{fill:#E5C4BA;}
	.st265{fill:#866357;}
	.st266{fill:#7B4C40;}
	.st267{fill:#C1C3C4;}
	.st268{fill:#EDDCD2;}
	.st269{fill:#3A251B;}
	.st270{fill:#A47C72;}
	.st271{fill:#412921;}
	.st272{fill:#626B76;}
	.st273{fill:#B1BAC5;}
</style>
<g>
	<path class="st0" d="M217.1,234.5c1.2,1.9,2.5,3.7,3.7,5.6c4.1,4.1,8,8.3,12.9,11.5c2.3,1.5,4,1.3,6-0.1c3.4-2.4,5.4-5.5,6.2-9.6
		c0.4-2,0.7-4,1.4-6c0.8-8.5,2-16.8,5.8-24.6c0.2-0.5,0.4-1.1,0.6-1.6c3-3,6.2-5.8,9.4-8.5c3.2-2.7,6.4-3.5,10.3-2.2
		c4.5,4.4,1,9.4,1.2,14.1l0.1-0.1c-1.5,7.5-4.5,14.6-6.9,21.8c-4.8,14.9-3.9,29.9-2.1,45c1.1,9.1,2.1,17.9-2.9,26.2
		c-5.5,9.2-8.3,19.1-8.7,29.8c-0.7,17.4-3.6,34.6-5,51.9c-1.1,5.9-0.8,11.8-1.9,17.7c0.5,14.7-0.6,29.3-2.5,43.8
		c-0.4,2.8-0.1,5.6-0.1,8.4c-0.2,24-0.1,48,0,72c0,14.1-3.2,27.5-7.7,40.7c-1.3,3.9-3.9,7.2-6.5,10.4c-0.3,0.5-0.7,1-1,1.5
		c-4.4,4.6-8.9,9.2-13.5,13.5c-14.3,0-28.6,0-42.9,0c-10.2-20.6-15.3-42.2-13-65.3c-0.2-19.4,4.8-37.9,9.8-56.4
		c0.5-2,2.2-3.5,2.7-5.6c5.4-17.2,9.2-34.8,13.5-52.2c1.2-4.7,1.9-9.5,2.9-14.3c0.6-1.9,1-3.9,1.4-5.9c6.9-14.5,17.6-26.4,27.2-39.1
		c2.7-3.6,5.1-7.4,5.9-12c2.3-2.6,5-4.9,8.1-6.5c7.4-1,8.7-8.6,15.1-12.4c-6.3,0.5-9.1,3.7-11.5,7.4c-1.7,2.2-3.4,4.5-6.1,5.6
		c-17.9-1.3-24.5-6.9-28.3-23.8c-1.3-6.1-4.4-10.8-9.1-15c-3.5-3.2-9.2-4.7-9.4-10.7c5.4-1.5,10.3,1,15.3,2.2
		c8.6,2.1,16.7,5.5,24.4,9.9c1.8,1.5,3.8,2.9,5.9,4.2c2.2,1.4,4.3,2.9,6.5,4.1c1.7,0.9,0.4-1,0.6-1.5c-4.7-9.6-7.4-19.6-6.9-30.4
		c0.2-4.6,1-8.9,2.7-13.1c-1.4,2.2-1.3,5-2.7,7.2c-1.6,2-2.9,4.3-4.5,6.3c-0.7,0.8-1.5,1.7-2.8,1.2c-0.9-0.4-1.2-1.5-1-2.4
		c0.5-2.9-0.5-5.9,0-8.8c1.8-3.4,1.8-6.8,0.3-10.3c-0.7-1.6-1.2-3.2-1.3-4.9c-0.4-9.7-5.4-17.1-11.3-24.4c-4.3-5.4-9.3-7.2-15.7-6.2
		c-2.2,0.3-4.4,1.1-6.6,0.4c-3.8-1.7-5.7-5.8-9.8-7c-7.3-8.2-14.6-16.5-22.7-24.1c-1.5-1.4-2.7-3.1-4.8-3.7
		c-6.6-4.4-13.2-8.9-19.8-13.3c-0.1-0.1-0.2-0.3-0.4-0.4c-6.1-4.1-7.9-7.4-6.2-11.5c1.4-3.4,5.9-4.5,12.4-2.9
		c5.1,1.2,10,2.8,14.5,5.5l-0.1-0.1c10,6.8,18.2,15.4,26.3,24.4c9.6,10.8,20.3,20.6,30.5,30.8c1.6,1.6,3.4,3,4.2,5.2
		c0.7,0.5,1.4,0.9,2.2,1.4C212.6,230.3,215.3,232,217.1,234.5z"/>
	<path class="st1" d="M527.4,595.8c-41.8,0-83.5,0-125.3,0c-1.9-4.9,0.5-9.6,0.9-14.3c1.3-14,2.9-27.9,1.1-42
		c-1.2-9.6-0.5-19.5-1.2-29.2c-1.8-26.3-2.6-52.7-5.6-79c-0.4-3.7-0.3-7.5-1-11.2c0-0.6,0.2-1.2,0.4-1.8c3.5-2.4,4,0.9,4.8,2.8
		c2.4,6.3,4.2,12.8,7,18.9c1.8,3.9,4,7.6,5.7,11.5c2.2,5,5.3,6.7,10.4,4.6c2.7-0.3,4,1.6,5.2,3.5c2.4,3.8,4.6,7.7,7,11.5
		c13.5,21,26.4,42.4,37.4,64.9c3.5,7.1,6.7,14.3,9.8,21.5c0.6,1.5,1,3.7,2.9,3.8c2,0.2,2.3-2.1,3.4-3.4c1-1.7,1.5-3.6,2.4-5.4
		c9.7-20.9,15.1-43.1,19.7-65.5c2.4-11.7,5-23.4,5.8-35.4c0.2-2.4,0.7-4.6,3.9-4.4c1.8,0.5,3.4,0.5,3.7-1.9c0.1-0.9,0-1.9,0.2-2.8
		c0.4-2.4-0.9-6.4,2.3-6.4c2.4,0,2.5,4.1,2.9,6.7c3,19.1,5.7,38.2,7.6,57.4c0.7,7.4,2.3,14.9,1.3,22.4c-0.5,2.1-1.9,3.3-4,3.1
		c-4.6-0.3-9,1.1-10.5,5.3c-1.6,4.5-0.8,9.5,3,13.3c1.9,1.8,3.9,3.6,6.2,4.7c4.3,2.1,5.3,5.2,4.2,9.6c-2.7,11.1-5.8,22-8.9,32.9
		C529.6,593.3,528.6,594.6,527.4,595.8z"/>
	<path class="st2" d="M400.9,595.8c-27.1,0-54.2,0-81.3,0c-2.1-2.6-1-5.2-0.4-8c3.9-17.5,14.6-31,25.5-44.5
		c4.2-5.2,8.6-10.4,11-16.9c1.5-2.2,3.4-4,5.6-7c-8.8,10.5-17,20.1-25.2,29.6c-0.6,0.7-1.2,1.4-2,2c-1.3,1-2.6,2.9-4.3,1.5
		c-1.4-1.1-0.2-2.8,0.6-4.1c5.8-10.6,9.7-22,14.1-33.2c5.9-14.6,8.2-30,11.5-45.3c0.6-3.8,1.5-7.6,1.8-11.5c1.9-5.2,2-10.6,2.1-16
		c0.6-21-0.5-41.9-5.6-62.4c-1.6-6.4-3.8-12.5-6.3-18.6c-1.3-3.3-1.9-6.2,2-8.1c11.7-3.1,23.8-2.7,35.8-3.3c2.6-0.1,4.7,1.2,5.6,3.9
		c-0.2,16.9,1.5,33.6,5.1,50.1c0.2,5,1.8,10,0.5,15.1c1.3,18.5,3.5,36.9,4.2,55.4c0.5,13.1,1.5,26.1,2.2,39.2
		c0.9,15.7,2.2,31.4,2,47.1C405.3,572.6,403.8,584.3,400.9,595.8z"/>
	<path class="st3" d="M599.1,453.5c2.1,3.7,4.1,7.4,6.2,11c3.5,7.9,7,15.7,10.3,23.6c-2.5,4.5-3.4-0.3-4.8-0.5c2,3,6.6,4.1,8.1,8.2
		c2,2,4.1,4.1,6.1,6.1c3.7,2,6.6,4.8,8.5,8.6c4.5,4.1,9,8.2,13.5,12.3c1.6,2.7,0.4,5-0.7,7.4c-7.7,16.3-17.5,31.1-29.5,44.5
		c-6.7,8.5-15.4,14.6-23.9,20.9c-7.9,0-15.8,0-23.7,0c-2.5-3.1-1.5-6.7-1.7-10.2c-0.2-3.5,0.2-7-0.5-10.5c-0.3-2.6,1-4.7,1.9-6.9
		c8.1-20.1,15.6-40.5,19.6-61.9c1.6-8.8,4.3-17.4,3.8-26.5c-0.4-1.6-0.6-3.3-0.8-4.7c-9.9,12.1-11.9,26.7-12.9,41.8
		c-0.5,8-2.1,16-2.9,24.1c-0.4,4.3-2.7,7.3-6,9.7c-1.4,1-2.7,2.3-4.6,1.3c-1.7-0.9-1.9-2.8-1.8-4.5c0.7-6.7,2.3-13.3,3.2-20
		c0.8-6.5,3-12.8,1.6-19.5c0.5-5.9,3.1-11.2,4.9-16.7c4.8-14.8,10-29.5,12-45.1c1.1-2,0-5.7,2.9-6c2.4-0.2,3.5,2.9,5,4.8
		C595.1,447.7,596.3,451.2,599.1,453.5z"/>
	<path class="st4" d="M551.1,595.8c-7.2,0-14.3,0-21.5,0c-1.4-1.9-0.1-3.6,0.4-5.3c3.2-11.7,6.7-23.3,9.1-35.3
		c0.4-2,1.2-3.8,2.8-5.3c7.9-7.3,8.5-11.2,3.4-20.6c-1.9-1.7-5.2-2.1-5.5-5.5c-1.1-14.9-2.5-29.7-4.2-44.6
		c-1.7-14.8-4.7-29.4-5.8-44.3c7.3-11.4,8.3-24.1,8.5-37.1c0-2.3-1.1-4.9,1.2-6.8c0.6-0.2,1.3-0.2,1.9-0.1
		c7.9,2.9,12.3,8.1,13.8,16.8c2.5,14.4,5.2,28.8,5.4,43.5c0.1,5.5-1.4,10.8-1.5,16.2c-0.6,1.7-0.9,4.4-3.1,4c-2-0.3-1.7-3-1.8-4.8
		c-0.1-1.3,0.2-2.6,0.3-4c-0.5,1.6-0.7,3.2-0.7,4.8c-1.4,8.9-1.2,17.9-1.2,26.8c0,2.2-0.1,4.5,0.7,6.7c0.5,8.3,0.5,16.6,2.2,24.7
		c0.3,6.2,2.3,12.2,2.7,18.4c1.7,9.3,1.2,18.6,1,28C559.2,580.7,556.2,588.6,551.1,595.8z"/>
	<path class="st5" d="M569.2,507.7c2.8,7.6-0.7,14.7-1.5,22c-0.7,6.3-2,12.5-2.9,18.8c-0.1,0.8,0.1,2.1,0.7,2.5
		c1.2,0.9,1.9-0.5,2.8-1.1c5.1-3.1,6-8.1,6.6-13.4c1.5-13.3,3.2-26.7,4.4-40c0.3-3,1.4-5.4,2.6-7.9c3.1-6.3,6.5-12.4,10.4-19.7
		c0.7,4.3,1.3,7.4,1.9,10.5c-2.3,9.4-3.2,19.1-5.4,28.5c-5,22.1-11.9,43.6-21.3,64.3c-0.4,0.9-0.8,1.7,0.7,1.9
		c2.4,7.1,0.6,14.3,1.1,21.5c-1.9,0-3.8,0-5.6,0c-2.7-4-1.4-9.3-4.2-13.3c-0.3-0.6-0.4-1.2-0.6-1.8c0.3-13.3,0.8-26.6-1.2-39.8
		c-1.4-4.7-1.3-9.3,0.9-13.8c1.9-3.5,3.4-7.3,5.2-10.8C566.2,513.8,564.8,508.9,569.2,507.7z"/>
	<path class="st6" d="M650.5,527.4c2.5,2.4,5.1,4.9,7.6,7.3c1.3,4.1-2.4,6.2-3.7,9.3c-0.9,4.8-4.2,8.3-6.6,12.2
		c-7.8,12.8-16.9,24.7-27.7,35.2c-1.8,1.7-3.6,3.2-5.8,4.4c-6.4,0-12.8,0-19.2,0c1.3-4.7,5.8-6.5,9.1-9.2c4.3-3.7,8.3-7.5,12-11.7
		c9.4-10.6,17.6-22.1,24.6-34.5c2.1-3.7,3.7-7.7,5.8-11.4C647.5,527.5,648.1,525.1,650.5,527.4z"/>
	<path class="st7" d="M656.3,547.2c3.3,4.9,7.4,9.2,10.1,14.6c-2.3,11-9.3,19.2-16.9,26.9c-2.7,2.7-5.7,5.3-9.2,7.1
		c-7.2,0-14.3,0-21.5,0c-1.7-2.7,0.4-4.3,1.9-5.7c11.7-11.3,20.8-24.4,29.3-38.1C651.4,549.9,651.8,545.5,656.3,547.2z"/>
	<path class="st8" d="M640.3,595.8c6.8-7.5,15.3-13.5,20.1-22.8c1.9-3.8,4-7.5,6.1-11.2c0.7,0.6,1.4,1.2,2.1,1.9
		c1.7,3,3.4,6,6.1,8.4c0.6,1,1.2,2,1.8,3.1c1.9,3.2,4.1,6.1,6.1,9.2c2.1,3.8,6.6,6.3,6.4,11.4C672.7,595.8,656.5,595.8,640.3,595.8z
		"/>
	<path class="st9" d="M303.6,567.8c-1.6-3.4-0.9-6.9-0.9-10.4c0.9-0.7,0.3-3,2.5-2.3c2,1.8,2.6,4.5,4.3,6.5
		c3.5,4.2,6.2,4.2,10.5,0.9c12.5-9.7,22.8-21.5,32.8-33.6c1-1.2,1.6-3.3,3.9-2.2c-2.3,8.9-8.9,15.1-14.3,21.8
		c-9.7,12.1-18.2,24.7-21.9,40c-0.6,2.4-0.8,4.8-0.8,7.2c-3.4,0-6.8,0-10.2,0c-3.1-9.1-4.1-18.6-5.1-28.1c0-0.2,0.2-0.5,0.2-0.5
		C303.8,566.6,304.2,567.9,303.6,567.8z"/>
	<path class="st10" d="M400.9,595.8c-0.7-3.3,0.5-6.3,1.1-9.4c4.5-22.6,1.6-45.3,0.7-67.9c-0.9-23.1-2.7-46.1-4.1-69.1
		c-0.6-10.3-2.5-20.5-2.2-30.8c0.4-0.5,0.7-0.5,1.1,0c2.5,16.5,3.5,33.2,4.5,49.9c1.9,30.7,4.5,61.4,4.2,92.3
		c-0.1,11.8-1.3,23.6-4.2,35.1C401.7,595.8,401.3,595.8,400.9,595.8z"/>
	<path class="st11" d="M546.6,528c4.5,5.7,5.4,11.7,1.3,18c-0.5,0.8-0.8,2-1.5,2.3c-6.6,2.9-6.6,9.2-8.1,15
		c-2.8,10.8-5.8,21.6-8.7,32.4c-0.8,0-1.5,0-2.3,0c3.1-11.3,6-22.7,9.3-33.9c1.5-5.4,2.4-10-4.3-12.6c-1.9-0.7-3.9-2.2-5-4.3
		c0.2-0.9,0.7-1.4,1.7-1.5c2.4,0.4,3.7,2.4,5.6,3.6c4.2,2.8,7.7,2,10.2-2.4c2.5-4.4,2.8-8.7,0-13.1
		C545.1,530.2,545.4,528.9,546.6,528z"/>
	<path class="st12" d="M656.3,547.2c-2.3-0.1-3.2,1.6-4.2,3.2c-9.1,14.6-18.7,28.9-31.2,40.9c-1.3,1.2-1.9,2.7-2.1,4.5
		c-1.5,0-3,0-4.5,0c9.8-11,20.5-21.2,28.2-33.9c3.7-6.1,7.6-12,11.4-18c0.5-0.5,1.1-0.5,1.6,0C654.8,545.2,655.7,546.2,656.3,547.2z
		"/>
	<path class="st13" d="M558,540.3c3,11.8,2.2,23.8,2.1,35.8c0,2.1,0,4.1,0.1,6.2c-2.4,2.3-3,5.4-4.2,8.3c-0.9,2.1-1.7,4.1-3.8,5.2
		c-0.4,0-0.8,0-1.1,0c0-0.2-0.1-0.4,0-0.6c8.6-16.4,7.7-33.9,5.8-51.5C557.9,542.8,556.7,541.1,558,540.3z"/>
	<path class="st14" d="M160.3,530.2c0.2,13.7-0.9,27.4,3.5,40.8c2.8,8.4,7.3,16.1,9,24.8c-0.4,0-0.8,0-1.1,0
		c-4.2-11.7-10.7-22.7-11.9-35.4c-0.9-10-1.7-20-0.6-30.1C159.6,529.8,160,529.8,160.3,530.2z"/>
	<path class="st15" d="M616.6,575.5c-6,8-14.4,13.4-21.5,20.3c-0.8,0-1.5,0-2.3,0c2-4,6.1-5.9,9.2-8.7c4.5-4.2,9-8.4,13.6-12.6
		C616.6,574.2,617.2,574.3,616.6,575.5z"/>
	<path class="st16" d="M303.6,567.8c0.2-1.2,0.4-2.5,0.6-3.7c1.1,10.7,3.9,21.1,5.3,31.7c-0.4,0-0.8,0-1.1,0
		C305.6,586.6,304.4,577.2,303.6,567.8z"/>
	<path class="st17" d="M228.3,582.3c-2.5,5.6-7.9,8.8-11.4,13.5c-0.4,0-0.8,0-1.1,0C218.9,590.3,223.2,586,228.3,582.3z"/>
	<path class="st18" d="M561.3,595.8c0.3-4.6-0.1-9.1-1.2-13.6c3.9,3.8,3.1,8.8,3.4,13.6C562.8,595.8,562,595.8,561.3,595.8z"/>
	<path class="st19" d="M688.8,595.8c-1.3-4.4-4.5-7.5-6.8-11.3c-0.5-0.7-0.4-1.3,0.3-1.8c3,4.3,7,7.9,8.8,13
		C690.3,595.8,689.6,595.8,688.8,595.8z"/>
	<path class="st20" d="M321.8,346.2c-0.6,1.2-1.3,2.4-1.9,3.5c-3-0.1-1.9-2.2-1.5-3.6c5.6-19.6,6-39.9,8.1-60
		c-0.3-4.5,0.7-8.8,0.7-13.3c1.3-9.4-0.3-18.8-0.1-28.2c0-5.9,0-11.9,0-17.8c-0.1-6.9,0.3-13.7-0.2-20.6c-0.7-2.4-0.3-4.8-0.4-7.3
		c-0.1,2.9-0.1,5.7,0.4,8.6c-0.3,11.4,0.8,22.8-0.6,34.2c-0.1,0.7-0.5,1.4-2,1.5c-2-6.2-2.2-12.9-3.9-19.2
		c-3.3-21.7-6.6-43.4-3-65.5c0.1-2.6,0.1-5.2,0.2-7.9c2.2-7.1,2.3-14.6,4.3-21.7c1.8-9.5,4.5-18.7,8.5-27.5
		c5.4-12.9,11.8-25.2,21.1-35.8c5.1-6,10.7-11.6,16.7-16.7c20.4-19,45.9-24.8,72.4-28.2c1.1-0.1,2.2-0.2,3.2-0.9c2.6,0,5.3,0,7.9,0
		c7.4,1.4,15,1.6,22.5,2.2c2.4-0.3,3.4,2.6,5.8,2.3c11.1,3.3,22.7,0.9,33.8,3.2l-0.1-0.1c12,1.7,22.8,7.1,33.8,11.7
		c8.9,5.8,17.4,12.3,27.1,16.6c7.8,5.9,12.9,14.3,19.2,21.6c15.7,25.3,24,52.5,20.6,82.5c-1.7-1.5-0.2-3.7-1-5.2
		c0.3,1.8,0.1,3.8,0.1,5.7c0,1.1-1,2.2-1.6,1.4c-3.2-4.6-3.1,1-4.7,1.3c-2.5,0.1-3.3-1.8-3.3-3.7c0-8.7-3.5-16.7-5.2-25.2
		c0.7,3.7,1.6,7.4,0.9,11.2c-0.5,2.6-1.1,5.5-5,3.5c-4.3-8.9-7.2-18.3-9.5-27.9c0.7-1.7,2.2-1.3,3.5-1.5c6.8,1.1,10.7-4.6,16.1-6.9
		c1.8-0.8,1.1-3.1,0-4.5c-1.4-1.8-2.6-0.4-3.7,0.6c-1.1,1-1.9,2.4-3.4,2.8c-2.3,0.3-4.6,0.2-6.1-1.9c-4.4-6.1-9.7-11.5-12.7-18.5
		c-1.3-3.2-3.2-6-5.5-8.5c-4.8-5.2-9.5-10.6-15-15.1c-3.9-3.3-7.9-6.5-13.4-3.2c-1.8-0.6-3-2.2-4.5-3.2c-7.1-4.7-13.6-3.3-19.8,1.9
		c-2.3-0.1-3.6-1.4-4.2-3.5c1.4-6,5.9-9.6,9.3-13.2c-2.9,1.2-5.9,3.7-9.2,5.7c-1.8,1.1-3.7,2.7-6.2,1.7c-1.2-3,1.3-4.1,2.7-5.7
		c-5,4.5-9.9,3.6-13.3-2.4c1.4-1.4,3.1-2.6,4-3.7c-1.4,1.4-3.4,2.9-5.4,4.4c-2,0.7-3.9,0-5.7-0.8c-18.1-2.4-36.3-2-54.5-1.9
		c-8.3,0.1-15.3,4.8-22.9,7.1c-7.5,2.3-14,7.6-22.3,7.7c-0.8,0-1.1,0.7-1.5,1.4c-4.1,8.7-11.7,13.7-19.9,17.2
		c-8.1,3.4-15.4,13.5-14.3,22.3c-1.8,4.5-1.6,9.7-4.7,13.8c-3.2,1-3.1-2.6-5.8-3.9c-1.5,5.2-4.2,9.8-7.7,13.8
		c-0.5,0.6-0.8,1.6-0.4,2.1c2.9,4.2,0.6,7.9-0.4,12.1c-1.3,5.2-1.7,11,4.4,14.4c1.7,0.9,2.7,2.6,2.8,4.6c0,1.2-0.2,2.3-0.9,3.3
		c-3.2,2.4-6.7-0.4-10,0.5c-3,0-4.5-2.5-6.6-3.9c-1.4-1-3-1.9-4.5-0.4c-1.5,1.5-0.6,3.1,0.2,4.6c1.6,3,5.6,3.9,6.9,7.2
		c0.7,2,2.8,2.3,4.1,3.7c3.1,3.5,3.4,7,0.3,10.4c-3.3,3.6-3.5,7.2-2.7,11.9c1.3,7.7,2.3,15.5,1.4,23.4c-0.8,7.3-0.2,14.6-0.3,21.9
		c-0.1,4.9,0.4,9.7-1.6,14.4c-0.9,2-0.1,4,0.7,6c2,4.9,3.5,9.9,5.1,14.9c-1.3,13.1-0.3,26.3-3.2,39.3c-0.7,3.1-1.3,6.2-2.5,9.1
		C328.5,330.8,324.5,338.2,321.8,346.2z"/>
	<path class="st21" d="M321.8,346.2c-0.7-0.5-0.9-1.2-0.6-1.9c3.2-6.9,6.3-13.8,9.5-20.6c2.5-0.7,3.3,0.4,3,2.6
		c-0.7-8.8,2.5-17.3,2.6-26.1c0-8.3,1.8-16.5,0.5-24.8c-2.8-5.3-3.3-11.5-6.4-16.7c-0.8-1.3-1-3.7-0.2-4.9c3-4.5,2-9.5,1.9-14.2
		c-0.3-13.8,1.3-27.6-0.2-41.4c-0.2-1.7-0.3-3.3-1-4.8c-2.1-4.4-0.5-8.1,2.4-11.3c4.3-4.7,3.9-7.6-1.9-10.9
		c-1.5-0.8-3.5-1.4-1.2-3.5c4.9-1.4,9.7-0.7,14.4,1c-0.9,11.2-0.4,22.4-0.9,33.6c-0.1,2.1-0.1,4.1-0.2,6.2
		c0.3-10.9,1.7-21.6,3.1-32.3c0.3-2.2,0.7-4.6,3.5-5.1c3.6,6.3,4.2,13,1.5,19.8c-0.8,2-1.1,4-0.4,6c1.7,4.5,1.6,9.2,1.7,13.9
		c0.3,21.4-0.2,42.7-3.3,63.9c-0.2,1.5-0.3,3-1.2,5.3c1.5-2.7,2-4.8,2.9-6.7c1.1-2.6,2.5-5,3.5-7.6c0.6-1.4,1-3.4,3.4-2.8
		c2.8,6.5,2.4,13.5,2.7,20.3c0.7,17.6-0.8,35.1-2.3,52.6c-0.2,2.2-0.7,4.4-1.4,6.6c-0.7,2.2-2,4.3-4.9,2.2
		c-1.8-5.7-1.1-11.2,1.8-16.4c1.2,0.2,1.4,1,1.2,1.5c-1.4-4.7-0.9-10-0.9-15.3c0.3-3.4,0.6-6.8,1-9.4c-0.1,1.5-0.7,3.8-0.7,6.2
		c-0.6,3.1-2.2,6.1-1.3,9.5c0,3.2-1.6,5.9-3,8.6c-2.6,6-5.4,12-6.5,18.6c-0.3,2.4-0.8,4.7-3.2,6c-4,0.5-8.3,2.8-11.6-1.6
		c0.7-8.3,3.7-16.4,3-26C328.3,333.3,325,339.8,321.8,346.2z"/>
	<path class="st22" d="M223.8,345.4c1.1,4.4-1.7,7.4-3.9,10.3c-6.3,8.6-12.8,17-19.4,25.3c-2.6,3.3-4.5,6.9-6.1,10.6
		c-0.8,1.9-1.9,3.2-3.4,4.3c-1.9-4.2-0.2-8.4,0.1-12.6c0.6-7.6,1.7-15.2,1.4-22.8c-0.2-5.1,3.7-8.5,4.3-13.1
		c0.7-1.7,1.7-3.5-0.3-5.1c-1.7-2.2-4-3.9-5.8-6c-2.1-3.5-5.3-6.1-7.8-9.2l0,0c-2-3.6-5.7-5.7-7.9-9.1l0,0c-1.7-3.1-4.8-5.1-7-7.8
		c-1.1-2.9-3.9-4.4-5.5-6.9l0,0.1c-6.7-9.1-9-19.9-11.8-30.5c0.4-2.7-0.8-5.2-0.7-7.8c0.1-5.2,3.5-7.8,8.2-5.7
		c3.9,1.8,8.5,3.5,8.5,9.1c-2.1,2.7-2.9-0.3-4.1-0.8c0.9,1.9,4.7,2.4,3.2,5.9c-0.1,0.2-0.7,0.7-0.2,0.6c6-1.6,7.5,4.3,11,6.7
		c1.9,1.4,4.1,2.6,5,5c0.5,1.3,0.5,2.6,0.4,3.9c3.4,3.2,6.5,6.7,10.3,9.4c5.5,3.8,8.5,9.1,9.5,15.2c2.1,12.7,8.2,21,21.7,22.5
		c1.8,0.2,3.6,0.8,5.5,1.2c0.1,3.1-2.6,4-4.5,5.2c-3.3,2-6.8,3.8-10.4,4.6C217.5,348.4,219.9,344.3,223.8,345.4z"/>
	<path class="st23" d="M323.1,358.1c0.1-0.4,0.3-0.6,0.7-0.5c2.8-1.4,4.9-3.6,8.6-3.5c12.9,0.2,14.2,0.5,18.4,12.8
		c8.3,24.4,11.4,49.6,9.7,75.3c-0.3,5.4-0.2,10.9-1.9,16.1c-0.5,3.7-1.8,7.2-1.8,10.9c-3.1,12.1-4.6,24.7-8.5,36.6
		c-5.5,16.7-12.3,33-20.3,48.7c-2.1,4.1-5.7,7-9.3,9.7c-3.1,2.3-6.8,1.6-8.9-1.7c-3.6-5.7-7.3-11.4-7-18.6
		c-0.3-3.7-0.3-7.3,2.5-10.3c3.3-2.7,4.6-0.5,5.6,2.3c1.4,3.9,1.7,8.1,3.3,11.9c2-0.1,2.5-1.6,3.2-2.9
		c12.9-23.6,21.6-48.7,27.4-74.9c0.2-0.9,0.2-1.9,0.1-2.8c0-0.6,0.1-1.1,0.3-1.7c1.5-3.4,1.5-7.2,2.2-10.8
		c3.5-29.2-1.5-57.3-11.2-84.8c-1.8-5.1-3.6-10.1-10.9-8.4C323,362.1,322,360.5,323.1,358.1z"/>
	<path class="st24" d="M176.3,233.3c0.2-2.6,1.5-4.7,3-6.8c5.9-4.5,12.7-4.8,19.6-4.3c1.5,0.1,3.2,0.5,4.1,1.6
		c6.7,7.9,15.5,14.7,14.6,26.9c-0.3,3.7,2.7,6.8,3.5,10.5c0.5,2.1,0.5,4.2-1.2,5.8c-2,1.8-3.8,0.5-5.6-0.6c-1.2-0.8-2.2-1.8-2.9-3.1
		c-1-2.4-1.6-5.1-3.6-7c-2.6-2.7-4.3-6.1-5.9-9.4c-4.1-8.5-10.5-10.8-19.2-8.8C179.7,237.9,177,237,176.3,233.3z"/>
	<path class="st25" d="M568.3,336.3c-2.4,20-7.3,39.4-13.7,58.5c-2.3,1.4-3.9,0.3-5.3-1.5c-1.8-4.4,0.2-8.8,0.2-13.2
		c0-5.8,0.1-11.5,0.2-17.3c0.7-4.6,1.9-9.2,0.5-13.9c-0.4-5.3,5.7-15.4,10.6-17.4c0.9-0.4,1.8-0.3,2.4,0.7
		c2.2,9.2,0.3,18.3-1.3,27.4c1.9-7.9,1.8-16.1,3.7-24c0.3-1.2,0.7-3.1,2.2-2.7C569.2,333.3,568.6,335,568.3,336.3z"/>
	<path class="st26" d="M575.7,423.1c5.2,2.6,7.2,8,10.4,12.3c0.3,13.8-3.8,26.9-7.4,39.9c-2.8,9.9-6.5,19.6-9.8,29.3
		c-0.4,1.2-1,2.4-2.1,3.3c-1.7-0.2-2-1.5-2.3-2.8c1.5-11.3,4.6-22.3,5.8-33.6c1.3-12.2,2.5-24.4,2-36.7
		C572.2,430.9,569.8,425.6,575.7,423.1z"/>
	<path class="st27" d="M595.2,148.6c4.1,1.5,3.1-1.6,3.4-3.6c0.8-5-2.3-9.8-0.1-14.9c2.5,8.9,6.3,17.4,6.8,26.7
		c0.1,2.3-0.8,5,2.1,6.4c0.2,0.2,0.5,0.4,0.7,0.6c2.2,11.4,0.6,22.6-2.7,33.5c-1.1,3.7-3,7.2-3.6,11.1c-2.4,6.2-5.9,11.9-9.9,17.2
		c-3.4-1.7-2.2-4.5-1.1-6.8c3.6-7.5,5.1-15.5,6.2-23.6c2.4-12.2,1-24.6,1.1-36.9C598.1,154.7,594.1,152.5,595.2,148.6z"/>
	<path class="st28" d="M579.1,383.5c0.2,1.3,0.1,2.5-0.9,3.5c-2.1,0.1-0.7,3.6-3.2,3.3c-0.1-6-0.1-12-0.2-18
		c0.8-13.7-0.6-27.2-3-40.6c-1.5-8.3-1.4-16,4.4-22.8c1.2-1.5,2.9-1.6,4.5-2.1c0.8-0.2,1.5-0.4,2.3-0.4c1.2,0.5,1.4,1.5,1.1,2.6
		c-0.4,0.7-1,1.2-1.8,1.3c-0.3,0.3-0.7,0.6-1,0.9c-1.4,7.7,0,15.3,0.2,23c0.3,15.4-0.5,30.7-2.7,45.9
		C578.8,381.3,578.6,382.4,579.1,383.5z"/>
	<path class="st29" d="M575.7,423.1c-2.2,1.8-2,4.2-1.8,6.6c1.4,25.7-2.5,50.8-8.2,75.7c-0.8,2.5-0.1,5.4-2,7.6
		c1.3-1.7,1.1-4.2,2.9-5.6c8.3-23.3,17.1-46.4,18.6-71.5c0-0.2,0.5-0.4,0.8-0.6c0.8,1.1,1.6,2.3,2.5,3.4c-3.2,1.5-1.3,4.7-2.3,6.9
		c-1.7,17.9-8.2,34.5-13.7,51.3c-1.2,3.5-2.3,7.1-3.5,10.6c-2.1,2.7-1.8,6.6-4.5,9c-2.6,1.4-3.2-0.6-4-2.3c-0.2-1.9,0.1-3.8,0.3-5.6
		c5.8-22.3,8.6-45,9.8-67.9c0.2-3.4-0.8-6.7-0.9-10.1c-0.1-3.2-0.6-6.4,0.8-9.5c0.4-0.7,0.9-0.9,1.7-0.5
		C573.1,422.1,574.3,422.8,575.7,423.1z"/>
	<path class="st30" d="M248.4,387.9c0.1-13.5,2.9-26.8,4.2-40.2c0.6-6.3,0.5-12.7,1.3-19.1c0.9-7.3,3-14,6.8-20
		c5.3-8.4,6-17.5,4.4-26.6c-3.5-20.5-2-40.3,6-59.6c1.3-3.1,2.4-6.2,3.6-9.3c0.1,3-0.4,5.9-1.6,8.8c-9,20.3-9.2,41.5-5.8,63
		c1.2,7.4,0.7,14.5-3.2,20.7c-7.6,12.2-8.9,25.6-9.9,39.4c-1.2,15.5-3,31-4.6,46.5C246.9,390.9,248.3,389.2,248.4,387.9z"/>
	<path class="st31" d="M550,393.7c1.5,0.4,3,0.7,4.5,1.1c0.2,1.8-1.8,3.6,0.2,5.3c0.3,0.6,0.6,1.2,0.9,1.8
		c7.2,26.8,9.3,53.9,3.5,81.3c-1.2,3-1,6.5-3.7,8.9c-1.9,0-1.8,1.2-1.9,2.7c-0.1,2.2,0.5,4.6-1.4,6.3c-1.8-9.6-1.2-19.2-0.3-28.9
		c0.2-2,0.3-4.1,0.5-6.1c1.2-1.8,2.5-2,2.6,0.5c0.3,5.9,0.6,11.8-0.5,15.8c0.2-3.7,1.8-8.9,3.2-14.2c3.2-22.6-0.6-44.7-5.4-66.6
		c-0.5-2.5-2-3.9-3.9-5.1c-2.5-1.6-4.9-3.3-7.4-5c0.4-0.4,0.8-0.6,1.3-0.8C545.3,390.5,547.3,393,550,393.7z"/>
	<path class="st32" d="M583.9,309c-0.3-0.7-0.7-1.5-1-2.2c-4.1-3-2.9-7.4-2.5-11.3c0.5-4.4,1.9-8.7,2-13.2c0-1.4,0.1-3.4,2-3.6
		c2.1-0.3,2.7,1.6,3,3.3c0.3,1.5,0.3,3,0.4,4.5c0.2,4,1.2,7.9,1.7,11.9c0.4,13.4,2.1,26.7,2.3,40.1c0,2.6,0.5,5.3-2.4,7
		c-0.9-1.1-1-2.3-0.8-3.6c0.9-3.3-0.6-6.4-0.7-9.7c0-0.1-0.1-0.3-0.2-0.3c-0.2,0-0.3,0.1-0.5,0.1c-0.7-3.5-1.3-7-2-10.5
		C586.5,317.1,582.6,313.3,583.9,309z"/>
	<path class="st33" d="M323.1,358.1c0.1,3.2,2.3,2.4,4,2c4.5-1.2,6.7,0.7,8.6,4.8c8,17.3,11.1,35.7,13.5,54.4
		c1.5,12.2,1.8,24.3-0.3,36.4c-2.8-0.5-2-2.9-2.5-4.7c-0.1-3.2-0.1-6.4,0-9.7c0.5-22.6-3.4-44.6-10.3-66c-3.9-12.1-4.4-12-16.9-10.7
		c-4.1,0.4-8.1,1.8-12.3,0.8c-0.9-0.4-1.8-0.8-1.7-2c3.8-0.7,7.7-1.8,11.6-1.4C320,362.4,320.9,359.3,323.1,358.1z"/>
	<path class="st34" d="M358,459.2c2.1-15.6,2.8-31.3,1.1-47c-1.7-16.2-4.5-32.3-10.3-47.6c-3.2-8.3-13.1-12-21.5-8.3
		c-1.2,0.5-2.1,1.6-3.6,1.4c1.7-1.9,3.4-3.7,5.1-5.6c3.6,2.2,7.7,0.1,11.4,1.3c3,1.1,5.8-0.2,8.7-0.6c0.8,0.3,1.3,0.8,1.5,1.7
		c-2.1,1.1-2.6,2.5-1.5,4.9c12.6,29.6,14.2,60.7,12.3,92.3c-0.2,2.5-1.3,5-2,7.5C358.8,459.5,358.4,459.6,358,459.2z"/>
	<path class="st35" d="M214.6,265.1c1.6,0.5,2.9,3,4.9,1.2c1.6-1.5,1-3.5,0.5-5.3c-1.5-4.9-4-9-3.9-14.9c0.3-9.1-6.9-16-13.5-21.1
		c-5.6-4.4-13.3-2.1-20,0.5c-1.1,0.4-1.7,2.4-3.3,1c0.1-0.3,0.2-0.7,0-1c0.4-2.9,2.5-3.3,4.8-3.3c2-0.3,4.1-0.4,6.1-0.8
		c7.4-1.4,12.6,0.9,18.2,6.5c10,9.8,10.2,22.8,14.1,34.6c0.8,2.4-0.7,4.3-2.3,6c-3.2,3.3-5.3,1.4-7.1-1.5
		C213.1,265.9,213.7,265.4,214.6,265.1z"/>
	<path class="st36" d="M598.4,196c-1.1,8.4-2.8,16.7-6.7,24.5c-0.9,1.7-1.2,3.5,0.2,5.2c-1.3,1.2-1.3,2.8-1.4,4.3
		c-0.4,1.2-0.7,2.4-0.8,3.6c-0.3,1.3-0.2,3-2.1,3.3c-2-1.2-1.8-3.3-1.9-5.2c2.3-13.8,1.6-27.8,2.8-41.6c1-1.9,2.7-2.8,4.6-3.3
		c1,0.3,2,1.2,1.6,1.9c-3.3,7.3,0.2,15.5-2.2,21.2c0.3-3.8,1.8-9.2,2.3-14.7c0.1-1.5,0.3-3,1.9-3.8
		C599.2,192.2,597.1,194.7,598.4,196z"/>
	<path class="st37" d="M588.5,232.4c-0.3-1.6,0.4-2.4,2-2.4c2.7,5.7,2.7,12.2,0.9,17.5c-4.1,12.6-1.9,25.2-2.1,37.8
		c-1.6,0.1-1.8-1.1-2.1-2.3c-0.2-3.6-2.9-6.5-3-10.1c-0.1-1.5-1-3.1-0.3-4.4c2.3-4.1-0.1-7.5-1.3-11.1c-0.1-8.3,1-16.6,2.7-24.7
		c0.4-0.6,0.9-0.9,1.6-0.7c0.6,1.5-0.3,3.3,1.1,4.6c2.8,4.5,0.2,9,0,13.5c-0.1,2.1-1.2,4.1-0.9,5.8
		C587.7,248.4,591.3,240.5,588.5,232.4z"/>
	<path class="st38" d="M151.6,272.7c2.7,10.6,5.7,21.1,11.1,30.7c-3.8-2.3-5.3-6.3-6.5-10c-3.2-9.5-6.3-19.1-8.8-28.9
		c-2.6-10.1,4.8-19.9,15.2-20.9c1.5-0.1,2.4-0.8,3.4-1.7c0.5,0.3,0.8,0.6,1.1,1.1c2.1,4.4,5.9,7.1,9.6,9.9c1.7,2,4.4,3.3,4.4,6.4
		c-0.4,0.8-1,1.3-1.8,1.5c-5.7-2.4-9-7.6-13.8-11.1c-4.9-3.6-5.8-3.7-10.4,0.4c-5.1,4.7-6.6,10.1-4.6,16.7
		C151.1,268.7,152.5,270.5,151.6,272.7z"/>
	<path class="st21" d="M443.8,20.2c-0.6,2.8-2.8,1.9-4.5,2.1c-22.9,2.8-44.9,8-63.9,21.9c-2.6,1.9-4.8,4.2-7.2,6.3
		c-0.5-0.4-1.2-0.5-1.2-1.2c14.8-15.1,33.9-21.2,53.6-26C428.3,21.3,435.9,19.8,443.8,20.2z"/>
	<path class="st39" d="M578.2,307.9c-8.1,9.9-5.6,21-4.2,32.2c1.3,9.8,2.3,19.7,1.9,29.6c0,1-0.2,1.9-1.1,2.5
		c-1.2-15-1-30.1-4.8-44.9c-3.8-1.7-4.6,3.3-7.5,3.5c-0.8-0.3-1.4-0.8-1.6-1.6c0.6-3.4,2.2-6,5.6-7.1c5.1,1.7,1.1-2.4,2.1-3.3
		c1.7-4.9,4.2-9.2,8.4-12.3C577.9,306.5,578.6,306.8,578.2,307.9z"/>
	<path class="st40" d="M160.3,530.2c-0.3,0-0.7,0.1-1,0.1c-0.2-2.6,0.5-5.4-1.2-7.9c-0.5-1,0-2.1-0.1-3.1c1.5-7.5,2.1-15.1,3.8-22.6
		c0.3-1.1,0.6-2.2-0.7-2.9c-0.4-0.3-0.8-0.6-1-1.1c3.7-5.8,6.6-12,8.2-18.7c-0.4-2.9,2.6-3.7,3.5-5.8c0.4-0.4,0.9-0.4,1.3,0
		C166.8,488.5,162.6,509.1,160.3,530.2z"/>
	<path class="st41" d="M209.1,226c-13.2-13.3-27.2-25.8-39.4-40.2c-5.2-6.1-11-11.8-17.7-16.4c-1.5-1.1-3.2-1.9-4-3.8
		c4.9,0.9,8.1,4.6,11.3,7.7c16,16,31.8,32.2,47.6,48.5C208,222.9,209.7,223.9,209.1,226z"/>
	<path class="st42" d="M589.3,345.3c1.1-3,1.3-6.1,1.3-9.3c0.3-12.9-2.2-25.6-2.2-38.4c0.8-0.6,0.1-1.9,1.2-2.3
		c1.8,5.2,1,10.7,1.4,16.1c1.1,13.8,2.2,27.6,1.5,41.4c-0.1,1.7,0.6,3.8-1.7,5.4C590.3,353.7,589.8,349.5,589.3,345.3z"/>
	<path class="st43" d="M579.1,383.5c-2.8-5-0.1-10,0.4-14.8c1.8-17.2,0.6-34.4,0.9-51.5c0-2-0.8-4.2,1-5.9c1.4,21.5,2.1,43-1,64.5
		C580.1,378.3,579.6,380.9,579.1,383.5z"/>
	<path class="st21" d="M327.5,286.3c-2.5,20.1-2.6,40.5-8.5,60c-0.4,1.4-0.5,2.6,0.9,3.4c-0.1,0.9-0.3,1.8-1.3,2.2
		c-0.9,0-1.7-0.4-2.2-1.1c6.2-22.1,7.4-44.9,9-67.6c0.1-1.7,0.5-3.3,0.8-4.9C328.1,280.8,326,283.8,327.5,286.3z"/>
	<path class="st44" d="M328.6,226.8c0,5.9,0,11.8,0,17.7c-1.1,4.4-0.1,8.8-0.6,13.2c-0.3,0.7-0.8,0.9-1.5,0.5
		c-1-3.8-2.5-7.4-2.3-11.4c1.5-3.1,1.9-6.2,1.8-9.6c-0.4-10.4,0.6-20.8-0.5-31.2c0.3-3.9,0.2-7.7-0.7-11.5c4.1,2.8,2,7.1,2.9,10.6
		C329.1,212.3,327.1,219.6,328.6,226.8z"/>
	<path class="st45" d="M562.5,330.5c1-1.3,2.1-2.5,3.1-3.8c1.8-2.1,3.3-1.9,4.4,0.6c-2,2.7-0.1,6.2-1.8,8.9
		c-0.2-0.7-0.3-1.4-0.8-3.5c-1.5,10.3-2.9,19.4-5.9,28.1c1.2-9.8,1.1-19.6,0.6-29.5C562,331.1,562.1,330.7,562.5,330.5z"/>
	<path class="st27" d="M607.4,163.2c0.6-3.2,1.3-6.3,2-9.9c3,2.4,0.1,6.1,3.6,8.4c0-3.5,0-6.5,0-9.6c0.3,0,0.7,0,1,0
		c0.2,2.7,0.4,5.3,0.6,8c-0.8,8.8-1.1,17.6-4.7,25.9c-3.3-1.3-1.8-4-1.7-6.2c0.3-5.5,1.3-10.9-0.5-16.3L607.4,163.2z"/>
	<path class="st46" d="M616.6,575.5c-0.3-0.4-0.7-0.7-1-1.1c11.5-13.8,21.8-28.4,29.6-44.6c1.1-2.2,2.1-4.3,1.8-6.9
		c1.6,1.1,3.6,1.9,3.5,4.5c-3.3-0.3-3.1,2.8-4,4.5C638.3,547.6,629,562.6,616.6,575.5z"/>
	<path class="st47" d="M173.1,468.2c-0.4,0-0.9,0-1.3,0c6.5-22.5,11.4-45.3,16.7-68.1c0.7,0.1,0.8,0.9,1.1,1.3
		C185.5,424.1,179.9,446.3,173.1,468.2z"/>
	<path class="st48" d="M317.4,158.8c1.1,9.3-1.4,18.4-0.5,27.8c1.2,12.6,2.9,25.1,4,37.7c0.4,1-0.1,1.3-1,1.1
		c-4.3-21.3-6.4-42.6-3.6-64.3C316.4,160.2,316.3,159.2,317.4,158.8z"/>
	<path class="st49" d="M607.7,163.5c2.1-1.1,2.2,0.2,2.1,1.7c-0.3,4.8,0.6,9.7-0.7,14.4c-0.6,2.2-0.5,4.4,0.8,6.4
		c-1.5,7.9-4.2,15.4-8.1,22.5c-1.7-2.6,0.4-4.6,1.1-6.7C607.4,189.4,607.6,176.4,607.7,163.5z"/>
	<path class="st50" d="M243,458.1c1.2-17.6,2.3-35.2,3.5-52.8c1-0.4,1.5-0.2,1,1c0.1,0.7-0.1,1.6,1,1.8c0.5,0.5,0.9,1.1,1.1,1.7
		c-0.4,16.2-1.8,32.4-3.5,48.5C245,459.9,244,459.6,243,458.1z"/>
	<path class="st41" d="M148.1,165.6c-5.2-1.3-9.9-4.1-15.3-5c-3.8-0.6-8.1-1.6-10.1,2.1c-2.2,4.1-0.1,7.9,3.9,10.4
		c0.6,0.4,0.8,1.2,1.2,1.8c-3.7-1-6.6-3.4-9.8-5.3c-2.3-1.4-3.3-3.5-2.9-6.2c0.4-2.7,2.4-3.9,4.6-4.3
		C130,157.2,139.6,159.1,148.1,165.6z"/>
	<path class="st51" d="M189.6,401.5c-0.4-0.4-0.8-0.9-1.1-1.3c1.2-14.2,2.4-28.4,3.6-42.6c0.3-3.9,2.9-6.9,4.7-10.1
		c1,0.7,0.8,1.6,0.2,2.4c-4,5.7-3.7,12.2-3.9,18.8c-0.3,9.1-1.3,18.2-2.1,27.3C190.6,397.8,190.1,399.7,189.6,401.5z"/>
	<path class="st21" d="M319.9,225.4c0.3-0.4,0.7-0.7,1-1.1c2.4,5.6,2.2,11.8,4.5,17.7c0-12,0-24,0-36c1.9,6.4,0.6,13,0.9,19.5
		c0.2,5.6,0,11.3,0,16.9c0,1.8,0.6,3.9-2.1,4.4C321.9,239.9,321.1,232.6,319.9,225.4z"/>
	<path class="st52" d="M305.1,363.4c0.4,0.4,0.7,0.7,1.1,1.1c-0.1,1.8-1.5,2-2.8,2.2c-10,1.4-16.6,7.7-22.9,14.9
		c-3.4,3.9-6,8.6-10.7,11.3c-0.9-0.2-1.6-0.5-1.2-1.6c5.1-6,9.6-12.4,15.2-17.9C289.9,367.6,296.7,363.9,305.1,363.4z"/>
	<path class="st53" d="M247.6,236.9c-0.3,6.5-2.6,12-8,16c-2.1,1.5-3.2,2.4-6.1-0.3c-4.3-4.1-9.4-7.3-12.6-12.6
		c4.4,1.2,5.9,5.7,9.6,8c7.4,4.6,12.4,2.8,14.5-5.8c0.7-2.9,1.1-5.9,1.6-8.8C249.1,233.9,247.7,235.6,247.6,236.9z"/>
	<path class="st54" d="M176.3,233.3c1.6,2.3,3.9,3.4,6.6,3.5c5.5,0.1,9.5,2.7,12.9,6.8c3.8,4.5,9.2,7.8,11.3,13.7
		c0,0.6-0.1,1.1-0.5,1.6c-0.4,0.4-0.9,0.6-1.4,0.8c-4.2-1.9-6-6.1-8.7-9.3c-5.5-6.8-13-9.7-21-11.9c-1.3-0.4-2.6-0.4-3.7-1.2
		c-0.3-0.3-0.4-0.6-0.3-0.9c0.1-0.3,0.2-0.5,0.3-0.5C173.5,235.2,175.5,235.4,176.3,233.3z"/>
	<path class="st55" d="M147.5,188.2c6.9,2.6,11,8.6,15.9,13.5c4.2,4.2,7.9,9,11.8,13.5c4.3,3.7,4.5,4.3,2.2,6.8
		C169,209.4,158.6,198.5,147.5,188.2z"/>
	<path class="st21" d="M352.4,66.3c-9.3,10.3-15.3,22.7-21.4,35c-0.4,0.7-0.8,0.7-1.2,0c5.1-13.2,11.6-25.6,21.3-36.1
		C351.9,65.2,352.1,65.8,352.4,66.3z"/>
	<path class="st56" d="M547.7,39.4c-4,1.2-6.5-2-9.5-3.4c-7.8-3.7-16.4-5-24.3-8.2C526.4,27.9,537.1,33.5,547.7,39.4z"/>
	<path class="st57" d="M513.9,27.8c-7.8,0.6-15.5-1.3-23.3-0.1c-3.8,0.6-7-2.1-10.5-3.1c8.5,0.5,17.1,0.5,25.5,1.6
		C508.3,26.6,511.6,25,513.9,27.8z"/>
	<path class="st58" d="M168.3,474c0.4,5.5-1.1,10.4-4.3,14.9c-1.1,1.5-2.5,2.7-3.7,4.1c-1.2,0.9-2,0.6-2.4-0.9
		c3.1-5.8,5.4-12.1,9.9-17.1C168,474.6,168.2,474.3,168.3,474z"/>
	<path class="st59" d="M274.5,213.1c-0.7-4.6,2.2-9.8-2.3-13.9c-1.2-1.1-3.9,1.2-4.4-1.8c0.4-0.1,0.7-0.3,1.1-0.2
		c2.5,0.2,4.1-4.3,6.8-1.7c2.4,2.3,1.5,5.7,0.7,8.5C275.7,207,276.5,210.4,274.5,213.1z"/>
	<path class="st60" d="M329.9,101.3c0.4,0,0.8,0,1.2,0c-3.2,9.2-6.9,18.3-8,28.2c-2.3,0.2-1.5-1.4-1.4-2.5
		C322.7,117.8,326.2,109.5,329.9,101.3z"/>
	<path class="st61" d="M594,77.6c-3.8-1.5-5-5.2-7.3-8c-3.5-4.3-6.8-8.8-11.6-11.8c-0.7-0.4-1.1-1-0.3-1.7
		C584.1,60.7,588.5,69.6,594,77.6z"/>
	<path class="st21" d="M321.7,126.9c0.3,0.9,0.3,2,1.4,2.5c-1.9,5.7-2.5,11.7-3.3,17.6c-0.2,1.6,0.4,3.6-2.1,4
		C318.1,142.8,319.2,134.7,321.7,126.9z"/>
	<path class="st62" d="M247.6,236.9c-0.3-1.2,0.1-2.6-1-3.5c1.1-7.7,1.2-15.7,6.6-22.2C251.2,219.8,249.4,228.4,247.6,236.9z"/>
	<path class="st63" d="M615.7,488.5c-4.8-7.4-7.7-15.6-10.4-23.9c4.9,7.4,8.2,15.6,11,24C616.1,488.6,615.9,488.6,615.7,488.5z"/>
	<path class="st64" d="M177.4,222.1c2-3.2-2.4-4.3-2.2-6.8c4.6,0.2,6.6,3.9,9,7c-1.2,1.8-4,1.1-4.8,3.3
		C178.7,224.4,178.1,223.2,177.4,222.1z"/>
	<path class="st21" d="M474.3,22.4c-7.6-0.1-15.3,1.6-22.5-2.2C459.4,19.4,466.9,20.6,474.3,22.4z"/>
	<path class="st65" d="M352.4,66.3c-0.4-0.4-0.8-0.8-1.2-1.1c4.5-6,9.9-11.2,15.8-15.9c0.4,0.4,0.8,0.8,1.2,1.2
		C362.4,55.2,357.2,60.5,352.4,66.3z"/>
	<path class="st62" d="M267.8,197.4c1.5,0.6,2.9,1.2,4.4,1.8c-6.6-1.1-9.9,4.2-14.2,7.5c-1.4,1.1-2.1,3.2-4.4,3
		C257.3,204.4,261.5,199.6,267.8,197.4z"/>
	<path class="st63" d="M586.3,445.8c0.2-2.5-2.1-5.8,2.3-6.9c4.9,3.9,7.7,9.3,10.5,14.7c-3.4-1-4.1-4.5-5.9-6.9
		c-1.7-2.2-2.7-4.9-5.6-6.2C587.1,442.3,586.7,444,586.3,445.8z"/>
	<path class="st66" d="M159.3,520.1c-0.4,0.8-0.8,1.6-1.1,2.4c-3.2-6.8-8.1-13.4-3.7-21.5c0.4-0.5,0.9-0.6,1.4-0.3
		C155.2,507.4,157.2,513.8,159.3,520.1z"/>
	<path class="st67" d="M326.5,258.2c0.4,0.1,0.7,0.1,1.1,0.1c0.8,4.9,0.8,9.7,0,14.6c0,4.5-0.1,9-0.1,13.5c-2.2-2.4-0.3-5.4-1.3-8
		C326.4,271.6,326.4,264.9,326.5,258.2z"/>
	<path class="st68" d="M615.7,488.5c0.2,0.1,0.4,0.1,0.6,0.1c0.7,2.5,2.6,4.5,2.6,7.3c-4.2-2.7-7.5-6.2-11-9.9
		C611.6,484.4,611.8,491.4,615.7,488.5z"/>
	<path class="st69" d="M167.8,474.9c-3.2,5.7-6.3,11.3-9.5,17c-0.3,0.5-0.6,0.5-1,0.1C159.9,485.8,162.1,479.3,167.8,474.9z"/>
	<path class="st70" d="M157.3,492c0.3,0.1,0.7,0,1-0.1c0.2,1.2,1.1,1.1,2,1c0.6,0.1,1.2,0.1,1.9,0.2c0.1,4.4-2.9,6.2-6.2,7.9
		c-0.5,0-1,0-1.6-0.1C156.2,498.2,155.3,494.6,157.3,492z"/>
	<path class="st71" d="M575,390.2c1.3-1,0.5-2.8,1.3-4c1.2-1.7,1.6-0.4,1.9,0.7c-1.6,3.9-0.2,8.5-3.1,12.8
		C574.4,396.2,574.8,393.2,575,390.2z"/>
	<path class="st72" d="M247.6,406.2c-0.3-0.3-0.7-0.7-1-1c1.3-5.7,0-11.7,1.8-17.4c0.3,1.2-0.1,2.6,1.1,3.4
		C248.4,396.2,249.2,401.4,247.6,406.2z"/>
	<path class="st73" d="M554.6,401.8c0-0.6,0.1-1.1,0.1-1.7c6.2,2.2,11.2,5.9,14.6,11.5c-0.2,0.1-0.4,0.3-0.6,0.4
		C563.4,409.5,559.1,405.5,554.6,401.8z"/>
	<path class="st74" d="M268.8,391.3c0.4,0.4,0.8,0.9,1.1,1.3c0.2,0.3,0.3,0.7,0.3,1c-0.2,2.6-4.8,3.7-2.5,7.2
		c0.2,0.3-1.2,1.2-2.2,1.2c-1.3-0.5-2.7-0.7-2.3-2.7C264.2,396.1,266.3,393.6,268.8,391.3z"/>
	<path class="st75" d="M589.7,295.2c-0.4,0.8-0.8,1.5-1.2,2.3c-0.5-3.7-1-7.3-1.4-11c0.1-1.2-1.6-3.1,1.2-3.4
		c0.4,0.7,0.8,1.4,1.1,2.1C588,288.7,590.4,291.9,589.7,295.2z"/>
	<path class="st72" d="M248.8,409.6c-0.1-0.5-0.1-1.1-0.2-1.6c3.4-1.7,6.8-3.4,10.3-5.2c0.8,0.3,1.4,0.8,1.3,1.8
		C257.1,408.1,253.1,409.3,248.8,409.6z"/>
	<path class="st76" d="M183,327.1c3.4,2.4,6.4,5.1,8.3,8.9c-0.5,0.6-1.1,0.7-1.7,0.2C186.9,333.5,184.5,330.6,183,327.1z"/>
	<path class="st42" d="M587,331.8c0.3-0.5,1-1.6,1-1.3c0.6,3.7,3,7.3,0.5,11.1C588,338.4,587.5,335.1,587,331.8z"/>
	<path class="st77" d="M175.1,318.1c3.3,2.5,6.8,4.7,7.9,9.1C179.4,324.9,176.9,321.8,175.1,318.1z"/>
	<path class="st43" d="M583.9,309c0.4,4.1,3.2,8,1.2,12.4c-0.9-3.7-1.7-7.3-2.6-11C582.9,309.9,583.4,309.4,583.9,309z"/>
	<path class="st78" d="M655.6,543.9c-0.5,0-1.1,0-1.6,0c0.7-3.4,4.1-5.5,4.2-9.2C661.2,538.9,656.8,540.9,655.6,543.9z"/>
	<path class="st79" d="M633.6,510.6c-2.9-2.8-6.2-5.2-8.5-8.6C629.6,503.1,632.1,506.4,633.6,510.6z"/>
	<path class="st80" d="M168.6,310.1c2.5,2.4,5.9,4.1,6.5,8c-3.3-2-5.4-5.1-7.6-8C167.8,309.6,168.2,309.5,168.6,310.1z"/>
	<path class="st81" d="M572.4,420.8c-0.3,0-0.6,0-0.9,0c-3.4-2.4-3.6-5.5-2.3-9.1c0,0,0.2-0.1,0.2-0.1
		C572.4,414,572.7,417.3,572.4,420.8z"/>
	<path class="st82" d="M316.4,350.8c0.9,0,1.7,0.3,2.2,1.1c-1.5,1.6-0.9,4.3-3.3,5.6C314.8,355.1,314.9,352.8,316.4,350.8z"/>
	<path class="st83" d="M682.3,582.8c-0.1,0.6-0.2,1.2-0.3,1.8c-2.2-2.9-4.9-5.6-5.6-9.4C679,577.2,680.7,580,682.3,582.8z"/>
	<path class="st84" d="M674.6,572.1c-3.4-1.8-5.6-4.5-6.1-8.4C671.2,566,673.1,568.9,674.6,572.1z"/>
	<path class="st85" d="M259.8,403.9c-0.4-0.4-0.7-0.7-1.1-1.1c1.5-1.2,3-2.3,4.4-3.5c0.7,0.7,1.4,1.4,2.1,2.1
		C264.4,404.1,262.3,404.5,259.8,403.9z"/>
	<path class="st86" d="M217.1,234.5c-2.7-1.8-5.4-3.5-5.8-7.1C213.8,229.3,216.1,231.3,217.1,234.5z"/>
	<path class="st87" d="M168.6,310.1c-0.4,0-0.7,0-1.1,0c-1.7-2.2-4.3-3.7-4.8-6.7C165.3,305,167.6,307,168.6,310.1z"/>
	<path class="st88" d="M171.8,235.7c0,0.4-0.1,0.8-0.1,1.2c-0.4,3.4-2,5.4-5.6,5.4c0,0-0.1-0.4-0.1-0.4
		C167.2,239.1,169.3,237.2,171.8,235.7z"/>
	<path class="st89" d="M189.5,336.2c0.6-0.1,1.1-0.2,1.7-0.2c2.1,1.9,4.8,3.2,5.3,6.4C194.2,340.3,191.9,338.3,189.5,336.2z"/>
	<path class="st90" d="M213.4,266.4c2,1.9,3.9,3.9,7,2.1c0.4,3.4,1.7,6.7-0.8,11.4c4.2-2.8,4.3-6.8,7.4-8.2c2.4,2.7,1.2,6.1,1.2,9.1
		c0,10.1,2.4,19.4,7.8,28c0.5,1.3,2.1,2.7,0.8,3.9c-1.6,1.5-2.4-0.8-3.4-1.5c-2.1-1.4-4.1-2.9-6.2-4.4c-1.3-2.1-3-3.5-5.6-3.5
		c-6.9-4.7-14.8-7.4-22.7-9.8c-5.4-1.6-10.9-3.4-16.7-3.6c-1.5-0.9-1.2-2.4-1.2-3.7c2.6-1.3,4.7,0.3,6.9,1.1c1.9,0.7,3.7,1,5.2-0.6
		c1.5-1.7,0.3-3.2-0.6-4.6c-2.5-4.2-4.6-8.6-6.5-13.1c-0.6-1.3-1.6-3.1-0.2-4.1c1.7-1.3,3.2,0.2,4.4,1.3c2.1,1.9,4,3.9,5.7,6.2
		c3,4.2,7.1,7.2,11.8,9.3c3.2,1.5,4.5,0.3,4.5-3.1c0-3-2-5.3-2.6-8c-0.5-2.2-2.8-5.1,1.4-6.3C212.1,264.6,212.9,265.3,213.4,266.4z"
		/>
	<path class="st91" d="M243,458.1c0.6,0.4,1.2,0.7,1.8,1.1c0.9,0.1,1.5,0.6,1.8,1.5c0.1,1.2-0.4,2.2-0.7,3.3c-1.1,4.3,0.6,7,4.4,9.2
		c19.9,11.8,28.3,30.1,29.1,52.6c0.1,4.3,0.1,8.6,0,12.9c-0.1,3.4-0.3,6.8-2.4,9.7c-2.2,0.5-2.2-1.3-2.7-2.6
		c-0.3-6.4,0.1-12.7-0.2-19.8c-7.7,9.3-14.2,18.9-21.2,28.1c-4.3,5.7-8.4,11.5-12.9,17.1c-2.5,3.1-4.8,6.3-6.2,10
		c-2.2-1.1-3.9,0.2-5.7,1.2c5.3-7.9,9.3-16.5,11.5-25.8c2.8-11.9,3.7-23.8,3.6-36C243,499.7,241.8,478.9,243,458.1z"/>
	<path class="st92" d="M235.9,308.7c-6.9-6.1-7.4-14.8-8.7-23c-0.7-4.6-0.2-9.4-0.3-14.1c1.7-4.3,2.5-9.1,6.4-13.5
		c1,4.3-1.9,6.1-2.6,8.7c-3.4,13.1-1.6,25.6,3.9,37.7C235.2,306,236.4,307.1,235.9,308.7z"/>
	<path class="st93" d="M234,333c2.6-6.1,7.7-8.3,14.2-8.4c-5.9,4.5-7.4,13.8-16.5,15C230.3,336.6,234.5,335.6,234,333z"/>
	<path class="st94" d="M234,333c2,3.1-2,4.2-2.2,6.6c-2.7,2-5.3,3.9-8,5.9c-4.7,1.5-8.9,4.5-14.3,4.3c6.6-3.8,14.5-5.2,19.6-11.4
		C230.7,336.5,232.4,334.7,234,333z"/>
	<path class="st95" d="M221.5,303.3c2.3-1.7,4-0.6,5.6,3.5C225.2,305.6,223.3,304.5,221.5,303.3z"/>
	<path class="st96" d="M493.4,554c-0.5,1.6-0.8,3.3-2.2,4.5c-5,4.8-5.3,4.7-8.2-2.2c-12.3-29.1-27.9-56.3-45.4-82.5
		c-0.5-0.8-1-1.6-1.9-2c-2.4-3.7-4.8-7.4-7.2-11.2c-1-1.6-1.7-3.3-4-3.4c-0.4-0.4-0.6-0.9-0.6-1.5c0.2-0.8,0.6-1.4,1.3-1.8
		c6.8-2.9,12.9-6.8,18-12.3c0.6-0.7,1.6-1,2.5-1.1c0.9,0.1,1.5,0.5,1.8,1.4c-0.3,3.2-3.1,5.9-1.8,9.4c1.9,7.6,6.7,13.8,10.4,20.5
		c10.1,18.6,22.2,36.1,29.3,56.3c0.4,1.1,1.1,1.9,1.7,2.9c1.2,2.7,2.6,5.2,4.5,7.5c0.6,1.5,0.3,2.9-0.3,4.4
		c-1.1,2.7-2.7,2.9-4.6,0.7c-0.7-0.9-1.3-1.9-1.8-2.9c-10.8-22.1-24.2-42.9-35.4-64.8c-3.2-6.2-5.9-12.6-9.2-18.7
		c-1-1.8-1.6-5-4.7-3.4c-3.3,1.8-1.1,4.1,0.2,6.2c12.6,20.2,26.1,40,36.8,61.3c4.9,9.9,9.7,19.9,14.4,30.2c2.5-1.3,2.6-3.8,3.4-5.7
		c6.9-16.8,10.5-34.5,14.7-52c3.8-15.9,8.1-31.7,9.4-48.1c0.1-1.1,0.4-2.2,1.8-2.6c3.7,3.5,1.7,7.8,1.3,11.6
		c-2.9,27.4-9.6,54-17.6,80.3C498.4,541.5,494.7,547.3,493.4,554z"/>
	<path class="st97" d="M493.4,554c-1.7-1.3-0.7-2.6-0.1-4c9.5-21.7,14.3-44.7,19.5-67.6c2.4-10.8,3.4-21.7,4.5-32.6
		c0.2-2.1,0.8-4.5-1.2-6.4c-3.2-0.1-3.5,2.3-3.9,4.5c-3.4,19.4-7.7,38.6-11.5,57.9c-1.8,9.4-4,18.7-6.5,27.9
		c-0.5,1.8-0.9,3.7-2.9,4.5c-4.4-0.4-3.5-4.2-4.6-6.8c0.1-0.3,0.1-0.5,0.2-0.8c1.3-1.9-0.6-5.6,3.4-5.9c1.7-1.8,1.3-4.2,1.8-6.3
		c4.9-21.9,8.8-44,12.7-66.1c0.9-5.4,1.1-10.8,1.9-16.2c0.1-0.9,0.3-1.8,0.8-2.5c0.7-0.9,1.7-1,2.5-0.3c4.7,3.9,9.8,7.6,12.4,13.4
		c0,0.6-0.3,1.1-0.7,1.5c-3.5-0.2-1.9,2.5-2.1,4c-4.4,33.3-11.3,66-23.9,97.3C495.1,551,494.2,552.5,493.4,554z"/>
	<path class="st98" d="M521.7,448.2c0.1-0.6,0.1-1.1,0.2-1.7c2.6-2.4,1.5-5.6,1.7-8.5c0.2-3.2-0.4-6.4,0.6-9.5
		c1.3-2.4,3.6-0.5,5.3-1.1c2,2,2,4.4,1.4,6.9c2,15.4,4.2,30.7,6.1,46.1c1.8,14.7,3.2,29.4,3.8,44.2c-1.1,0.4-1.6-0.3-2-1.1
		c-1.6-29.1-5.6-58-11.6-86.6c0,3.1,0.2,6.3-0.1,9.4C526.8,450.6,525,451.9,521.7,448.2z"/>
	<path class="st99" d="M435.8,471.7c4.3,0.4,4.7,4.7,6.3,7.2c11.6,18.1,23.1,36.4,32.3,56c4.1,8.8,8,17.7,12.3,27.2
		c1.7-2.1,2.8-3.5,3.9-4.9c0,0,0.4,0.1,0.4,0.3c0.1,0.3,0.2,0.7,0.3,1.1c-0.5,1-1,2-1.5,3c-2.2,3.9-3.9,3.2-5.6-0.5
		c-3.6-8-7.3-16-11.1-24c-10-20.8-21.8-40.5-34.2-59.9C437.8,475.3,436.8,473.5,435.8,471.7z"/>
	<path class="st10" d="M424.6,455.7c0,0.5,0,0.9,0.1,1.4c-5.3,3-8.4,1.7-11.3-3.9c-5.2-10-9.7-20.2-13.1-31
		c-0.5-1.7-0.5-3.8-2.7-4.6c-0.8-2.2,0.9-2.3,2.3-2.8c2.5,0.7,2.5,3.1,3.1,4.9c2.8,8.9,6.3,17.6,10.3,26.1
		C415.7,450.8,418.3,455.3,424.6,455.7z"/>
	<path class="st100" d="M538.8,523.6c0.7,0.4,1.3,0.7,2,1.1c1.4,2.1,4.3,1.5,5.8,3.4c0,1.2,0.3,2.6-1,3.4c-4.4-2.2-8.6-4-13.8-2.1
		c-3.3,1.2-4.8,2.5-4.3,6.3c0.4,2.7,1.9,5.3,1.1,8.2c-0.4,0.4-0.8,0.8-1.2,1.2c-5.8-7.3-6.8-16,3.4-20.8
		C533.5,522.9,536.3,525.9,538.8,523.6z"/>
	<path class="st101" d="M399.8,415.5c-0.6,0.8-2.1,0.7-2.1,2.1c0,0.3,0,0.6-0.1,0.9c0,0-0.5,0-0.5,0s-0.5,0-0.5,0
		c-0.5-4.8-0.9-9.6-1.4-14.4c-0.4-1.3-0.7-2.6,1.3-2.7C400.1,405.5,400.5,410.3,399.8,415.5z"/>
	<path class="st102" d="M303.8,543.9c0.9,5.8,2.7,11.3,5.6,16.5c2.9,5.2,7.2,5.6,11.2,1.2c9.6-10.5,14-23.8,19.6-36.5
		c8-17.8,11.3-36.9,15.7-55.7c1.1-0.3,1.6,0,1.3,1.2c-4,28.8-13.6,55.7-26.1,82c5.4-6.2,10.7-12.5,16.2-18.6
		c5.4-6.1,10.9-12.2,16.7-18c-1.2,4.4-4.5,7.4-7.1,10.8c-8.3,7.3-14.1,16.9-22.2,24.4c-4.4,4.1-8.8,8.2-13.1,12.3
		c-5.1,4.8-9.4,4.5-13.4-1.4c-1.3-2-2.1-4.4-3.2-6.5C301.5,551.6,301.1,547.3,303.8,543.9z"/>
	<path class="st103" d="M350.4,354.3c-0.4-0.3-0.9-0.6-1.3-0.9c0.3-1.3,1.3-1.9,2.4-2.4c10.4-2.6,21.1-3.2,31.8-2.7
		c6.2,0.3,10.4-1.8,13.6-6.9c1.2-1.9,2.7-3.6,3.8-5.6c2.6-5.1,6.6-8.5,12.1-10.3c2.3-0.7,4.9-1.7,4.2-5c-0.7-3.4-3.2-4.1-6.4-4
		c-4.1,0-8.5,2.2-12.1-1.5c0.2-1,0.7-1.6,1.5-2.1c4.3-1.3,8.8-1.3,13.1-1.4c4.9-0.1,7.6,4,9.9,7.8c0.2,0.5,0.2,1.1,0.1,1.7
		c-1.5,2.6,0.5,5.8-1.3,8.4c-0.4,0.4-0.9,0.6-1.4,0.7c-6.6-1-11.5,1.8-15.5,8.4c-4.2,7.1-9.4,13.5-13.7,20.5
		c-1.4-1.5-0.8-3.2-0.5-4.9c-1-2.2-2.8-2.8-5.1-2.6C373.8,352.3,362,352.1,350.4,354.3z"/>
	<path class="st104" d="M390.6,353.9c0.6,1.5-0.2,3.4,1.2,4.7c3.2,3.3,0.7,7.8,2.5,11.5c0.3,8.6,1.6,17.2,3.1,25.7
		c0.4,2,0.8,4.1-0.9,5.9c-1.1,0.5-1,1.6-1.3,2.5c-4.1-15.2-4.8-30.8-5.3-46.4C389.8,356.4,390.3,355.2,390.6,353.9z"/>
	<path class="st105" d="M357.1,470.6c-0.4-0.4-0.8-0.8-1.3-1.2c0.1-3.5,0.7-7,2.2-10.2c0.4,0,0.7,0,1.1,0
		C358.9,463,358.5,466.9,357.1,470.6z"/>
	<path class="st106" d="M568,574.3c-0.9,0.9-1.7,1.8-3.1,3.2c-0.3-3.8,2.1-5.9,3.1-8.4c11.1-27.5,19.8-55.7,23.8-85.3
		c0.2-1.7,0.2-3.4,2.1-4.3c-1.1,17.1-4.8,33.6-9.7,50C579.6,544.7,574.3,559.7,568,574.3z"/>
	<path class="st107" d="M530.8,434.3c-1.8-1.9-0.4-4.9-2.3-6.8c-1.6-0.6-2.3-1.9-2.4-3.5c-1.1-11.8-5.5-22.8-8-34.3
		c-0.1-1.3-0.7-2.5-0.8-3.9c-0.5-4.7,0.9-5.8,5.5-4.1c5,1.8,9.6,4.3,14.4,6.3c1.4,0.6,2.8,1.2,2.7,3.2c0.1,9.8-0.3,19.6-2.3,29.3
		C536.6,425.8,535,430.7,530.8,434.3z"/>
	<path class="st108" d="M539.9,391.3c-7-3.2-13.9-6.4-20.9-9.6c-1.5,2.9,0.6,5.1,0.3,7.5c-0.7,0.7,0.1,2.9-2.1,2.1
		c-3.1-6.5-3.4-13.5-3.8-20.5c-0.1-2.4-0.2-4.8-0.2-7.2c0.1-1.4,0.9-2.2,2.2-2.6c9.7,2.7,15.5-3.7,21.8-9c7.2-6.1,13.8-12.6,19.5-20
		c1.1-1.4,2.1-3.2,4.5-2.7c0.4,0.4,0.9,0.8,1.3,1.3c-0.1,0.3-0.2,0.6-0.3,1c-4,2.9-6.4,7.2-9.8,10.7c-1.8,1.9-1.3,4.2-1.2,6.4
		c1,2.1,0.3,4.4,0.5,6.6c0.1,1.1,0.2,2.4-1.3,2.7c-1.7,0.3-2.1-1.1-2.5-2.4c-0.5-1.6,0-3.4-0.9-5.4c-4.5,3.2-8.6,6.1-9.3,12.3
		c-0.5,4.6-2.1,9.1-3.7,13.5c-2.7,7.3-2.7,7.3,4,10.6c1.7,0.8,3.4,1.6,4.5,3.3c0.2,0.5,0.3,1.1,0.2,1.6c-0.5,0-1,0.1-1.5,0.1
		C540.6,391.3,540.3,391.3,539.9,391.3z"/>
	<path class="st109" d="M552.2,501c0-3.1,0-6.2,0.1-9.3c0-0.8-0.5-2.2,0.8-2.2c1.4,0,1.3,1.5,1.6,2.5c2.1,4.1,0.5,8.5,0.9,12.7
		c0.6,6.5,2.2,13,1,19.6c-0.5,0.9-1,1.8-2.3,1.5C552.3,517.7,552.3,509.4,552.2,501z"/>
	<path class="st110" d="M557.7,468.1c-0.1,6.3-1.1,12.4-3.8,18.2c-0.6-5.8-0.2-11.4,0.4-17.1c0.1-0.9,2.2-4.4-1.9-3.2
		c0.6-2.8,1.2-5.5,1.8-8.3c0.4,0,0.7,0.1,1.1,0.1c0,4.1,0,8.2,0,12.4C557.2,470.4,556.6,468.4,557.7,468.1z"/>
	<path class="st111" d="M554.4,525.8c0.4-0.4,0.9-0.9,1.3-1.3c1.2-0.1,1.6,0.6,1.8,1.6c0.1,0.5-0.3,0.9,0,1.4
		c0.2-0.6,0.5-0.9,1.1-1.1c0.5,0,1,0.1,1.4,0.5c-2.2,4.2-2.1,8.8-1.9,13.4c-0.5,1.1,0.1,2.6-1.2,3.5
		C556.1,537.8,554.1,532,554.4,525.8z"/>
	<path class="st3" d="M246.3,460.3c-0.5-0.4-0.9-0.7-1.4-1.1c0.9-16.5,1.9-33.1,3.9-49.5c3.4-2.6,7.9-2.8,11.1-5.7
		c1.8-0.8,3.7-1.7,5.5-2.5c1-0.1,2.2-0.7,2.1-1.5c-0.4-3.8-0.5-3.7,2.5-7.4c5.2-6.1,10.2-12.4,15.6-18.3c5.5-6,12.9-8.4,20.7-9.8
		c5.9-0.7,12-0.9,17.8-2.2c6.4-1.4,9.1,1.4,11.3,6.8c6.4,16,9.5,32.7,11.5,49.6c0.9,7.4,2.2,14.9,0.9,22.4c-5.2,4.6-6.2-1.1-8.7-3.4
		c-4.4-12-6-24.6-9.2-36.9c-2.4-9.3-1.8-19.6-8.1-26.9c3.8,5.6,4.7,9.7,7,21.4c2.9,14.8,6.1,29.6,10.6,44.1c2.7,8.7,5,17.6,6.2,26.7
		c-0.1,0.2-0.1,0.4,0,0.6c0.3,2.5-0.9,4.6-1.7,6.8c-5.1,6-10.2,11.9-15.7,17.6c-1.2,1.2-2.2,2.8-4.1,2.5c-2.3-0.4-2.6-2.6-2.9-4.4
		c-1.8-11.1-5.4-21.8-6.5-33c-0.3-3.2-1.2-6.2-2.7-9.1c0.1-7.6-2.5-15-1.2-20.2c1.2,21.3,1.3,45.1,5.3,68.7c0.5,1.6,0.1,3.5,0.7,5
		c5,13.2-2.4,22.5-9.7,31.8c-2.8,4.3-6.7,7.8-9.9,11.7c-2.1,2.6-4.2,5.2-6.3,7.8c-1.3,0.7-1.9,3-3.6,2.2c-1.6-0.7-0.9-2.7-0.7-4.1
		c2.8-17.6,1.3-34.8-4.4-51.7c-5.4-16.1-15-28.4-31.2-34.9C249.2,462.5,247.4,462,246.3,460.3z"/>
	<path class="st112" d="M276.7,548.3c1.6-15.7,2.5-31.3-3.5-46.6c-4.8-12.3-13.1-21.2-24.3-27.8c-5.5-3.2-6.2-5.1-3.8-11.6
		c4.8-1.1,8.8,1.1,12.6,3.4c13.4,7.8,21.2,19.8,25.5,34.4c5.4,18.6,7.1,37.4,2.3,56.5c-1.8,2.6-4.1,4.8-6.7,6.5
		c-2.8,5-7.4,7.7-12.4,10c-0.7-1.1-0.7-2.3,0-3.2C271.4,563.5,273.4,555.6,276.7,548.3z"/>
	<path class="st113" d="M233.9,581.1c-0.9-1.3-1.3-2.4-0.1-4c13.6-18,27.1-36.1,41.8-55.6c0,8.8,0,16,0,23.2
		c1,11.3-4.9,20-11.2,28.4c-2.9,3.8-7.1,5.9-11.3,8.1c-0.2,0.3-0.5,0.7-0.7,1c-5.5,4.2-11,3.6-16.5,0
		C235.2,581.8,234.5,581.5,233.9,581.1z"/>
	<path class="st50" d="M283.9,557.4c5.6-16.4,3.5-32.9,0.3-49.3c-1.6-8.3-4.3-16.2-8.7-23.6c-7.1-11.7-16.8-19.4-30.3-22.2
		c0.4-0.7,0.7-1.4,1.1-2.1c20.4,5.7,32,19.8,37.9,39.4c5.3,17.5,6.8,35.3,3.4,53.4c1.5,0.6,1.8-1.8,3.2-1.4c-1,2.5-3.1,4-4.8,5.9
		C285.3,557.9,284.6,557.8,283.9,557.4z"/>
	<path class="st114" d="M253,581.2c8.3-6.4,15.6-13.4,19.6-23.5c1.7-4.3,1.1-8.8,2.8-13c0.3,1.2-0.1,2.7,1.2,3.6
		c-0.3,6.9-2.9,13-6.8,18.6c-1.3,2-3.4,3.5-3.6,6.2C262.9,577.3,258.7,580.6,253,581.2z"/>
	<path class="st115" d="M297.1,543.9c1.6-4.9,6-7.6,8.9-11.5c0.6,0.6,0.7,1.2,0.2,1.9c-2.3,2.8-2.8,6.1-2.4,9.6
		c-2.6,4.1-1,7.8,1,11.5c-0.7,0.7-1.4,1.3-2.1,2c-1.2-5.2-1.1-10.6-1.3-16C299.2,540.8,298.9,543.7,297.1,543.9z"/>
	<path class="st116" d="M235.8,582.2c5.5,2,11,2.8,16.5,0C247.2,586.9,243.3,588.6,235.8,582.2z"/>
	<path class="st117" d="M283.9,557.4c0.7,0,1.3,0.1,2,0.1c-2.1,2.2-3.7,5.1-7.2,5.6C280.5,561.2,282.2,559.3,283.9,557.4z"/>
	<path class="st118" d="M560,526.9c-0.4,0-0.8,0-1.2,0c-1.3-4.6-0.5-8.7,2.7-12.3c1,0.8,1.6,2.2,3.2,2.1
		C563.1,520.1,561.5,523.5,560,526.9z"/>
	<path class="st119" d="M528.6,543.7c-3-3.4-2.8-7.7-3-11.7c-0.2-4.5,4.4-3.1,6.8-4.2c5.1-2.4,9.8-0.9,13.2,3.6
		c3.7,4.6,3.2,12-1.1,16.4c-3.2,3.2-6.5,4.2-10.2,0.7C532.4,546.8,530.5,545.3,528.6,543.7z"/>
	<path class="st21" d="M356.9,99.9c-2.3-3-2.5-5.9,0-9.1c2.3-2.9,4-6.3,6.1-9.5c1.4-2.1,3.2-4.4,5.6-4.4c9.8-0.1,12.7-10.8,21-13.1
		c1.3-0.4,1.3-1.9,0.6-2.9c-1-1.4-1.6-2.5,0-3.8c1.5-1.3,2.8-0.4,4.1,0.2c1.2,0.6,2.7,1.6,3.7,0.5c6.9-7.8,18.2-6.1,26.3-12.2
		c3-2.3,8.8-3.3,13.9-3.2c12.2,0.3,24.4,0.1,36.7,0.1c3.6,0,7.2-0.4,10.2,2.2c1.3,1.2,2.2,0.4,3.4-0.4c1.6-1.1,3.5-1.2,5.1,0.4
		c-0.1,0.1-0.2,0.4-0.4,0.4c-0.5,0-0.7,0.5-0.4,0.6c3.6,1,7.1,2.1,10.5,3.6c3.3,1.4,5.9,3.4,6.2,7.2c0.2,2.9,1.6,3.7,4.3,4
		c3.8,0.4,7.1,2.5,8.2,6c1.3,4.4,4.4,7.3,7.3,10.3c3.7,3.8,6.8,7.9,8.3,13.1c0,0.4,0.2,0.8,0,1.1c-0.3,0.7-0.2,1,0,0.3
		c1.6-5.6,1.6-5.6,8.5-2.7c0.2-6.6,0.8-13-0.6-19.4c-0.4-1.7-1.5-3.5,0-5.3c4-4.6,7.8-2.4,11.2,0.7c9.7,8.7,19.8,16.7,25,29.4
		c2.4,5.7,7.4,10.2,10.9,15.5c1.3,2,3.8-0.1,4.8,2c0.1,2.1-1.6,2.8-3.1,3.3c-2.8,1-4.4,3-5.9,5.3c-0.7,1.4-1.7,0.4-2.6,0.3
		c-1,0-1.3-0.7-1.3-1.5c0.3-4.6,0.3-9.2-5.4-10.8c-0.4-0.4-0.7-0.8-0.9-1.3c-2.3-8.3-7.5-14.5-14.9-19.1c9,19.7,16.2,40.3,29.3,58
		c1.5,2.7,2.7,5.5,3.1,8.5c-0.7,2.2-0.7,4.3,0.1,6.5c0.9,2.5,0.9,5.1,0.6,7.7c-0.2,1.3-0.5,2.6-2,3.1c-1.4,0.4-2.5-0.5-3.4-1.5
		c-1.2-1.4-2.2-3-2.9-4.7c-0.8-1.9-1.5-3.8-3.6-4.7c-1.3-0.7-2.1-1.8-2.5-3.1c-0.3-1.5-0.1-3.2-1.3-4.3c-5.4-5-6.3-12.5-10.6-18
		c-1.4-1.8-2.6-3.7-4.5-5c-0.9-0.6-2.2-1.1-2.6-2.1c-3-7.4-12.2-10.5-12.6-17.7c2.5,6.8,8.8,14,8.2,23.7c-0.5,3.4-1.5,6.6-2.6,9.9
		c-0.3,3,0.1,6.1-0.6,9c-1.9,5.5-3.2,11.1-4.8,16.6c-0.6,2.1-0.8,5.4-4.6,3.6c-3.6-10.1-3.4-20.8-4-31.3c1.1-4.9,6.9-3.1,9.4-6.7
		c-3.3-2.6-6.5,0.4-9.6,0c-1.3-1.1-1.5-2.7-1.8-4.2c0.5,1.7,0.9,3.3,0.3,5c-2,4.3-7.4,4-10.7,7.8c3.1,1.2,4.9-0.8,7.1-1.4
		c1.8-0.5,3.9-2.4,5.1,0.9c0.2,3.2,0.3,6.3,0.7,9.5c1.9,13.3-0.6,26.3-1.9,39.5c-0.1,1.3-0.9,2.4-1.6,3.5c-2.1,3.2-4.5,6.2-6.5,9.5
		c-1.1,1.9-2.5,4-5,1.3c-2-6.1,0.3-12.3-0.3-18.4c-0.2-2.7,0.4-5.4-0.8-8c-0.4-0.7-0.9,0.6-0.4,0c2.7,8.2,0.5,16.5,0.1,24.7
		c-1.2,3.6-1.6,7.3-2.7,10.9c-0.4,1.5-0.5,3.9-2.8,3.5c-1.6-0.3-1.8-2.4-1.5-3.8c1.3-5.7,0.6-11.6,1.3-17.3c1.2-9.7,1.3-19.5,0-29.1
		c-0.6-4.5,0.2-9-1.1-13.4c-1.2-5.2,1.4-10.2,0.7-15.4c-0.5-14.9-4.7-28.7-13.4-42.5c4.6,18.4,9,35.5,6.4,53.3
		c0.4,13.1-0.6,26.1-1.4,39.1c-1.8,8-3,16.2-4.9,24.2c-1.3,5.5-5,8.2-8.9,10.9c1,0.6,1.4-0.9,2.1-1.4c2.9-1.9,3.5,0.1,3.1,2.2
		c-1.1,5.3-3.2,10.4-6.1,15c-0.5,0.8-1.3,1.5-2.3,1.1c-0.9-0.4-1.3-1.4-1.4-2.3c-0.5-3.5-0.2-7.1-0.3-10.7c0.1-2-0.1-4-0.4-5.9
		c-0.1-2.5-0.6-5-0.1-7.6c1.7-7.8,0.9-15.5,0.3-23.3c0.8,10.6,2.4,21.3-5,30.5c-1.6,1.9-3.1,5.3-5.5,0.7c3-17.7,3.1-35.6,2.6-53.5
		c-0.1-2.2-0.1-4.5,0.5-6.7c1.5-3.3,5-2.9,7.7-3.8c4-1.4,8.3-2.1,11.4-6.6c-7.4-1.2-13.2,1.3-18.6,4.9c-2.4-1.3-1.5-3.6-1.6-5.5
		c-0.3-4.8,0.4-9.6-0.3-13.5c0.3,5,0.6,10.7-0.2,16.5c-6.4,4.1-13.2,6.5-20.9,6.1c-2.1-2.9-1.2-6.1-0.5-9.2
		c0.9-4.1,1.6-8.3,2.9-12.3c-2.6,7-2.5,14.6-4.9,21.7c-4.4,2.7-9.5,2.6-13.7,3.9c3.3,0.9,7.4-0.2,11,2.2c1.4,6.6-2.3,12.4-2.8,18.7
		c-0.8,9.5-4.1,18.7-4.2,28.3c0,5.1-2.4,6.2-7.1,4.2c-3.9-1.6-6.4-4.2-7.4-8.5c-1.9-8.3-2.5-16.6-2.7-25.1
		c-0.4-16.2,0.5-32.2,5.8-47.6c4-11.5,7.3-23.3,15.4-33.9c-7.3,9.2-10.3,19.6-14.6,30.5c-3.1-5.7-1.9-10.1-1.5-14.4
		c0-0.6,0-1.1,0.1-1.7c1.7-8.7,5.4-16.6,10.3-24.1c3-4.6,6.9-8.3,10.9-10.7c-6.6,3.4-10.7,10-14.6,16.9c-0.9,1.6-1.7,3.4-3.5,4.2
		c-14.6,10.8-22.9,25.6-26.8,43c-0.7,3.1-1.6,6.1-2,9.3c1.3-9,7.5-15.5,11.6-23c2.9-5.4,5.7-11.1,10.3-15.4c1.5-1.4,3.5-3.3,3.8,1
		c-0.5,4.8-1.3,9.7,0.6,14.4c0.6,1.4,0.4,3-0.1,4.4c-5.6,16.2-5.7,33-5.7,49.8c0,9.2-4.5,17.7-5.6,26.8c-0.6,5-2.3,9.8-3.1,14.8
		c-0.3,2.2-0.7,4.6-3.8,4.7c-1.8-2.3-2.3-5.1-2.5-7.9c-0.3-6,0.3-11.9-0.2-16.7c1.8,11.9-5.3,23.5-6.5,36.2c-0.2,2-0.2,4.1-0.8,6.1
		c-0.3,1.1-0.6,2.4-2,2.3c-1.3,0-1.9-1.1-2.1-2.3c-0.7-2.9-1.3-6-1.3-8.9c-0.1-9.2-2.2-18.3-1.3-27.5c0.5-1.6,1.1-3.1,1-4.9
		c-0.5-9.3,1.3-18.4,2.2-25.1c-0.7,5.6-2.5,13.6-2.3,21.8c0.6,4.2-1.4,8.1-1.2,12.2c0.8,13.6,0.4,27.4,5.4,40.4
		c0.6,1.7,1.3,3.5,1.6,5.3c1.4,7.2,4.2,14,6.8,20.8c0.7,1.7,2.6,3.8,0.8,5.1c-2.2,1.6-3.7-1-4.9-2.5c-7.5-9.2-14.4-18.8-18-30.4
		c-0.8-2.7-2-5.3-3.4-7.7c-4.2-14.3-6.8-28.8-5.4-43.4c-0.7,4.3-0.8,9.2-1.4,14c-0.6,5,1.4,10,0.8,15.2c0.9,13.4-0.8,26.9,0.9,40.3
		c0.2,1.6,0.3,4-1.5,4.4c-2.5,0.6-2.7-2.1-3.2-3.7c-2.2-7.6-4.7-15-6.6-22.6c-1.3-6.5-3-12.8-3.9-19.4c-0.9-11-2.3-22-2.3-33.1
		c0-21.6,2.4-43,7.3-64c4.6-19.8,10.8-39,19.9-57.2c1-2,2-4,3.1-5.9c-9.3,17.4-16.7,35.6-20.9,55c-1.2,5.5-2.9,10.8-3.7,16.4
		c-0.2,1.5-0.5,3.4-2.4,4.2c-2.4-1.1-2.2-3.4-2.2-5.4c-0.5-15.5,1.2-30.7,3.5-44.5c-1.6,12.1-4.8,25.4-5,39.2
		c-0.1,8-0.4,16.1-1.6,24.1c-2.5,4.1-6.6,0.1-9.8,2c2.9,3.4,7.3,0.6,10.5,2.5c1.2,1.9,1.9,3.9,1.3,6.2c-3.1,5.2-8.6,7.1-13.4,9.7
		c-2.7,1.4-3.8-0.6-4.3-3.4c-4.2-27-4.4-53.8,4.4-80.1C357,101,356.9,100.5,356.9,99.9z"/>
	<path class="st120" d="M373.8,150.8c1.5-6.6,3-13.1,4.5-19.7c4.8-21.2,12.8-41,24.8-59.3c-1,2.1-2,4.3-3.1,6.4
		c-14.1,26.3-21.5,54.7-25.7,83.9c-3.3,23.2-4.2,46.7-0.6,70c0.2,1.1,0,2.2,0,3.4c-1.6,1.1-2.6,3.8-5.2,1.6
		c-1.3-3.5-2.2-7.2-2.5-10.9c-0.1-1.2,0-3,1.7-2.9c1.4,0.1,2,1.5,1.9,2.1c-3-11.6-1.5-24.4-2.1-37.1c-0.2-0.6-0.2-1.1-0.2-1.7
		c-0.1-1.9,1.4-3.4,1.2-6.4c-6.5,2.8-11.2,7.1-15.3,11.9c-2.1,2.4,1.5,1.9,2.5,2.7c0.7,0.7,0.8,1.6,0.7,2.5
		c-1.1,3.8-1.2,7.8-1.2,11.7c0.3,20.1-0.1,40.1-3,60.1c0.2,1.2,0.5,2.4,0.2,3.7c-0.3,4.7-2.8,8.3-6,11.8c1-7.2,2-14.5,2.9-21.7
		c2.4-19.8,2.2-39.7,1.9-59.6c0-2-1.1-3.9-1.6-5.9c-0.3-1.6-1.2-3.9-0.5-4.9c4.8-6.9,1.2-14,0.9-21c-1.6-1.6-1.2-3.9-2-5.8
		c-0.2-0.6-0.3-1.2-0.4-1.8c-0.6-6.5,0.1-13.1-0.3-19.6c0.4-8.6,1.3-17,2.9-25.4c0.3-1.8,0.6-3.7,2.1-5c1.8-4.5,1.4-9.7,4.5-13.8
		c1.6,1.2,0.9,2.6,0.4,4c-6.2,20.9-7.6,42.2-5.1,63.8c0.6,4.8,0.9,9.7,1.3,14.5c0.2,1.8,0.8,3.2,2.7,1.8c4.2-3.3,9.7-5,13.1-9.4
		c0.5-6.3,0.2-12.6,2.2-18.8C372.1,154.1,372.3,152.2,373.8,150.8z"/>
	<path class="st121" d="M545.4,64c3.2,7.7,2.2,15.8,2.3,23.8c0,1.2,0.6,2.9-0.7,3.6c-1.8,1-2.5-1.1-3.6-1.9
		c-1.2-0.9-2.2-2.1-4.4-2.1c-0.1,2.6-0.3,5.3-0.4,8.4c-1.7-2-2.2-3.9-2-6c-0.4-5.6-4.3-9.2-7.7-13.1c-3.6-4.2-6.7-8.6-8.2-14
		C525.8,54.3,539.1,55.9,545.4,64z"/>
	<path class="st21" d="M352.4,113.7c-1.2,10.1-2.3,20.3-3.5,30.4c-1.3,2.7-0.8,5.7-1.6,8.5c-0.5,1.6-0.1,3.9-2.7,4
		c-0.1-1.4-0.7-2.4-1.9-3.3c-6.7-4.8-8.5-13-4-19.6c1.5-2.2,1.4-3.6-0.3-5.4c-2.3-2.3-1.9-4.1,0.4-6.6c2.5-2.8,5.8-5.5,5.8-10
		c0-2.3,1-4.3,3.4-4.4c2.3-0.1,2,2.2,2.4,3.8C350.5,112.4,351.3,113.2,352.4,113.7z"/>
	<path class="st122" d="M585.2,119.2c0.2,0.4,0.5,0.9,0.7,1.3c3.1,9.4,6.2,18.8,9.3,28.1c5,4,4.4,9.5,4.6,15.1
		c0.3,10.8,0.6,21.6-1.3,32.3c-1.6-1.2-0.8-3-1.2-4.6c-1.7-1.9-1.6-4.2-1.4-6.4c1.2-9.2,1-18.3-1.4-27.3c-0.3-1.1,0.1-2.2,0.4-3.3
		c-1-2.7-2.1-5.4-3.1-8c-5.5-11.9-8.8-24.6-14.9-36.2c-0.7-1.3-1.1-3,0.2-4.1c0.9-0.8,1.6,0,2.1,1c0.1,0.3,0.2,0.7,0.3,1
		C583.9,110.4,584.5,114.8,585.2,119.2z"/>
	<path class="st123" d="M344.5,169.2c-4.8-0.2-9.7,0.1-14.5-1.5c-3-2.3-6.8-3.8-8.4-7.8c-0.9-2.3-0.5-3.9,1.2-5.4
		c1.7-1.5,3.4-0.9,5.1,0.1c2.4,1.5,3.6,4.3,6.3,5.4c3.8,0.3,7.1,2,10.6,3.2c1.5,0.6,2.9,1.2,4.1,2.3l0.1,0.1
		C349.7,169.4,347.6,169.9,344.5,169.2z"/>
	<path class="st124" d="M520.6,62.8c5,7.1,10,14.1,14.8,21.2c1.1,1.7,3.3,3.4,1,5.8c-3.3-6.4-7.5-12.1-12.9-16.9
		c-0.3-0.3-0.8-0.5-0.8-0.8c-1.3-7.5-5.8-11-13.4-10.9c-1.5,0-1.2-2-1.2-3.3c0.3-4.2-1.9-6.5-5.8-7.8c-4.2-1.4-8.4-3.1-12.7-4.7
		c1.1-1.4,2.5-0.5,3.7-0.7c1.6,1.4,3.5,1.5,5.5,1.1c0.5-0.4,0.9-0.4,1.3,0.1c1.6,3.4,5.5,3.9,8.3,4.7c2.4,0.8,4-4.2,7.8-5.8
		c-1.7,3.9-5.1,5.6-5.9,8.8c1,3.3,4,4.3,6.5,5.9C518.3,60.6,519.5,61.7,520.6,62.8z"/>
	<path class="st125" d="M588.5,120.2c-0.2-2.9,0.2-5,3.7-5.7c1.9-0.4,3.5-1.9,5.2-2.9c0.8-1.1,1.4-2.3,2.3-3.1
		c1.4-1.3,2.7-4,4.9-2.9c1.9,1,2.6,3.6,2.9,5.9c0.4,2.9-1.5,3.3-3.7,3.8c-2.1,0.4-3.4,2.3-5.1,3.3
		C595.6,120.3,592.5,123.3,588.5,120.2z"/>
	<path class="st126" d="M336.7,275.4c3.8,1.2,2,4.4,1.9,6.5c-1,16.1-2,32.3-5,48.3c-1.3-1.9,1.2-5.8-2.9-6.5
		c4-13.5,5.2-27.2,4.8-41.2C335.4,280.1,336.3,277.8,336.7,275.4z"/>
	<path class="st127" d="M517.1,59.5c-4.2,0.3-8,0.2-6.5-5.9c6.7-1.7,11.2-8,19.4-9.3C524.7,49.3,520.6,54.2,517.1,59.5z"/>
	<path class="st128" d="M349.1,165.5c-1.6,0.1-3.1-0.2-4.5-1.2c-1.3-1.4-1.3-2.8-0.2-4.3c0-1.1,0.1-2.2,0.1-3.3
		c2.4-3.9,1.1-9,4.4-12.6C349,151.2,349,158.3,349.1,165.5z"/>
	<path class="st21" d="M344.4,160c0.1,1.4,0.1,2.9,0.2,4.3c-3.4-1.5-7.5-1.4-10.3-4.3C337.7,157,341.1,160.9,344.4,160z"/>
	<path class="st21" d="M327.7,272.8c0-4.9,0-9.7,0-14.6c0.6-4.6-0.7-9.3,1-13.8c0,8.1,0.1,16.1,0.1,24.2
		C328.7,270.1,329,271.7,327.7,272.8z"/>
	<path class="st21" d="M328.6,226.8c-1.7-7.2-0.6-14.4-1-21.7C330,212.3,328.2,219.6,328.6,226.8z"/>
	<path class="st129" d="M500.4,45.9c-0.4,0-0.9-0.1-1.3-0.1c2.2-2.9,4.6-5.5,9.8-7C505.5,42.3,503.8,45.1,500.4,45.9z"/>
	<path class="st21" d="M330.4,305.1c-0.8-2.3-1.1-4,1.1-5.8C332.3,301.6,332.5,303.3,330.4,305.1z"/>
	<path class="st130" d="M398.6,314.7c3.9,1.5,8,0.9,11.8,0.2c4.9-0.9,7.1,1.3,8.4,5.3c1.4,4.7-2,5.8-5.4,6.7
		c-5.3,1.3-8.9,4.5-11.3,9.3c-2.1,4.2-5.3,7.7-8.3,11.3c-1.4,1.7-2.7,2.3-4.8,2.2c-12.6-0.4-25.1,0.4-37.5,2.2
		c-1.9-2.9-1-5.5,1.1-7.9c2.4,1.2,2.9-0.3,3.2-2.3c0.7-6.7,1.8-13.3,2.2-20c0.7-13.3,2-26.5,1-39.8c-0.5-6.4,0.1-13-2-19.2
		c-0.8-1.3-0.3-2.5,0.3-3.7c0.5-1,1.3-2.1,2.4-2c1.2,0.1,1.6,1.4,1.8,2.6c1,5.5,2.1,10.9,2.6,16.5c0.6,7.2,3.2,13.7,8.2,19.1
		c3.5,3.4,7.9,5.7,11.8,8.5c3.2,2.2,4.7,4.9,3.7,9.1c-1.1,4.9-0.9,10-2.2,13.8c0.6-2.7,1.6-6.4,1.7-10.3c0.1-2.4-0.2-5.2,2.4-6.5
		c2.7-1.3,4.4,1.4,6.5,2.5C397.3,312.9,398.2,313.6,398.6,314.7z"/>
	<path class="st131" d="M371.6,296.6c-5.5-5.1-8-11.8-8.8-18.8c-0.8-6.6-2.3-13-2.7-19.9c-1.9,1.5-2.4,3.3-3.1,5
		c-1.3,3.5-1.7,7.3-4.6,10c-0.4-0.7-0.7-1.4-1.1-2.1c2.9-13.4,4.7-26.9,5.2-40.5c0.1-2.7-0.5-5.7,1.7-8c3.2,3,3.7,4.5,3.7,12.6
		c0,4.5,0.6,9,1.3,13.4c0.6,4.6,0.8,9.1,0.7,13.7c0.1-1.7-0.7-3.7,1.1-5c2.1-0.2,2.1,1.7,2.8,2.8c0.7,1.2,0,3.8,2.8,3.1
		c2.8-0.8,5.2-2.1,4.9-5.7c0.3-1.1,0.8-2,1.9-2.5c2.7,8.7,5.5,17.3,8.2,26c-1-14.7,0.3-29.3-0.3-43.9c3.2-1.1,3.5,1.5,3.5,3.3
		c0,15.4,5.4,29.4,10.1,43.7c0.1,0.7-0.1-0.2,0.2,0.5c0.4,1.1-0.7,4,2.4,2.2c2.7,3.4,2.9,7.6,3.8,11.6c0.2,1.1,0.1,2.4-1.1,2.9
		c-0.9,0.4-2-0.1-2.4-0.9c-5.6-10.6-11.3-21.1-13-31.6c0.6,5.8,0.8,13.2,6.1,19.3c2,2.3,3.4,5,4.4,7.8c1.2,3.5-1.7,7.2-4.9,5.9
		c-8.5-3.6-17.9-6-23.5-14.4c-1.3-5,1.6-7.7,5.3-9.9c2-1.2,3.8-2.4,2.9-5.3c-0.7-2.1-1.3-4.7-4-4.8c-3.6-0.1-5.8,2.3-7.1,5.4
		c-1,2.3-0.4,4.8-0.4,7.2c-0.3,5.7,3.2,10.3,4.9,15.4C372.2,295.7,372,296.2,371.6,296.6z"/>
	<path class="st132" d="M344.5,169.2c1.6-1.1,4.8-0.2,4.6-3.6c1.6,1.7,0.8,3.8,0.9,5.8c-3.9,4-2.3,9.3-3,13.9
		c-1.4,9.4-2.7,18.8-2.6,28.4c0,0.7-0.3,1.4-0.5,2.1c-2.5-0.6-1.6-2.5-1.6-3.7c-0.1-11.4,0-22.9,0-34.3
		C342.3,174.7,343,171.8,344.5,169.2z"/>
	<path class="st133" d="M354.5,328c0-3.6,0-7.3,0-11.2c-1.7,0.8-1.8,2.2-2.2,3.5c-2.2-3.4,0.2-6.1,1.1-9.1c1.2,0.3,1.5,1.7,2.4,2.4
		c0,6,0,12,0,18.2C354,330.7,355.1,329.1,354.5,328z"/>
	<path class="st134" d="M349.1,328.2c-0.4,7.2-3.6,13.4-6.8,19.6C343.2,340.8,346.2,334.5,349.1,328.2z"/>
	<path class="st135" d="M355.8,313.5c-1.7,0.1-2.3-0.9-2.4-2.4c0.5-3.4,1.1-6.9,1.6-10.3c0.2,0,0.5,0,0.7,0
		C355.8,305.1,355.8,309.3,355.8,313.5z"/>
	<path class="st24" d="M151.6,272.7c-0.6-1.8-0.9-3.7-1.7-5.3c-5.1-9.6,1-15.8,7.8-21.3c2.7-2.1,4.8-0.9,6.9,1c5,4.5,10,8.9,15,13.4
		c4.6,0.9,4.8,5.3,6.5,8.4c1.9,3.8,3.3,7.9,5.8,11.4c1.5,2.1,4.2,4.9,1.1,7.3c-2.6,2.1-4.8-0.5-6.7-2.2
		c-4.9-5.3-10.3-10.1-17.1-12.9c-1.6-0.6-2.9-1.4-3-3.4c-0.3-5.1-4.9-6.4-8.1-8.3c-4.3-2.4-6.9,0-6.7,5.1
		C151.5,268.2,153.9,270.4,151.6,272.7z"/>
	<path class="st136" d="M186.5,283.9c0.4,0.4,0.8,0.8,1.2,1.2c1.3,1.2,2.7,3.3,4.7,1.9c2.5-1.7,0.5-4.1-0.6-5.4
		c-5.6-6.2-6.1-15.3-12.2-21.2c0.4-0.4,0.7-0.8,1.1-1.2c4.7,1.7,9.2,4,13.1,7.2c2.8,5.8,9.5,7.5,13.1,12.4c0.5,0.8,1.6,1.1,2.5,0.6
		c1.3-0.7,0.9-1.9,0.5-2.9c-0.8-2.3-2.4-4.2-3.2-6.5c-1-2.6-1.5-5.3,0.3-7.9c2,0,4.1-0.2,4.2,2.7c-3.3,2.4-0.5,4.8,0.3,6.9
		c0.9,2.6,2.4,5,2.2,8c-0.3,3.9-2.2,5-5.6,3.7c-5.6-2.2-9.9-6-13.6-10.6c-2.3-2.9-4.7-5.6-8.7-7.1c2.7,5.2,5.3,10.5,8.1,15.7
		c1.1,2,2.5,4,0.5,6.1c-1.9,2-4.1,2.2-6.7,0.9c-2.2-1.1-4.6-1.7-6.8-2.5c-2.8-2.5-5.8-4.8-8.2-7.6c-2.9-3.3-5.6-5.4-10.5-1.7
		c8-7.4-1.7-7.5-3.8-11.1c3.9-0.9,5.2,2.8,7.9,3.4c1.1,0.9,2.2,1.8,3.3,2.6c3.9,2,6.4,5.6,9.6,8.4
		C181.3,282,183.5,283.6,186.5,283.9z"/>
	<path class="st137" d="M176.3,288.9c-2.3,2.5-4.7,4.9-7,7.4C169.5,291.9,172.2,289.7,176.3,288.9z"/>
	<path class="st138" d="M306.2,534.3c-0.1-0.6-0.1-1.3-0.2-1.9c0.3-0.7,0.6-1.4,1.1-2c8.5-9.9,12.1-20.9,7.9-33.7
		c-0.3-1.4-0.9-2.8,0.6-3.9c3.6,2.5,2.3,6.6,3.4,10c0.4,1.3,0,3.3,1.8,3.7c1.4,0.3,2.2-1.2,3.1-2.1c2.1-2,4.1-4.3,6.4-6.2
		c1.5-1.3,2.8-3.2,5.3-1.9c0.6,3-1.6,4.5-3.3,6c-7.5,6.4-12.7,14.6-18,22.8c-4.1,6.3-0.1,12.1,1.2,18.3
		c6.8-11.1,12.3-22.7,16.3-34.9c1.4-4.1,4-8,3.6-12.6c4.1-7.2,3.9-15.9,8.1-23.1c1.2-1.8,0.6-4.4,2.3-6.1c1.5,0.8,1.2,2.1,0.9,3.4
		c-6.1,26.2-14.6,51.5-27.5,75.2c-1.2,2.3-2.5,4.5-5.5,6.5c-1.4-5.5-2.8-10.6-4-15.7C309,533.9,308.8,531.9,306.2,534.3z"/>
	<path class="st139" d="M345.6,466c-3.7-5.7-3.9-12.4-5.5-18.6c-5.5-20.5-10.7-41.1-14.2-62c-1-6.2-4.3-11.4-8.5-16.1
		c6.2,3.2,9.2,8.9,10.4,15.2c2.7,15.2,6.5,30.1,9.9,45.1c0.6,2.7,1.6,5.4,2.4,8.1c3.4,5.1,3.3,11.3,5.3,16.8
		c0.6-1.3,0.3-3.2,2.4-3.5c0.4,1.5-0.4,3.4,1.1,4.7C347.5,459.1,349.8,463.5,345.6,466z"/>
	<path class="st140" d="M206.8,258.2c-6.7-8.5-12.8-17.6-23.9-21.3c12.2-2.2,14.8-0.8,21.9,11.8c1.4,2.5,2.8,4.9,4.2,7.3
		C208.8,257.3,208.6,258.6,206.8,258.2z"/>
	<path class="st141" d="M206.8,258.2c0.7-0.7,1.5-1.5,2.2-2.2c2.8,1.4,2.3,4.5,3.4,6.7c-3.6,0.8-5.8-0.4-6-4.3L206.8,258.2z"/>
	<path class="st142" d="M206.4,258.5c1.3,2.3,2.9,4.4,6,4.3c0.7,0.8,1.4,1.6,2.2,2.4c-0.4,0.4-0.8,0.8-1.2,1.2
		c-0.7-0.4-1.4-0.9-2.1-1.3c-0.9-1.8-3.2-1.1-4.5-2.3c-1.5-0.7-2.2-1.7-1.2-3.3C205.8,259.1,206.1,258.8,206.4,258.5z"/>
	<path class="st143" d="M542.2,390.2c-3.4-1.6-6.7-3.3-10.1-4.9c-2.1-1-2.7-2.1-1.8-4.4c2.9-7.5,5-15.2,6.7-23.1
		c1-4.9,6.8-7.5,11.3-11.1c1.4,3.5-0.4,7.2,1.7,11.2c1.9-3.6,0.8-6.6,1.2-9.4c2.2,4.6,1,9.2-0.1,13.7c-1.8,5.3-1.5,11-3.2,16.3
		C546.5,382.7,546.5,387.6,542.2,390.2z"/>
	<path class="st144" d="M566.7,507.5c-0.4,2.2-0.9,4.4-2.8,6.5c-0.6-3.4,0.6-6,1.9-8.6C566,506.1,566.3,506.8,566.7,507.5z"/>
	<path class="st145" d="M588.2,283.2c-1.3,0.8-0.9,2.2-1.2,3.4c-1.8-2-0.1-5.2-3.1-8.3c0.7,10.3-4.6,19.1-1,28.4
		c-0.4,0.4-0.8,0.7-1.3,1.1c-3.6-1.2-3.7-4.3-3.8-7.4c1.7-12.5,3.2-25.1,4.5-37.7c0.2-1.7,0.2-3.4,1.8-4.5c2.3,3,3,5.6,1.5,9.8
		C583.9,272.9,587.4,278.1,588.2,283.2z"/>
	<path class="st43" d="M579.1,300.8c-0.2,2.7,0.7,5,2.5,7c-1.1,0.8-2.2,0.7-3.4,0.1c-0.4-0.4-0.7-0.8-1.1-1.2
		C576.3,304.3,576.3,302.1,579.1,300.8z"/>
	<path class="st1" d="M569.2,411.7c0.8,3,1.5,6.1,2.3,9.1c1.3,20.9,0.2,41.6-3.4,62.2c-1.6,9-3.8,17.9-5.8,26.8
		c-3-0.4-2.6-3-2.5-4.7c0.1-7.1-1.5-14-1.8-21.1c0.3-7.7,1.8-15.2,2.5-22.8c1.7-18.2-1.3-35.8-4.8-53.4c-0.4-2-0.7-4-1-6.1
		C560.6,403.4,564.2,408.6,569.2,411.7z"/>
	<path class="st146" d="M557.9,484c3.1,4.9,2.7,10.6,3.4,16.1c0.4,3.2-1.1,6.7,1,9.8c0.5,1.7-0.5,3.2-0.8,4.8
		c-0.9,4.1-1.8,8.2-2.7,12.3c-0.4,0.8-0.9,1.5-1.5,2.6c-0.6-1.8-1.1-3.4-1.6-5c-0.5-6.5-0.6-13-1.7-19.3c-0.7-4.6-0.2-8.8,0.7-13.2
		C555.8,489.4,556.9,486.7,557.9,484z"/>
	<path class="st147" d="M347.7,451c-1.6,2.6-0.4,5.9-2.1,9.4c-2.5-7.9-4.1-15.3-5.6-22.7c2.6,1.1,3.5,6,7.7,3.4
		C347.7,444.4,347.7,447.7,347.7,451z"/>
	<path class="st148" d="M587,232c-0.3,0.2-0.5,0.3-0.8,0.4c-1.6-0.7-3.3-1.4-3.9-3.3c-0.1-5.4-4.7-7.1-8-9.8c-2.8-2.3-5.5-4.2-1-8.1
		c-5,0-7.4,4.8-11.8,3.3c-2.2-1.8-1.4-4.1-0.8-6.2c1.1-4,2.3-7.9,2.7-12c0.1-0.6,0.3-1.2,0.5-1.7c0.3-0.8,0.8-1.7,1.1-2.5
		c0.2-9.1,0.8-18.3-0.4-27.4c-0.4-4.3-0.9-8.7-1.5-13c0.1-3.6,1.4-5.4,5.2-3.4c2.8,1.5,6,1.9,8.7,3.8c2.2,1.8,4.2,3.8,5.4,6.5
		c5,5.5,7.1,12.1,7.2,19.4c1.5,3.8,1.3,7.6-0.2,11.4C590.1,203.6,589.3,217.9,587,232z"/>
	<path class="st149" d="M594.9,154.4c3.3,12.2,3.8,24.5,2.4,37c-2.1,7.1-1.6,14.8-5.6,22.7c0-7.7,0.1-14.3-0.1-20.9
		c-0.1-2.3,4.6-3.5,1.5-6.4c-2.8-3.7-1.7-8.6-3.6-12.5c0.1-5.3-4.3-9.1-4.6-14.3c3.5-1.9,2.9,1.7,3.7,3c1.7,2.7,2.5,8.3,5.4,7.1
		c2.7-1.1,1.7-6.7,0-10.1C592.8,157.7,593.3,156.1,594.9,154.4z"/>
	<path class="st150" d="M588.5,232.4c1.1-0.9,1.9-1,2.1,0.8c1,9.1-0.7,17.7-4.2,27.7c-0.9-9.3,1.9-16.7,1.7-24.2
		C588.2,235.2,588.4,233.8,588.5,232.4z"/>
	<path class="st151" d="M590.5,173.6c2.1,4.2,2.5,8.7,2.6,13.2c-0.3,2.2-1.8,2.6-3.6,2.5c-1.4-3.6,1.5-7.8-1.2-11.3
		C587.7,175.9,588.1,174.3,590.5,173.6z"/>
	<path class="st152" d="M582.9,228.5c0.5,1.9,3.6,1.5,3.4,4c0,8.7-2.6,17.1-2.2,25.8c-1.1,14.3-2.2,28.5-4.9,42.6
		c-0.7,2-1.3,4-2,5.9c-2.6,4.1-5.3,8.3-7.9,12.4c0.4,2-0.7,2.9-2.5,3.2c-2.5,1.8-3.8,4.5-5.6,6.9c-8.8,10.2-18.4,19.5-28.4,28.5
		c-5.2,4.7-10,6.4-16.4,4.1c-16.5-0.1-31.8-5.8-47.3-10.3c-15.4-4.4-27.9-13.3-39.9-23.3c-2.7-2.3-5.5-4.6-6.5-8.2
		c-3.8-5.4-8.2-9-15.5-6.5c-2.2,0.7-4.8,0-7.2,0c-4.5,0.3-7.2-3.1-10-5.4c-5.9-4.6-12.6-7.9-18.1-13c-2.9-4.8-5.6-9.8-5.7-15.6
		c1-1.6,2.4-2.4,4.1-1.4c1.3,0.7,1.4,2,1.2,3.4c-0.3,1.6-0.7,3.3,0.3,4.8c5.7,8.1,15.5,9.5,23.2,14.2c0.8,0.5,1.8-0.2,2.5-0.9
		c1-1.2,1.7-2.6,0.9-4.1c-0.6-1.3-1.1-2.9-2.2-3.9c-7.7-7.2-9.1-16.5-8-26.5c4.7,12.1,8.2,24.7,16.4,35.3c-1.2-4.7-2.3-9.3-3.5-14
		c-2.1-4.1-2.2-8.6-2.3-13c0-1.1,0.3-2.4,1.6-2.6c1.1-0.2,1.6,0.9,2,1.6c5.7,9.5,13,17.7,19.5,24.6c-3.3-8.3-7.6-17.9-10.3-28.1
		c-0.6-2.2,0.6-3.6,2.5-4.5c3.9-1.4,5.5,1.7,7.6,3.9c2.3,2.3,4.2,6.2,8.5,3.2c3.8,1.4,6.6,4.8,10.7,5.7c4.5,3.7,9.5,6.1,15.3,6.9
		c3-1.8,8-0.2,9-5.4c8.8-5.1,9.6-13.3,8.6-22.1c0.5-1.9,1.1-3.8,0.5-5.9c-0.5-1.7,0.8-2.2,2.2-2.3c1.7,0.1,2.8,1.4,3.9,2.5
		c0.9,1,2,1.7,3.5,3c-1.6-1.4-2.8-2.3-3.8-3.4c-1.9-2-4.8-3.9-1-6.9c-3.6-1.6-10.4,0.3-9-7.6c1.9-3,4.6-3.1,7.3-1.5
		c1.8,1.1,3.6,1.8,5.7,1.8c-0.8-6.6,1.3-8.7,9-8.8c2.9,6.6,1,13.4,1.1,19.5c10.7-16,14.5-35,17.4-54.2c1-4.4-0.5-9.6,4.1-12.7
		c2.9-0.8,4.9,0.5,6.5,2.8c1.5,10.1-0.6,20.1-1.2,30.1c-0.4,6.6-0.2,13.5-3,19.8c2.9-6.9,4.7-14.3,8.6-20.8c2.5,1.1,2.1,3.4,1.7,5.3
		c-0.9,5-0.7,10.1-2.2,15.1c1.2,0.2,2.1-1.6,2.7-0.9c1.1,1.3,1.3,1.5,1.2-0.4c0-3.4,0.6-6.7,2-9.8c1.5-3.3,8.1-7,11.6-6.4
		c1.6,0.3,2.3,1.2,1.5,2.8c-2,3-7.3,3.2-6.9,8.2c-0.2,1-0.6,2-1.1,2.9c-2,4.1-0.8,7.5,2.4,10.3c0.6,1.2-2,3.8,1.6,3.6
		c2.4,3,2.3,9.1,8.8,7.4c0.5-0.1,1.2,0.8,1.7,1.3c1.9,2.3,1.6,4.4-0.5,6.4c-1.6,2,0,2.6,1.4,3.3c3.1,1.3,6.2-0.5,9.3-0.1
		c0.9,0.1,0.1-1.1,0.1-1.7c4.4-5.6,7.9-11.9,12-17.7c4-2.3,5.1-6.3,6.1-10.3C580,227.6,580,227.6,582.9,228.5z"/>
	<path class="st153" d="M205.5,259.4c0.4,1.1,0.8,2.2,1.2,3.3c0,4.9,1.6,9.2,4.3,13.3c1.1,1.6,2.3,4.1,0.1,5.6
		c-2.3,1.6-4.2-0.1-5.7-2c-3.6-4.6-10.4-5.9-12.4-12.2c-4.4-6.1-9.5-11.2-16.8-13.6c-4.2-3-9.6-5.1-10.2-11.4
		c2.5-1.2,3.9-3.5,5.6-5.4c7.8,0.8,15.3,2.2,21.2,8.3C197.3,249.8,201.8,254.3,205.5,259.4z"/>
	<path class="st154" d="M176.3,253.8c4.1-3.2,5.9,1.8,8.5,2.9c4.1,1.9,7.3,5.7,8.4,10.6c-3.7-3.4-9.1-4-12.4-8
		C179.2,257.5,177.7,255.6,176.3,253.8z"/>
	<path class="st155" d="M566.7,322.3c0.8-1.1,1.7-2.1,2.5-3.2c1.7,1.4,1.5,3.4,0.4,4.7C569.1,324.6,567.3,323.7,566.7,322.3z"/>
	<path class="st156" d="M156,501c2.1-2.6,4.1-5.3,6.2-7.9c1-0.5,2.7-2.1,1.8,0.8c-2.6,8.5-2.6,17.5-4.7,26.1
		C155.8,514.1,152.3,508.2,156,501z"/>
	<path class="st157" d="M119.4,168.8c-3.9-5.3-3.9-5.6,0.5-7.7C119.8,163.5,119.6,165.8,119.4,168.8z"/>
	<path class="st158" d="M245.2,498.7c-0.5-6.5,0.2-13.1-0.8-19.6c-0.5-2.8,0.2-5.5,4.6-3c14.9,8.4,22,22,25.5,37.9
		c0.7,3,0,5.8-2.1,8.4c-4.3,5.2-8.2,10.7-12.2,16.1c-2.2-1.7-2.1-4.3-2.4-6.6c-1.4-9.3-4.4-18-9.6-25.9
		C246.6,503.8,246.3,501.1,245.2,498.7z"/>
	<path class="st159" d="M245.2,498.7c9.1,11.7,13.7,25.1,14.9,39.7c-6.9,9.5-13.7,19-20.6,28.6c2.4-10.8,5.6-21.2,5.6-32.3
		c-0.3-7.5-0.9-15,0-22.5C245.1,507.8,245.1,503.3,245.2,498.7z"/>
	<path class="st160" d="M245,512.3c0.1,7.5,1.4,15,0,22.5C243.4,527.3,243.7,519.8,245,512.3z"/>
	<path class="st3" d="M396.4,401.6c-1.2-10.5-4.1-20.7-3.6-31.4c-0.7-4.6-0.2-9.1-0.3-14.1c2.8,0.9,2.8,2.7,3.1,4.2
		c3.4,19.4,14.4,34.6,26.9,49.1c8.3,9.6,18.7,16.6,28.5,24.4c0.3,3.8-1.8,5.9-4.9,7.4c-5.8,6.9-13.5,10.9-21.5,14.5
		c-5.1,2.1-7.9-0.1-10.2-4.7c-4.8-9.7-9.5-19.5-12.4-30c-0.5-1.9-0.6-4.1-2.3-5.5C398.6,410.9,397.5,406.2,396.4,401.6z"/>
	<path class="st161" d="M445.2,451.1c-2.4-3.7-0.4-6.3,2.1-8.9c1.1-3,3.1-5.3,5.6-7.3c3.9-0.9,3.6,2.8,4.9,4.7
		c6.1,5,13.2,7.8,20.8,9.6c2.1,0.8,4,1.9,4.9,4.1c4.5,25.3,6.5,50.8,4.9,76.5c-2.2,1.7-2.6-0.6-3-1.6c-9.2-25-24.5-46.7-37.1-69.9
		C446.9,456,445.4,453.8,445.2,451.1z"/>
	<path class="st162" d="M491.3,538.2c6.5-21.4,9.8-43.5,14.4-65.3c2.3-10.8,4.2-21.6,6.3-32.5c2.3,0,2.8,1.9,4,2.9
		c0.5,10.7-2.2,20.9-4.6,31.1c-5.9,24.8-10.4,50-20,73.8c-0.9,2.2-1.9,4.5-3,7.1c-3.4-2.3-3.6-5.9-4.9-8.9
		c-10.8-24.2-23.8-47.2-38.4-69.4c-4-6.1-7.7-12.5-11.8-18.5c-2.6-3.8-0.3-4.9,2.5-6.8c3.7-2.4,4.1,0.5,5.1,2.6
		c14,30.4,32.3,58.5,47.2,88.4c0.2,0.5,0.7,0.8,1.4,1.7C490.5,542.3,491.4,540.4,491.3,538.2z"/>
	<path class="st163" d="M445.2,451.1c12.7,22.9,27.2,44.9,38,68.8c1.5,3.2,2.6,6.6,3.8,10c0.4,0.6,0.4,1-0.2,1.4c0,0,0,0,0,0
		c-1.8-0.6-2.5-2.3-3-3.9c-6.5-19.3-18.1-35.9-27.8-53.6c-3.7-6.7-7.4-13.4-11.1-20.1C444.2,452.8,443.8,451.9,445.2,451.1z"/>
	<path class="st164" d="M453.1,435.5c-2,2.2-3.9,4.5-5.9,6.7c-0.3-0.4-0.7-0.7-1-1.1c1.5-2.3,3-4.5,4.5-6.8
		c0.7-4.6,4.4-7.7,6.5-11.5c3-5.4,6.5-10.5,10.2-15.3c2.7-3.5,6-5.8,10.5-2.8c0.5,0.8,0.5,1.5,0.2,2.3c-5.4,1-8.4,4.9-11.2,9.1
		c-3.2,4.8-6.1,9.7-9.3,14.6C456.4,432.7,455,434.3,453.1,435.5z"/>
	<path class="st165" d="M513.9,363.1c2,8.1,1.1,16.7,3.4,24.8c0.3,1.2,0.6,2.5,0.9,3.8c3.6,11,5.9,22.4,7.9,33.8
		c0.1,0.8-0.3,1.4-0.8,2c0,5.6,0,11.2,0.1,16.8c0,2.6-0.4,4.3-3.4,2.2c-4.5-4.6-9-9.2-13.5-13.9c-7.2-5.8-11.3-13.7-15.4-21.6
		c-1.6-3-2.2-6.4-7.1-3.7c-3,1.6-3.5-1.4-3.4-3.8c4.4-10.2,11.7-18.6,17.2-27.4c1-0.9-0.1-1.3,0.4-0.8c0.1,0.1,0.1,0.2-0.1,0.4
		c-2.3,3-3.7,1.2-3.8-1.2c-0.1-4.1,0.8-8.2,2.4-12c0.6-1.5,1.9-2.5,3.6-2.1C506,361.3,510.3,360.9,513.9,363.1z"/>
	<path class="st161" d="M506.1,452.7c-3.8,25.8-9.3,51.2-15.6,76.6c-0.2-1.5-0.4-3-0.6-4.5c-1.6-5.4-2-11.1-1.9-16.6
		c0.1-10.4-0.8-20.6-1.5-30.9c-0.5-8-1.8-16-3.5-23.8c-0.2-0.9-0.1-1.8,0.6-2.5c2-1.3,4.3-0.4,6.4-1c-2.4,0-4.9,0.9-7.1-0.9
		c-0.3-0.5-0.6-1-0.7-1.6c-0.2-2,0-3.9,2.3-4.7c6.4,0.7,12.8,1.7,19.3,2.5C508.9,445.8,505.9,450,506.1,452.7z"/>
	<path class="st166" d="M506.1,452.7c0.1-3.9,0.1-6.4-5.7-6.3c-5.3,0.1-11.3,0-16.2-3.2c-1.2-1.4-1.4-3.2-1.1-4.8
		c1.7-8.4,0.7-16.8,1-25.2c0-1.3,0-2.7,0.6-3.9c0.9-1.7,2.1-3.4,4-3.6c2.2-0.2,2.9,1.8,3.7,3.6c2.7,6.2,6.2,11.9,10.5,17.2
		c2.2,2.8,4.5,5.5,5.1,9.2C507.8,441.4,507.4,447.1,506.1,452.7z"/>
	<path class="st167" d="M508.1,435.7c-5.8-9.3-13.4-17.5-17.5-27.9c-1-2.5-2.5-1.4-3.8,0c-1.6,1.7-1.4,3.8-1.2,5.8
		c0.8,9.9-0.2,19.8-1.3,29.6c-1.5,1.3-0.5,3.2-1,4.7c-0.5,0.4-1.1,0.5-1.8,0.3c-0.2-0.2-0.5-0.5-0.7-0.7c-0.2-0.6-0.3-1.3-0.2-1.9
		c0.5-12.6,2.4-25.2,0.3-37.9c0.2-1.6,0-3.5,2.3-3.9c0,3.3,0.9,4.6,3.6,1.6c2.4-2.6,4.3-1.9,5.5,0.9c4,9.6,10.5,17.7,16.2,26.2
		C508.3,433.7,508.2,434.7,508.1,435.7z"/>
	<path class="st168" d="M483.4,452.4c2.6,6.7,2.8,13.9,3.6,20.9c2,17.1,2.2,34.3,3,51.5c-2.2,1.6,1.2,6.1-3.2,6.6
		c0.1-0.5,0.1-1,0.2-1.5c2.3-5.8,0.4-11.7,0.2-17.5c-0.5-20.1-1.8-40.1-5.2-59.9C482.5,452.1,482.9,452.1,483.4,452.4z"/>
	<path class="st169" d="M525.2,427.5c-2.2-12-6.2-23.6-7.1-35.8c0.4-0.8,0.8-1.6,1.1-2.4c3,12.1,7.7,23.7,8.3,36.4
		c0,0.7,0.6,1.3,0.9,2C527.4,431.3,526.3,427.3,525.2,427.5z"/>
	<path class="st170" d="M477.5,404.7c-5.3-1.4-8.1,1.8-10.8,5.6c-5.5,7.9-9.8,16.6-16.1,24c-28.7-18.4-49.5-42.6-57.8-77.9
		c0,5.4,0,9.6,0,13.7c-1.5-3.8-0.4-7.8-1.1-11.6c0.2-4.3,1.9-7.9,4.8-11c3.2-3.4,5.8-7.2,7.9-11.4c2.6-5.4,7.9-7,13.1-8.6
		c1.4-0.4,1.8,1.1,2.5,1.8c1.5,1.3,1.6,3.1,1.5,4.9c-0.2,2.5-1.2,4.8-1.9,7.2c-0.2,0.7-0.5,1.4-0.7,2.1c-0.5,1.1-0.5,2.3-0.1,3.5
		c2.3,7.5,6.7,13.8,11.9,19.6c9.7,11,21.6,19.1,34.4,26c3.3,1.8,6.5,3.8,9.5,6.1C476.4,400.1,478.5,401.7,477.5,404.7z"/>
	<path class="st171" d="M417.3,346.2c-0.8-0.9-0.7-1.7,0.5-2.2c1.8-0.6,3.5-0.8,3.3-3.8c-0.2-3.6,0-7.3,0.2-11
		c1.1-2.5-2.6-5.6,1-7.7c6.7,5.4,12.9,11.4,19.9,16.5c11.8,8.5,25.3,13,39.1,16.9c4.3,1.2,8.5,2.9,13,3.6c3.7,0.6,4.7,2.2,3.8,5.8
		c-1.3,4.9-2.4,9.8-2.2,15c0.1,2-0.9,3.6-1.9,5.2c-3.6,6.4-8.3,12-11.8,18.5c-0.9,1.7-2.2,3.1-3.7,0.8c-5.2-8.1-14.1-11.1-21.7-15.6
		c-13.3-7.8-24.8-17.4-33.4-30.3C421,354.3,419.6,350,417.3,346.2z"/>
	<path class="st172" d="M417.3,346.2c0.6,0.4,1.4,0.8,1.6,1.4c9.7,21.4,27.3,34.3,47.2,44.8c5.5,2.9,10.8,6.1,14.1,12.2
		c4.4-6.8,8.8-13.2,12.6-19.9c3.8-6.8,2-15.1,4.7-22.4c0.9-2.3-1.9-2.1-3.4-2.5c-9.9-3-19.9-5.7-29.6-9.1
		c-16.6-5.9-30.6-15.8-42.2-29c0.1-0.5,0.1-1,0.2-1.6c12.6,12,25.9,23,42.6,28.8c15.6,5.4,31.6,9.7,48,12.2c1.1,0.2,2.2,0.6,3.2,0.9
		c-0.8,0.4-1.6,0.8-2.5,1.2c-2.2-0.3-4.4-0.6-6.6-0.9c-7.7-1.3-7.9-1.2-9.2,6.6c-0.4,2.4-1.3,4.7-0.6,7.3c2.8,0.8,2-3.2,4.6-3.2
		c-4.9,11.4-13.2,20.5-18.9,31.1c-1.2,1-0.9,2.5-1.1,3.7c-1.5,0.9-2.9,0.9-4.3-0.4c-0.1-0.8-0.1-1.7-0.2-2.5
		c-4.7-8.2-13.5-10.9-21-15.3c-16.4-9.7-30.3-21.9-38.7-39.5C417.2,348.6,417.1,347.5,417.3,346.2z"/>
	<path class="st173" d="M371.7,295.2c6,2.7,11.3,6.5,16.6,10.4c3.8,2.7,7.3,6,11.6,8c-0.4,0.4-0.8,0.8-1.2,1.2
		c-1.9-0.3-3.5-1.2-5-2.4c-1.1-0.8-2-2.6-3.8-1.5c-1.5,0.9-1.3,2.6-1.3,4.1c0.2,6-1.3,11.6-4.7,16.8c1-6.1,1.7-12.3,3.1-18.3
		c0.9-4-0.3-6.5-3.4-8.5c-4.1-2.6-8.4-4.9-11.9-8.3C371.6,296.1,371.6,295.7,371.7,295.2z"/>
	<path class="st172" d="M421.3,329.3c1.8,5.7,0.5,11.4,0.9,17.1c-2.6,0.6-1.9-3.7-4.4-2.4c0.1-0.8,0.2-1.6,0.2-2.3
		c2.7-1.6,3-4,2.2-6.7c-0.1-1.9-0.1-3.7-0.2-5.6C420.4,329.4,420.9,329.4,421.3,329.3z"/>
	<path class="st174" d="M517.4,370.9c-1.1-4.8,0.2-7,5.5-5.6c3.4,0.9,5.6-1.4,7.7-3.6c0.7-0.8,1.6-1.9,2.8-1.3c1.2,0.6,0.9,2,0.6,3
		c-1.6,5.3-3.3,10.6-5.1,15.9c-0.5,1.6-1.5,3.5-3.5,2.8c-3.2-1.2-7.1-1.9-7.9-6.2C517.2,374.3,517.4,372.6,517.4,370.9z"/>
	<path class="st175" d="M343.3,472.7c-1.7,8.2-2.6,16.7-7.8,23.7l0.1,0c-6.3,3.2-10.3,9.1-16,13.8c-2.3-5.7-2.2-11.5-3.4-17
		c-3.7-14.2-4.7-28.7-4.2-43.3c0-0.8,0.4-1.4,1-2c4,1.8,2.8,5.8,3.2,8.7c1.7,11.3,4.9,22.2,6.8,33.4c0.2,0.9-0.1,2.1,1,2.4
		c1.4,0.5,1.8-0.9,2.5-1.7C332.2,484.9,336.9,478,343.3,472.7z"/>
	<path class="st176" d="M312.9,447.9c-0.6,13.7,1,27.3,2.9,40.8c0.2,1.5,0.2,3,0.3,4.4c-1.2,0.9-0.7,2.4-1.1,3.5
		c-2.9-14.8-4.6-29.7-4.4-44.7c0.1-9.4-1.8-18.7-0.1-28.1c0.2-0.9-0.1-1.9,1.7-2.6C311.3,430.3,312.4,439.1,312.9,447.9z"/>
	<path class="st177" d="M536.4,530.3c1.5,0.4,3,0.8,4.5,1.2c1.7,1.1,1.4,3.4,3,4.6c2,1.5,2.3,3.5,0.9,5.4c-1.9,2.4-3.8,6.1-7,5.7
		c-4.6-0.5-6.5-5.2-8.5-8.8c-1.8-3.2,1.3-4.4,3.6-5.8C534.1,531.8,534.5,529.8,536.4,530.3z"/>
	<path class="st178" d="M536.4,530.3c-1.6,1.7-1.4,4.9-5.2,4.7c-2.1-0.1-2.2,3.3-1.1,3.8c3,1.5,3.6,4.3,5.2,6.6
		c0.7,1.1,3,2.3,3.7,0.4c0.9-2.5,2.8-3,4.6-4.2c1.2-0.8,2.3-3.7,0.3-4.1c-4.2-0.9-2.3-4-3-6.1c3.1,0,6.6,5.2,5.6,8.7
		c-1,3.7-2.7,7.2-6.7,8.4c-3.5,1.1-5.1-2.3-7.4-4c-2.7-2-4-4.9-4.6-8.1C526.8,531,530.4,528.5,536.4,530.3z"/>
	<path class="st179" d="M543,217.5c0.1-0.7,0.2-1.9,0.2-1.9c-3-0.6-10.5,4-11.2,7c-1.1,4.6-2,9.3-3.1,14.3c-2.6-1.8,0.6-3.8-1-5.3
		c-2,1.1-2,4.1-4.8,4.9c1.4-8.1,2.9-16.1,3.1-24.2c-1.5-2.2-1.8-4.7-1.1-7.2c0.4-8.6,2.2-17,1.7-25.7c2.6,9.2,1.1,18.6,2,27.9
		c3,5.7-0.2,11.2-0.5,15.8c2.9-8.4,5.4-17.9,9.4-26.9c3.1-5.6,2.5-11.9,3.2-18c1.4-12.1,1.4-24.2,0-36.3c-1.6-1.6-2.3-3.4-1.1-5.6
		c0-1.9,0-3.7,0-5.6c0.3-0.1,0.6-0.2,0.9-0.3c0.5,1.6,1,3.2,1.5,4.7c1.7,1.7,1.2,3.8,0.9,5.8c-0.4,11,2.5,21.6,3.6,32.4
		c4.1,9.3,3.6,18.8,2,28c0.9-0.9,0.6-3.1,1.1-4.9c4.3-14.2,4.1-28.8,4.6-43.4c0-3.4,0.1-6.7,0.1-10.1c4,0.6,3.4,3.9,3.7,6.5
		c1.7,12,0.8,24.4,4.7,36.3c1.1-0.2,0.9-2.4,2.5-2c1.2,0.3,0.9,1.5,0.9,2.3c-0.1,2.6,0.4,5.2-0.4,7.8c-0.4,0.4-0.8,0.8-1.2,1.2
		c-0.8,0.4-0.5-2.9-1.8-0.6c-0.9,1.5-0.2,3.3-0.9,4.9c1.1-1.4-0.6-4.6,2.8-4.5c0.4,4.7-1.1,9-2.4,13.4c-0.6,1.9-2.6,4,0,5.9
		c-1.5,2-1.9,1.9-4-1c-1.4-3.6-0.2-7.4-1.2-12.1c-3.4,6.2-9.6,10-9,17.5c-0.4,2-1.9,2.6-3.7,2.8c-0.9-0.2-1.5-0.7-1.9-1.6
		C542.4,219.1,542.6,218.3,543,217.5z"/>
	<path class="st180" d="M439.4,118.2c0,4.4,0,8.9,0,13.3c5.3-11.2,9-23.1,18.4-31.8c-3.3,6.8-7.9,12.8-10.8,19.8
		c-10,24.4-14.7,49.4-11.4,75.8c0.7,5.4,1.2,10.8,2.5,16.1c0.4,1.5,0.6,3.1,2,3.9c2.5,1.5,5.3,4.3,7.9,3.4c2.6-0.9,1-4.7,1.4-7.2
		c1.9-13.5,4-27,7.4-40.2c0.3-1.1,0.4-2.2,0.6-3.3c0.5-0.4,1-0.4,1.5-0.1c1.4,2.1,1.6,4.3,1.1,6.7c0.7-3.8-0.8-7.4-1.1-11.1
		c0-0.9,0.2-1.7,0.7-2.4c1.2-5.2,2.3-10.5,3.5-15.7c0.6-2.6,1-5.5,3.9-8.7c-1.7,9-4.5,16.4-4.1,24.3c0.6,2.1,0.5,4.3,0.5,6.5
		c-1.1,18.5-0.2,36.8,3.5,55c-0.4,1.5-1.3,2.2-2.9,1.9c-4-4.6-3.5-10.6-4.9-15.9c-2.1-10.3-1-20.7-1-31c-0.5,11.7-4.2,22.9-4.9,34.5
		c-0.2,3-1.1,6,0,9c0.1,1.5-1,2.6-1,4.1c-0.6,4.2,0.8,8.5-1.1,12.6c-0.6,0.7-1.4,0.9-2.4,0.7c-2-2.7-2-5.9-1.9-9
		c0.1-4.1-0.8-7.4-4.9-9c1.3,6,6,11.1,5.5,17.8c-1.4,1.9-3.2,2.3-5.3,1.5c0.5-5.8-1.5-10.8-4.1-15.8c-2.9-8.3-5.3-16.7-5.4-25.5
		c0.1-0.8-1.2,0.1-0.4-0.2c0.2-0.1,0.3,0.1,0.2,0.5c-1.3,13.2-4.6,26.1-6.7,39.2c-0.2,0.5-0.5,1-0.9,1.4c-2.2-0.7-2.3,2.5-4.2,2.3
		c-1.9-1-1.7-2.7-1.4-4.4c0.4-1.1,0.9-2.1,2-2.6c3.7-4.7,2.8-10.6,4.3-15.9c5.7-19.5,7.5-39.7,8.1-59.9c0.1-3.2,0.7-6.3,1.5-9.4
		c1.9-6.9,3.8-13.7,2-21c-0.8-3.4,0.6-6.7,0.9-10C438.6,117.8,439,117.8,439.4,118.2z"/>
	<path class="st181" d="M448.1,237.6c0.8,0.1,1.6,0.2,2.4,0.3c4-2.3,8.2-2,12.5-0.9c2.2,1.2,4.1,1,5.4-1.4c1-0.7,2-0.8,2.9,0.1
		c-0.6,3.6,0.6,5.4,4.6,5.6c2.2,0.1,4.8,0.4,6.5,2.4c-0.3,1.4-1.3,1.1-2.1,1c-0.9-0.1-1.8-0.5-2.5,0.4c0.1,2.4,2.2,3.4,3.3,5
		c0.2,1.2-0.3,1.7-1.5,1.5c-1.1-0.8-2.2-1.6-3.3-2.4c-3.5-1.5-7.2-2.5-11-1.9c-2.4,1.4-5,0.3-7.5,0.7c-1.1,0.1-2.2,0.1-3.3,0
		c-0.6,0-1.1-0.1-1.7,0c-4.4,0.6-9.3-1-13.1,1.5c-4,2.6-2.8,7.7-3.7,11.8c-0.3,1.3-0.7,2.5-2.2,2.9c-2.3-0.4-2.4-2.2-2.6-4
		c-0.1-2.2,0.6-4.3,1.1-7.3c-3.4,3.7-7,6.4-4.5,11.6c0.6,2.5,3.2,4.2,2.6,7.1c-1,3.1-2.9,4.2-5.5,1.8c-2.1-1.9-4-4-5.6-6.2
		c-1.2-1.7-2.5-2.7-4.6-2.3c-1.6,0.2-3,1.5-4.7,1c-0.4-1.5-0.8-2.9-1.2-4.4c-0.6-1.7-1.1-3.3,1.3-4c1.8,0,1.8,2.2,3.2,2.6
		c5.8-3.8,8.9-10,13.8-14.9c-2.5-0.5-4.7,4.9-6.9,0c-0.3-1.5-0.3-2.8,0.9-4c0.8-0.8-0.4-3.7,2.5-2.3c2.7,1.2,5.1-0.4,7.6-0.8
		c3.4-0.5,6.9-1.8,10.2,0.4c2.2,0.7,4.2,0,6-1.2C447.7,237.5,447.9,237.6,448.1,237.6z"/>
	<path class="st182" d="M511.8,150c2.7-18.7-3.1-36.4-7-54.6c8.1,4.1,16.9,27.6,16.9,44.4c-2,6.5-2,13.2-2.5,19.9
		c-0.6,3.9-1.3,7.7-2.6,11.4c-0.4,1-0.7,2.4-2,2.4c-1.8-0.1-1.7-1.7-1.7-2.9c-0.2-5.8,0-11.5-0.1-17.3
		C512.7,152,512.5,150.9,511.8,150z"/>
	<path class="st183" d="M579.2,107c-3.7-0.6-1.7,1.4-1.1,2.5c5.5,11,9.9,22.3,13.3,34.1c0.3,0.9,0.3,1.8,0.4,2.8
		c-6.6-7.9-11.5-16.9-15.9-26.1c-4.5-9.4-8.8-18.9-13.1-28.4c-0.7-1.5-1.2-3.1-1.5-4.8c-0.2-0.8-0.2-2.1,1-2.3
		c0.6-0.1,1.5,0.3,1.9,0.7C570.7,91.6,577.8,97.3,579.2,107z"/>
	<path class="st184" d="M439.4,118.2c-0.4,0-0.8,0-1.3-0.1c-4.2,2.2-6.7,6-8.6,9.9c-5.5,11.3-14.7,20.7-17.3,33.6
		c-1.6-5.1,0.5-9.9,1.5-14.5c3.5-17.2,12.4-31.5,25.8-43c0.5-0.4,1.4-0.4,2.1-0.6C443.2,108.9,439.7,113.3,439.4,118.2L439.4,118.2z
		"/>
	<path class="st185" d="M397.6,285.2c-3.5-11-7.6-21.9-9.6-33.4c-0.6-3.6-0.3-7.1-0.6-10.6c-0.1-1.7,0.7-4-2.2-4.4
		c-1.6-11.9-0.6-23.7,2.5-35.5c0.4,16.9,1.1,33.8,6.6,50c-0.4,2.4,0.7,4.4,1.6,6.4c2.1,5,3.8,10,2.9,15.6c-0.4,2.2,0.1,4.4,0.7,6.6
		C399.9,281.7,401,284.4,397.6,285.2z"/>
	<path class="st186" d="M373.8,150.8c-1.6,7.9-1.7,16.1-4.4,23.8c-0.4-1.9-0.8-3.7-1.2-5.6c-1-0.9-1.9-1.9-1.1-3.4
		c0.2-22.3,1.2-44.4,6.8-66.1c0.4-1.7,0.3-3.7,3-4.7c-0.4,6-1.6,11.6-2.2,17.2c-1.2,11.5-2,23.1-2,34.7
		C372.7,148.1,372.3,149.7,373.8,150.8z"/>
	<path class="st187" d="M565.9,194c0-3,0-6,0-10c-1.9,2.6-1.4,5.4-4.2,6.8c-1.1-8.9-3.7-17.3-3.9-26.2c-0.2-5.8-0.7-11.5-1.2-17.3
		c-0.1-1.7-0.6-3.3-2.2-4.4c2-2.7,1.7-6.3,3.2-9.1c3.5,0.3,3.1,3.4,3.5,5.4c2.2,10.6,4,21.4,3.9,31.9c0.5-2.1-0.9-4.8,0.8-7.1
		C567.4,174.1,567.7,184.1,565.9,194z"/>
	<path class="st188" d="M483.4,155.3c0.4-7.3-0.5-14.6-0.3-21.9c3.3,6,2.1,12.6,2.7,19c0.1,1.8-0.9,3.8,0.7,5.4
		c1.5,1.3,1.5,2.7,0.5,4.3c-0.1,11.8-0.1,23.7-0.3,35.5c-0.2,9-1.2,17.9-3.3,26.7c-0.7,0.4-1.3,0.2-1.7-0.4
		c-1.7-3.3-0.6-6.6-0.2-9.9c0.9-6.9,1.6-13.7,1.4-20.7c-0.1-5.9,0.1-11.8,0.4-16.6c0,6.4-3.4,13.3-4.3,20.7
		c-1.8,6.8-3,13.7-4.1,20.7c-0.3,1.9,0,4.2-2.3,5.3c-1.4-0.3-2-1.4-2.5-2.6c-0.2-10.4,3.1-20.2,5-30.3c1.8-9.5,6.1-18.4,7.8-28
		C482.9,160.1,482.9,157.7,483.4,155.3z"/>
	<path class="st189" d="M566,164.2c-0.2,3.1-0.3,6.2-0.5,9.3c-2-13.3-3-26.8-7.8-39.5c-0.9-10.2-6.9-18.7-10.1-29.1
		c2.6,1.5,2.9,3.6,3.8,5.2c2.4,5,3.9,10.7,11.1,10.9c0.8,0,1.4,1,0.9,1.7c-2.7,4.2,0.9,5.2,3.3,6.5c2.9,1.5,4,4.3,5.6,6.8
		c0.3,0.4,0,1.4,0.3,1.6c5.1,3.6,3.9,11.2,9.3,14.7c1.9,1.2,1.9,3.4,0.7,5.5c0.6,1.2,0,1.3-1,1.1c-1.5-1.9-3-3.8-4.5-5.6
		c-0.4-0.7-0.3-1.6-0.8-2.1c-6.9-6-8.2-16-15.4-21.8c-0.8-0.6-1.2-1.7-1.5-2.7c2.7,7.9,5.2,15.9,5,24.5
		C565,155.4,565.5,159.8,566,164.2z"/>
	<path class="st190" d="M403.1,177c-5.2-1.1-10.6-1.3-16-1.3c-2.7,0-5.2-1.1-5-4.1c0.3-3.4,3-2,5.2-1.8c9.1,0.7,18.3,1.5,27.1-2.4
		c1.2-0.5,2.5-0.7,3.8-0.8c2.1-0.2,4.4-0.1,4.9,2.5c0.4,2.4-1.3,3.8-3.4,4.5C414.5,175.5,408.9,176.1,403.1,177z"/>
	<path class="st191" d="M554.4,153.1c2.5,11,1.6,21.9-0.6,32.7c-1.3,6.2-1.7,12.7-5.5,18.3c0.1-10.4-0.1-20.6-1.5-30.8
		c3.3-0.5,2.3-3.6,2.9-5.4C551.2,163.1,551.8,157.8,554.4,153.1z"/>
	<path class="st192" d="M411.1,258.2c-2.4,0.1-2.2,1.9-2.3,3.5c-5.1-15.3-5.7-31.1-5.1-47c0.1-2.4,0.5-4.8,0.7-7.2
		c3,2.3,1.4,5.2,1.2,8c-0.1,12.9,0.6,25.7,3.5,38.5c0.6-16.4,9.1-31.2,9.6-47.6c0.9,9.4,1.7,18.8,2.6,28.1c-0.3,0.8-0.6,1.5-0.9,2.3
		c-2.5-1.2-2.5-3.7-2.8-6.3c-1.9,7.8-3.6,15.3-4,23C413.4,255.3,413,257.1,411.1,258.2z"/>
	<path class="st193" d="M397.6,285.2c0.5-8.7,0.9-17.4-2.2-25.9c-0.9-2.5-3.7-5-1.1-8.1c4.6,10.1,7.7,21,15.1,29.8
		c2.9,3.5,5.1,7.6,9.8,11.2c-4.1-9.2-7.7-17.3-9.2-26.1c1.5-0.7,2.9-1.7,4.7-1c-2.6,0.7-2.8,2.1-2,4.6c3.5,11,7.4,21.9,13.1,32.1
		c-9.8-8.9-18.4-18.9-26.1-30.4c0.2,2.4,0.5,4.8,0.7,7.1c0.2,2.6,0.4,5.2,0.5,7.8C398.7,289,398.3,286.7,397.6,285.2z"/>
	<path class="st194" d="M525,205c-0.3,2.5,1.8,4.7,1.1,7.2c-2.6,7-5.2,13.9-7.7,20.9c-0.5,1.4-1,2.7-2.2,4
		c2.1-18.1,4.4-36.2,4.2-54.5c-1.9-3.2-1.4-6.9-1.5-10.4c0-2.4,0.2-4.9-1-7.1c-0.3-1.8-0.3-3.6,0.7-5.3c1.2-1.3,0.3-3.6,2.2-4.6
		c2.3,14.2,2.9,28.5,1.5,42.9c-0.7,6.9,0.1,13.8-1,20.6C522.5,214.2,523.8,209.6,525,205z"/>
	<path class="st195" d="M471,220.9c0.4,0.8,0.8,1.6,1.2,2.5c3.3,1,6.6,1.6,10,0.9c0.4,0,0.8,0,1.2,0c2.8,2.1,2.4-1.5,3.6-2.1
		c0.7-0.4,1.2,0,1.8,0.2c1.5,0.4,3.2-0.8,4.6,0.5c2,1.6,1,3.9,1.2,5.8c-1.7,1-1.7-2.3-3.3-1.3c-0.3,0.2-0.5,0.6-0.9,0.7
		c-7.4,3.1-7.4,3.1-4.5,10.5c-5.1,0.2-8.9-5.5-14.5-3c-1.1-0.1-2.2,0.1-2.8,1.2c-1.9,0.2-3.2-1.2-4.6-2.1c-1.1-2.5,1.2-5.2-0.4-7.7
		c-0.2-0.8-0.2-1.5,0-2.2c0.2-0.2,0.3-0.4,0.5-0.6c0.7-0.3,1.3-0.7,2-1C468,223.1,469.4,221.7,471,220.9z"/>
	<path class="st196" d="M491.3,227.5c2.1-2.2,2.1,1,3.3,1.3c0,4.1,0,8.3,0,13.7c4.3-6.3,6-12.3,8.3-18.5c-3.2,0.3-3.5,3.7-6.3,3.4
		c10.6-9.4,11-22.5,13.2-35c0.1-0.3,0.4-0.6,0.7-0.9c0.7,0.1,0.7,0.8,1.1,1.2c-2.4,21-7.8,40.9-20.3,58.4c1.1-6,1.5-12,1.5-17.9
		C492.7,231.2,493.5,228.9,491.3,227.5z"/>
	<path class="st197" d="M487,162c-0.2-1.4-0.3-2.8-0.5-4.3c0-1.8,0.6-2.9,2.5-3.7c4.4-1.8,8.9-2.7,13.6-3.1c1.6-0.1,3.7-0.9,4.3,1.4
		c0.5,2-1.2,3-2.6,4C499.1,160,493.3,161.8,487,162z"/>
	<path class="st198" d="M511.5,192.7c-0.4-0.4-0.7-0.8-1.1-1.2c0.5-13.9,0.9-27.7,1.4-41.6c2.9,0.4,2,2.7,2,4.3
		c0.1,5.9,0,11.9,0.7,17.9c1.3-4.5,2.5-9,3.8-13.5c0.7,0.1,1.1,0.5,1.2,1.2c-0.8,1.4-1.4,2.9-1.1,4.6c1.8,5.9,0,11-3.4,15.7
		C513.1,184.2,511,188.1,511.5,192.7z"/>
	<path class="st199" d="M483.4,155.3c1.8,2.1,1,4.5,0.9,6.8c-7.1,2.7-14.3,5.2-22.2,4.5c-0.5-2-0.5-3.9,0.8-5.7
		C470.1,160,476.7,157.4,483.4,155.3z"/>
	<path class="st200" d="M367,260.4c-1.3-0.9-1-2.3-1.2-3.6c-1.6-6.9-0.8-13.3,3.6-19c1.1-1.3,2.2-2.7,4.3-2.2
		c1.2,6.4,2.4,12.7,3.6,19.1c-0.3,0.8-0.6,1.6-0.9,2.3C371.8,254.3,369.7,258.1,367,260.4z"/>
	<path class="st201" d="M537.6,196.1c-1.9,10.8-5.5,21-10.8,30.6c0.7-6.5,1.3-13,2-19.5C533.2,204.8,533.5,198.9,537.6,196.1z"/>
	<path class="st202" d="M439.4,118.3c-1.5-5.2,2.2-9.7,2.3-14.6c2.6-2.1,3.8-5,5.4-7.8c3.9-6.8,9.7-11.6,16.4-15.4
		c0.9,1,0.2,1.5-0.4,1.9c-11.9,7.5-18.4,18.7-21.6,32.1C441.1,115.9,440.8,117.4,439.4,118.3z"/>
	<path class="st203" d="M488.1,223.5c-0.4-0.4-0.8-0.9-1.1-1.3c7.7-10.6,5.6-22.7,5.3-34.7c2,9.7,4.1,19.2,1.2,29
		C491.6,218.8,491.5,222.4,488.1,223.5z"/>
	<path class="st204" d="M405.6,215.4c-0.7-2.6,0.9-5.6-1.2-8c0.3-9.9,0.6-19.9,5.6-28.9C406.5,190.6,407.6,203.2,405.6,215.4z"/>
	<path class="st205" d="M459.6,161.1c0,0.7-0.1,1.4-0.1,2.1c0.1,1.6,0.6,3.3-1.1,4.4c-0.3,0-0.6,0.1-0.9,0.4
		c-5.5-0.5-10.9-1-16.4-1.5c0-0.4-0.1-0.7-0.1-1.1C447.1,164,453.4,162.5,459.6,161.1z"/>
	<path class="st206" d="M539.8,136.3c0.4,1.9,0.7,3.7,1.1,5.6c-2.3,1.2-4.6,2.4-6.9,3.5c-2,1-4.7,2.2-5.9-0.3
		c-1.4-3.1,1.9-4,3.9-4.8C534.7,139.2,537.6,138.4,539.8,136.3z"/>
	<path class="st207" d="M543.1,141c-1.9-1.7-0.5-3.9-0.9-5.8c2.2-2.5,5.1-2.6,8.1-2.4c1.4,0.1,3.2-0.1,3.4,1.9
		c0.2,1.6-0.9,2.9-2.3,3.4C548.7,139.2,545.9,140,543.1,141z"/>
	<path class="st208" d="M367.1,165.6c0.5,1.1,1.5,2,1.1,3.4c-3.8,2.7-7.6,0.5-11.3-0.3c-1.1-0.2-2-1.2-1.7-2.5
		c0.3-1.2,1.2-2,2.5-1.8C360.8,164.7,363.9,165.2,367.1,165.6z"/>
	<path class="st209" d="M519.5,160c-0.4-0.4-0.8-0.8-1.2-1.2c-0.8-6.1,1.4-12,1.6-18c0-0.4,1.1-0.7,1.7-1c0.9,5.2-1.3,10.3-0.9,15.5
		C520.4,156.8,521.2,158.7,519.5,160z"/>
	<path class="st210" d="M581.7,158.8c0.3-0.4,0.7-0.7,1-1.1c0.8,0.8,1.5,1.5,2.3,2.3c2,4.5,5,8.6,5.6,13.6c-1.2,1.3-2.1,2.6-2.2,4.4
		C588.8,170.7,585.1,164.8,581.7,158.8z"/>
	<path class="st20" d="M585.2,119.2c-1.9-3.7-3.8-7.5-5.7-11.2c4.8-2.4,4.6,2.3,5.8,4.4C586.5,114.5,586.8,117,585.2,119.2z"/>
	<path class="st211" d="M488.1,223.5c2-2.1,2.1-5.7,5.4-7c-0.7,2.1,2,4.3,0,6.4C491.6,222.4,490.1,225.5,488.1,223.5z"/>
	<path class="st212" d="M369.4,237.9c-1.7,6.2-2.8,12.6-3.6,19c-1.8,2.9-0.3,6.3-1.7,9.7c-3-14.6-3.3-29-5-43.4
		c-2.1,1-1.3,2.6-1.2,3.8c0.5,13.6-1.9,26.8-4.4,40.1c-0.3,1.6-0.8,2.9-2.3,3.6c-2.7-2.7,0-5.4,0.3-7.9c2.2-19.8,2.2-39.7,1.9-59.6
		c0-2.7,0.2-5.2,2.4-7.1c3-4.6,7.1-7.6,12.4-9.1c1.1,0.7,1.2,1.8,1.2,3c-0.5,12.5-0.1,25,1.3,37.9c-2.3-0.7-1.5-3.1-3.4-3.9
		C366.9,228.9,369.9,233.2,369.4,237.9z"/>
	<path class="st213" d="M354.6,194.9c-1,0.4-1.7,2.2-2.7,1.5c-1.2-0.8-1.7-2.9-0.7-4c4.7-5.9,10.7-10.2,17.3-13.8
		c1.4-0.8,1.9,0.5,2,1.7c0.2,2.2-0.9,3.9-2.3,5.4C364,189.5,359.5,192.5,354.6,194.9z"/>
	<path class="st214" d="M354.6,194.9c4-3.8,8.7-6.6,13.6-9.1c0,0.4,0.1,0.9,0.1,1.3c-4.1,3-8.3,6.1-12.4,9.1
		C355.4,195.7,355,195.3,354.6,194.9z"/>
	<path class="st215" d="M365.5,301c1.5,15.7-2.2,30.6-6.9,45.3C361.2,331.3,363.2,316.1,365.5,301z"/>
	<path class="st216" d="M371.6,286.4c-1.4-1.1-1.2-2.6-1.1-4c0.2-3.9-1.5-4.5-4.6-2.8c-0.4-5-0.4-9.9,4.5-12.9c3-1.9,6.2-3.2,8.5,1
		c3.2,5.8,2.9,8.1-1.7,10C373.4,279.4,371.3,282.1,371.6,286.4z"/>
	<path class="st217" d="M390.4,288.2c1,0.9,1.8,1.4,2.3,2.1c1.4,2.2,4.9,4.5,2.8,7.1c-1.6,1.9-4.1-1.2-6.2-2
		c-4.9-1.9-9.8-3.8-13.7-7.5c-1.5-1.4-2.4-3-1.5-5c1.2-2.6,3.8-3.6,6.3-4.2c2.7-0.6,2.7,2,3.4,3.6c1.6,3.5,2.5,7.3,4.9,10.5
		C390.5,291.6,389.1,289.8,390.4,288.2z"/>
	<path class="st218" d="M367,260.4c0.4-3.6,2.8-5.4,6.1-6.2c2.2-0.5,2.8,1.1,3.3,2.8c0.7,3.1,2.3,6.5-3.5,6.5c-1.8,0-3.5,1.7-5.9,3
		C367,264.1,367,262.3,367,260.4z"/>
	<path class="st22" d="M186.5,283.9c-2.8,1.7-5.1,0.2-7-1.5c-3.6-3.3-7.3-6.5-10-10.6c5.2-0.2,7.5,4.6,11.5,6.7
		C183.2,279.6,184.7,282.1,186.5,283.9z"/>
	<path class="st219" d="M335.5,496.4c1.1,1.1,0.8,2.3,0.4,3.6c-4.9,16-11.7,31.2-19.6,46c-0.2,0.4-0.7,0.7-1.8,1.8
		c-1.4-6.1-2.8-11.6-4-17.2c-0.4-1.7,0.4-3.4,1.4-4.8c5.7-7.5,9.2-16.7,17.4-22.4C331.7,501.6,334.1,499.3,335.5,496.4
		C335.6,496.3,335.5,496.4,335.5,496.4z"/>
	<path class="st220" d="M558.9,213c1.2,0.1,1.3,3.3,3.4,1.3c4.4-1.4,7.8-6.4,13.4-3.9c0.2,1.5-1.2,1.8-2,2.3
		c-3.3,1.8-2.1,3.2,0.3,4.8c3.9,2.6,7.7,5.4,10.3,9.3c1.5,2.1,0.1,2.1-1.5,1.6c-2.2-1.3-1.9,0.6-2,1.7c-0.6,5.3-4,9.3-6.7,15
		c-0.3-2.1-0.4-3-0.5-3.9c0-0.3-0.1-0.5-0.1-0.8c-0.4-2.8-0.1-5.6-0.2-8.4c-0.2-3.8-2-6.8-5-9c-2.2-1.7-4.5-2-5.6,1.5
		c-0.1,0.9-0.1,1.9-0.2,2.8c-0.3,1.4,0,3.4-1.9,3.5c-1.6,0.1-1.6-1.8-1.9-3c-0.6-2.9-1.9-1.4-3.1-0.5c-0.6,0.5-1.2,1-1.9,1.4
		c-5,3.2-9.5,6.9-12.1,12.5c-0.4,0.8-1,1.6-2.1,1.2c-1,0.5-1.9,1-2.9,1.5c-0.7-1.8,1-3.2,0.9-4.8c-3.2-5.8,1.4-8.6,4.7-11.9
		c3.3-3.3,6.3-6.8,10.3-9.3C555.2,216.9,556.5,214.3,558.9,213z"/>
	<path class="st221" d="M564.5,151.1c-1.9-8.2-3.4-16.4-6.4-24.3c-0.8-2.1-0.1-3.2,2.5-3.5c-1.4,4.9,2.9,6.7,5.3,9.3
		c5.1,5.4,5.8,13.7,12.3,18.1c1.5,1-0.8,1.6-1.1,2.5c-3.5-1.4-7.1-2.7-10.6-4.3C563.5,147.5,565.2,150.4,564.5,151.1z"/>
	<path class="st222" d="M433.5,263.9c2.6-3.7,1-8.3,2.3-12.3c0.7-2,1.3-3.6,3.3-4c5.4-1,10.9-1.6,16.3-0.5c1.1,1.6,2.1,2.1,2.9-0.2
		c1.6-1.6,4.2,1.6,5.6-1.2c3.6,3,2.2,7.6,3.5,11.3c1,6.8,0.3,13.3-2.5,19.6c-0.9,2.1-2.3,3.8-4.4,4.9c-1.9,0.7-3.5,1.7-4.4,3.6
		c-5.9-1.2-12.1-1.7-15.6-7.7c1.8-1.5,3.9-0.7,5.9-0.7c6.3,2.3,6.3,2.3,10.8-6.3c-0.5,0.6,0.1-0.3-0.1-0.1c-5,6.8-9.5,4.8-13.9-0.6
		c-0.8,1.5-1.9,2.6-3.7,3C434,271.9,432.5,269.6,433.5,263.9z"/>
	<path class="st223" d="M554.5,226.5c5-3.7,5-3.7,6.5,4.6c0.2-3,0.3-5,0.5-6.9c3.4,1.2,2.1,4.2,2.6,6.6c0,0.6,0,1.3,0,1.9
		c-0.1,3.5,0,6.9,0,10.4c-0.6,6.3-1.4,12.5-6.5,17.1c-1.9,2.2-4.3,2.4-6.9,1.5c-2.3-0.9-5.1-1.7-1.7-4.7c4.6-0.7,4.6-4.8,6.1-8.1
		c-1.3,1.6-2.1,4.1-4.9,2.4c-2.8-1.8-5.3-2.1-6.8,3c-1.4-4.8-2.5-8.4-3.5-11.9c2.8-6.6,7.3-11.5,13.7-14.7c0.7,0.4,1.2,1.8,2,1
		C556,228,554.9,227.2,554.5,226.5z"/>
	<path class="st224" d="M459,281c5.5-2.7,6.1-8.1,6.8-13.2c0.5-3.5,0.3-7,0.4-10.5c-0.3-2.1-1.4-5.4,0.7-5.8
		c2.9-0.6,5.9,1.3,7.3,4.5c3.5,9.9,0.1,18.8-9,23.6C462.4,282.8,461.2,283.1,459,281z"/>
	<path class="st26" d="M556.5,259.4c4.7-4.3,4.9-10.3,6.1-15.9c0.7-3.8,0.6-7.6,0.1-11.4c-0.2-0.3-0.2-0.7-0.1-1
		c0.2-0.5,0.5-1.2,1-1.2c4.1-0.1,10.4,7.1,10.2,11.4c0,0-0.1,0-0.1,0c-3.5,6.4-6.5,13.2-12.4,18
		C559.8,261.8,558.1,261.3,556.5,259.4z"/>
	<path class="st225" d="M445.9,277.2c-1.7,2.5-3.6-0.4-5.4,0.3c-4.7,0.5-7.6-2.3-10.1-5.7c-1.4-2.1-3.4-3.9-3.6-6.7
		c0.2-3.6,2-5.8,5.8-5.8c0.4,1.5-1,3.4,0.8,4.7c1.8,3,0,9.3,6.9,7.7C446.3,270.7,447.6,272.1,445.9,277.2z"/>
	<path class="st226" d="M553.3,218.7c-2.6,2.4-5.4,4.6-7.9,7.2c-3.7,3.8-8.7,6.9-7.8,13.3c-6.6-2.6-3.9-7.2-2.5-11.5
		c4-0.9,5.2-5.9,9.3-6.6c0.8-1.2,2.8-0.8,3.2-2.4c-1-1.8-0.1-2.8,1.6-3.1C551.6,215.2,553.1,216.1,553.3,218.7z"/>
	<path class="st227" d="M474.3,256c-2.5-1.3-4.9-2.5-7.6-3.9c-0.2,2-0.3,3.6-0.5,5.2c-0.8-3.9-1.5-7.7-2.3-11.6
		c4.7-0.7,9.3-1.2,12.4,3.5c-1.8,0.2-1.3,1-0.6,2C477.3,253.4,476.3,254.9,474.3,256z"/>
	<path class="st228" d="M515,180.3c1.1-5.2,2.3-10.5,3.4-15.7c3.3,1.7,1.8,4.9,2,7.5c0.3,3.5,0.1,7,0,10.6
		C518.8,181.6,517.2,180.3,515,180.3z"/>
	<path class="st229" d="M520,323.4c-7.7,5.7-16.5,5.1-25.4,4.4C503,325.8,511.8,326.4,520,323.4z"/>
	<path class="st230" d="M550,251.4c3.9-0.1,3.5-4.4,5.8-6.1c1.3,6.6-1.6,11.4-7,11.8C550.9,255.5,551.8,253.7,550,251.4z"/>
	<path class="st231" d="M459,281c2.6,1.8,4.2-0.9,6.3-1.4c2.8,1.8-0.2,2.8-0.6,4.2c-3.2-1.7-5.4,2.6-8.5,1.4
		C454.4,281.9,456.7,281.5,459,281z"/>
	<path class="st232" d="M532.5,296.9c1.8-5.2-2.1-9.4-2.1-14.2C532.2,287.2,537.3,291.1,532.5,296.9z"/>
	<path class="st233" d="M544.5,221.1c-2.2,2.4-4.4,4.8-6.7,7.2c-1.2,1.3-2.3,2.2-2.7-0.6c0.5-0.6,1-1.3,1.5-1.9
		c1-3.3,2.7-5.7,6.4-6.1C543.6,220.1,544,220.6,544.5,221.1z"/>
	<path class="st234" d="M556.5,259.4c1.6,1.8,3.2,1.3,4.8-0.1c1,0.3,2.5-0.7,2.8,0.8c0.2,1.2-1.4,2.5-2.1,2.1
		c-3.8-1.6-7.7,1.6-11.4-0.5C552.8,261.6,555.2,261.8,556.5,259.4z"/>
	<path class="st235" d="M543.1,219.7c-2.1,2-4.3,4-6.4,6.1c-2.3-6.1,3.2-6.3,6.3-8.2C543,218.2,543.1,218.9,543.1,219.7z"/>
	<path class="st236" d="M536,316.6c-1.6,3-4.4,4.1-7.7,4.4C530.3,318.6,532.8,317.1,536,316.6z"/>
	<path class="st237" d="M479.7,251.7c0.5-0.5,1-1,1.5-1.5c2.1,1.7,4.3,3.3,7.4,5.8C484.1,255.7,481.9,253.6,479.7,251.7z"/>
	<path class="st238" d="M477.8,407.3c1.4,0.1,2.8,0.3,4.3,0.4c3.2,13.2,1.2,26.3-0.7,39.3c-2.7-2.6-6.1-3.1-9.6-3.8
		c-4.5-0.8-8.8-2.5-13.3-3.4c-0.8,0.2-1.5,0.2-2.3,0.2c-1.5-1.1,0.7-4.8-3-4.5c4.9-7.8,9.8-15.6,14.9-23.2
		C470.2,409,472.6,405.2,477.8,407.3z"/>
	<path class="st239" d="M456.1,440c0.5-0.4,0.9-0.9,1.4-1.3c2.9,0,5.2,1.9,7.5,3.3c5,3,10.8,3.7,16.1,5.8l0.5,0.2
		c-0.4,2.3-2.4,1.4-3.7,2C469.4,449.3,462.6,445,456.1,440z"/>
	<path class="st240" d="M481.4,470.5c-3.8,1.8-4.6-1.2-4.6-3.6c-0.1-2.2,1-4.7,4.3-3.3C480.8,466,480.7,468.3,481.4,470.5z"/>
	<path class="st241" d="M477.8,450c1.2-0.7,2.5-1.3,3.7-2c0.6-0.1,1.1-0.1,1.7-0.2c0.1,0.3,0.2,0.6,0.3,0.9c0.4,0.7,1.7,1.1,0.9,2.3
		c-0.3,0.4-0.7,0.9-1,1.3c-0.5,0-0.9,0.1-1.4,0.1C480.6,451.7,479.2,450.9,477.8,450z"/>
	<path class="st242" d="M481.4,470.5c-3.4-2.1-3.1-4.4-0.3-6.9C482.9,465.9,482.8,468.2,481.4,470.5z"/>
	<path class="st243" d="M484.4,451.1c-0.3-0.8-0.6-1.5-0.9-2.3c3.7,0.8,7.3-0.9,12.1-0.5C491.6,451.3,488,451.2,484.4,451.1z"/>
	<path class="st244" d="M481.1,447.8c-9.4,0.8-16.3-4.5-23.6-9.1c2.2-2.3,3.5,0.5,5.3,0.9c4.1,0.9,8.2,1.8,12.4,2.6
		c2.8,0.6,6.1,0.5,6.2,4.7C481.3,447.3,481.2,447.6,481.1,447.8z"/>
	<path class="st103" d="M420.2,335c1.1,2.8,3.4,6.1-2.2,6.7C418.7,339.5,419.5,337.2,420.2,335z"/>
	<path class="st245" d="M543.7,172.7c2.6,10.5,2.3,21.1,1.6,31.7c-0.4,5.1-4.5,6.5-7.8,8.7c-0.4,0.2-1.2,0.3-1.5,0.1
		c-0.8-0.8,0-1.7,0.2-2.6C540.5,198.4,542.9,185.7,543.7,172.7z"/>
	<path class="st246" d="M553.3,218.7c-1.9-1.5-3.8-4.6-5.6,0c-1.3-0.7-3-1.4-1.7-3.2c4-5.5,6.7-11.9,12.4-16.8
		c1.4,4.9,0.2,9.6,0.5,14.3C558.2,216.1,556,217.5,553.3,218.7z"/>
	<path class="st247" d="M557.2,180.5c3.4,11,2.7,14.6-4,19.8C554.6,193.6,555.8,187.4,557.2,180.5z"/>
	<path class="st248" d="M564.7,195c-2.2,1.7-0.8,5-3.2,6.8c-0.2-2.8-0.9-5.6,0.6-8.1c0.4-0.7,1.1-1.9,2-1.1c0.5,0.4,0.4,1.7,0.6,2.5
		C564.7,195.2,564.7,195,564.7,195z"/>
	<path class="st249" d="M462.2,166.6c7.3-1.7,14.5-4.1,22.2-4.5c0.4,2.7-0.4,5.1-1.3,7.6c-6.1,16.6-9.7,33.7-12,51.2
		c-0.7,2.8-1.6,5.1-4.9,2.3C461,204.6,460.7,185.6,462.2,166.6z"/>
	<path class="st216" d="M424.5,238.8c1.7-14.1,4.3-28,8.4-41.7c1.6,9.3,4.1,18.2,6.5,27.1c-2.4,5.4-7,9.2-10.6,13.8
		C427.8,239.3,426.3,240.6,424.5,238.8z"/>
	<path class="st250" d="M464.2,226.5c3.4,2.6,0.5,5.2,0,7.8c1.3,1.9,0.2,3.2-1.2,4.4c-1.7-2.1-3.8-0.6-5.8-0.6
		c-2.2,0-4.5-0.2-6.7-0.3c0-4.8,0.1-9.7,0.1-14.5C455.9,221.4,460.2,223.4,464.2,226.5z"/>
	<path class="st251" d="M451.8,213c0.7-12.7,3.7-25,6.3-37.5c2.1,10.9,0.6,22.1,2.5,33.1C457.6,209.8,455.9,213.9,451.8,213z"/>
	<path class="st252" d="M411.1,258.2c1.9-10.6,2.4-21.5,6.3-32.3c2.2,3.5,1,7.6,2.9,10.8c-0.1,1.6-0.3,3.3,0.8,4.7
		c0,1.5,0,3-0.1,4.5c-0.1,1.9-0.6,3.6-1.8,5.1c-2.9,3.5-5.2,7.5-7.1,11.6C410.2,261.6,411.6,259.6,411.1,258.2z"/>
	<path class="st253" d="M424.5,238.8c5.2-1.3,6.8-6.5,10.1-9.8c1.6-1.5,2.7-3.6,4.7-4.7c1.7,3.7,3.3,7.4,5.1,11
		c1.9,3.8-2.1,2.3-3,3.5c-4.6,0.2-9.1,0.5-13.5,2.2c-2.1,0.8-3.5,0.4-4.3-1.8C423.9,239,424.2,238.9,424.5,238.8z"/>
	<path class="st254" d="M451.8,213c3.6-0.2,4.6-5.6,8.8-4.5c1.2,5.2,2.3,10.5,3.5,15.7c0,0-0.1-0.1-0.1-0.1c-4.3,1.1-7.8-1-11.3-3
		C448.5,218.9,452.2,215.7,451.8,213z"/>
	<path class="st255" d="M448.1,237.6l-0.3,0.1c0,0-0.3-0.1-0.3-0.1c-2.5-6.4-5.9-12.5-7.4-19.4c7.5,1.4,9.2,6.1,8.3,12.6
		C448.1,233,448.2,235.3,448.1,237.6z"/>
	<path class="st256" d="M452.8,221.2c3.8,1,7.5,2,11.3,3c0.1,0.8,0.1,1.6,0.2,2.3c-4.6-0.5-8.7-3.3-13.5-3.2
		C451.4,222.6,452.1,221.9,452.8,221.2z"/>
	<path class="st257" d="M458.3,167.6c0.9-1.4-0.4-3.3,1.1-4.4c3,3.8,0.4,8.2,0.9,12.3C460.1,172.7,459.2,170.2,458.3,167.6z"/>
	<path class="st258" d="M412.2,262.6c-0.7-3.7,1.3-6.3,3.4-9c1.9-2.5,3.6-5.1,5.5-7.7c0.7,0.7,1.8,1.4,2.1,0.1
		c1.1-4.2,4.3-2.2,6.8-2.8C423.8,249.7,420.3,258.3,412.2,262.6z"/>
	<path class="st259" d="M432.7,259.3c-2.5,1.3-4.2,3.5-5.8,5.8c-2.8-5.7-1.7-7.9,7.2-14.3C433.5,253.9,433.1,256.6,432.7,259.3z"/>
	<path class="st260" d="M463,238.8c0.4-1.5,0.8-3,1.2-4.4c2.5-0.9,3.3,1.1,4.4,2.6C468.5,242.6,464.9,238.2,463,238.8z"/>
	<path class="st261" d="M458.4,247c0.4,1.1,1.6,2.2,0.3,3.4c-0.7,0.6-1.5,1-2.5,0.5c-1.8-0.9-1.2-2.4-0.7-3.7
		C456.5,247.1,457.5,247,458.4,247z"/>
	<path class="st262" d="M482.2,224.3c-3.7,3.6-6.9,2.1-10-0.9c2.2-8.7,2.4-17.7,5.5-26.2c1.8-2.3,2.4-6.1,6.8-4.5
		C485.3,203.3,482.5,213.7,482.2,224.3z"/>
	<path class="st263" d="M484.5,192.7c-3.1,0.2-4.2,3.4-6.8,4.5c0.8-7.8,3.5-15.2,6.8-22.6C484.5,180.7,484.5,186.7,484.5,192.7z"/>
	<path class="st264" d="M471,229c2.1-1.4,4.3-0.7,6.5-0.4c1.3,0.2,3.5-0.4,3.1,2c-0.3,1.7-1.9,2.3-3.6,1.9c-2.4-0.5-6.8,2.1-6.1-3.6
		L471,229z"/>
	<path class="st265" d="M471,228.9c-1.6,0.1-0.5,3.9-3,2.4c-1-0.6-1.1-2.6-0.2-3.5c1.6-1.7,2.4,0.1,3.2,1.2
		C471,229,471,228.9,471,228.9z"/>
	<path class="st266" d="M368.1,253.2c1-4.3,1.9-7.7,2.8-11.6c3,3,3.5,6.6,3.3,9.8C374.1,253.4,370.7,252.3,368.1,253.2z"/>
	<path class="st267" d="M573.8,241.3c-2.3-4.9-5.3-9.1-11.2-10.2c-0.4-2.3,0.3-4.8-1.2-7c1.5-4.3,5.3-5.1,8.6-1.7
		C575.5,227.9,576.5,234.2,573.8,241.3z"/>
	<path class="st268" d="M554.5,226.5c1.9-0.2,3.6,0,3.1,2.5c-0.3,1.6-1.2,3.7-3.2,3.1c-2.1-0.6-0.7-2.8-0.9-4.3
		C553.8,227.3,554.1,226.9,554.5,226.5z"/>
	<path class="st269" d="M456.3,259.9c-0.3,3.7-0.8,7.8-4.8,9.1c-3.2,1-6.6-4.7-6.6-10.1c0-4.1,1.8-7.4,5.9-7.2
		C455.2,251.9,456.6,255.6,456.3,259.9z"/>
	<path class="st270" d="M445.9,277.2c1.4-5.1-1.6-5.7-5.5-5.6c2.7-1.2,0-3.6,0.9-5.2c10.7,9,10.7,9,17.4,0.5
		c-0.2,4.5-1.5,8.9-4.9,12C451.4,281,448.1,279.8,445.9,277.2z"/>
	<path class="st271" d="M552.4,240.6c-1.1,2,1.6,6-2.7,6.1c-4.2,0-3-3.9-3.2-6.4c-0.1-2.6-0.4-6.1,3.1-6
		C553.6,234.4,551.7,238.3,552.4,240.6z"/>
	<path class="st267" d="M562.6,232.2c1.5,3.8,1.6,7.6-0.1,11.4C562.6,239.7,562.6,236,562.6,232.2z"/>
	<path class="st272" d="M478.1,414c2.1,1.1,3.2,2.8,2.6,5c-0.5,1.9-0.5,5-3.6,4.6c-2-0.3-3.1-2.5-2.9-4.8
		C474.5,416.5,475.7,414.8,478.1,414z"/>
	<path class="st273" d="M477.5,416.1c1.7,2.3,1.2,3.8,0.5,5.8C475.8,420.1,476.3,418.6,477.5,416.1z"/>
</g>
</svg>
