<svg width="18" height="20" viewBox="0 0 18 20" fill="none" xmlns="http://www.w3.org/2000/svg">
<path fill-rule="evenodd" clip-rule="evenodd" d="M15.9902 18H13.0002V11C13.0002 10.447 12.5522 9.99999 12.0002 9.99999H6.0002C5.4472 9.99999 5.0002 10.447 5.0002 11V18H2.0002L2.0062 9.58299L8.9982 2.43199L16.0002 9.62399L15.9902 18ZM7.0002 18H11.0002V12H7.0002V18ZM17.4242 8.18499L9.7152 0.300988C9.3382 -0.0840124 8.6622 -0.0840124 8.2852 0.300988L0.575198 8.18599C0.210198 8.56099 0.000198364 9.08499 0.000198364 9.62399V18C0.000198364 19.103 0.847198 20 1.8882 20H6.0002H12.0002H16.1112C17.1522 20 18.0002 19.103 18.0002 18V9.62399C18.0002 9.08499 17.7902 8.56099 17.4242 8.18499Z" fill="#757D8A"/>
</svg>
