<svg width="25" height="31" viewBox="0 0 25 31" fill="none" xmlns="http://www.w3.org/2000/svg">
<path d="M6.37956 0.34668H3.36861C2.57006 0.34668 1.80422 0.663904 1.23955 1.22857C0.674891 1.79323 0.357666 2.55908 0.357666 3.35763V27.4452C0.357666 28.2438 0.674891 29.0096 1.23955 29.5743C1.80422 30.1389 2.57006 30.4562 3.36861 30.4562H6.37956C7.17812 30.4562 7.94396 30.1389 8.50863 29.5743C9.07329 29.0096 9.39051 28.2438 9.39051 27.4452V3.35763C9.39051 2.55908 9.07329 1.79323 8.50863 1.22857C7.94396 0.663904 7.17812 0.34668 6.37956 0.34668V0.34668Z" fill="white"/>
<path d="M21.4345 0.34668H18.4235C17.625 0.34668 16.8591 0.663904 16.2945 1.22857C15.7298 1.79323 15.4126 2.55908 15.4126 3.35763V27.4452C15.4126 28.2438 15.7298 29.0096 16.2945 29.5743C16.8591 30.1389 17.625 30.4562 18.4235 30.4562H21.4345C22.233 30.4562 22.9989 30.1389 23.5636 29.5743C24.1282 29.0096 24.4454 28.2438 24.4454 27.4452V3.35763C24.4454 2.55908 24.1282 1.79323 23.5636 1.22857C22.9989 0.663904 22.233 0.34668 21.4345 0.34668V0.34668Z" fill="white"/>
</svg>
