<svg width="21" height="21" viewBox="0 0 21 21" fill="grey" xmlns="http://www.w3.org/2000/svg">
<path fill-rule="evenodd" clip-rule="evenodd" d="M15.6909 8.79331L12.2099 5.31227L14.726 2.79481L18.2058 6.27456L15.6909 8.79331ZM6.72804 17.7652L2.88274 18.1153L3.22374 14.2971L10.479 7.04181L13.9614 10.5241L6.72804 17.7652ZM20.0632 4.47785L20.0619 4.47656L16.5253 0.939975C15.5682 -0.0145666 13.9239 -0.0597749 13.0172 0.85085L1.39733 12.4707C0.976245 12.8905 0.715328 13.4485 0.661078 14.0388L0.171536 19.425C0.137953 19.8061 0.273578 20.1832 0.544828 20.4545C0.788953 20.6986 1.11833 20.8329 1.45804 20.8329C1.49808 20.8329 1.53683 20.8316 1.57558 20.8278L6.96183 20.3382C7.55341 20.284 8.11012 20.0244 8.52991 19.6046L20.151 7.98343C21.0914 7.04052 21.0513 5.46727 20.0632 4.47785V4.47785Z" fill="white"/>
</svg>
