<svg width="20" height="21" viewBox="0 0 20 21" fill="none" xmlns="http://www.w3.org/2000/svg">
<path fill-rule="evenodd" clip-rule="evenodd" d="M13 9.96289H11V7.96289C11 7.41289 10.55 6.96289 10 6.96289C9.45 6.96289 9 7.41289 9 7.96289V9.96289H7C6.45 9.96289 6 10.4129 6 10.9629C6 11.5129 6.45 11.9629 7 11.9629H9V13.9629C9 14.5129 9.45 14.9629 10 14.9629C10.55 14.9629 11 14.5129 11 13.9629V11.9629H13C13.55 11.9629 14 11.5129 14 10.9629C14 10.4129 13.55 9.96289 13 9.96289ZM10 18.9629C5.589 18.9629 2 15.3739 2 10.9629C2 6.55189 5.589 2.96289 10 2.96289C14.411 2.96289 18 6.55189 18 10.9629C18 15.3739 14.411 18.9629 10 18.9629ZM10 0.962891C4.486 0.962891 0 5.44889 0 10.9629C0 16.4769 4.486 20.9629 10 20.9629C15.514 20.9629 20 16.4769 20 10.9629C20 5.44889 15.514 0.962891 10 0.962891Z" fill="white"/>
</svg>
