<svg width="12" height="16" viewBox="0 0 12 16" fill="none" xmlns="http://www.w3.org/2000/svg">
<path fill-rule="evenodd" clip-rule="evenodd" d="M6 9.5H3.75C3.336 9.5 3 9.164 3 8.75C3 8.336 3.336 8 3.75 8H6C6.414 8 6.75 8.336 6.75 8.75C6.75 9.164 6.414 9.5 6 9.5ZM3 11.75C3 11.336 3.336 11 3.75 11H8.25C8.66475 11 9 11.336 9 11.75C9 12.164 8.66475 12.5 8.25 12.5H3.75C3.336 12.5 3 12.164 3 11.75ZM10.083 14H1.91625C1.68675 14 1.5 13.832 1.5 13.625V2.375C1.5 2.168 1.68675 2 1.91625 2H6V4.3625C6 5.5415 6.91275 6.5 8.0355 6.5H10.5V13.625C10.5 13.832 10.3133 14 10.083 14V14ZM7.5 2.73352L9.5565 5.00002H8.0355C7.74 5.00002 7.5 4.71427 7.5 4.36252V2.73352ZM11.805 5.246L7.722 0.746C7.5795 0.58925 7.3785 0.5 7.16625 0.5H1.91625C0.8595 0.5 0 1.3415 0 2.375V13.625C0 14.6585 0.8595 15.5 1.91625 15.5H10.083C11.1398 15.5 12 14.6585 12 13.625V5.75C12 5.56325 11.9303 5.384 11.805 5.246Z" fill="white"/>
</svg>
