<svg width="24" height="31" viewBox="0 0 24 31" fill="none" xmlns="http://www.w3.org/2000/svg">
<path fill-rule="evenodd" clip-rule="evenodd" d="M11.9995 18.9629H7.49955C6.67155 18.9629 5.99955 18.2909 5.99955 17.4629C5.99955 16.6349 6.67155 15.9629 7.49955 15.9629H11.9995C12.8275 15.9629 13.4995 16.6349 13.4995 17.4629C13.4995 18.2909 12.8275 18.9629 11.9995 18.9629ZM5.99955 23.4629C5.99955 22.6349 6.67155 21.9629 7.49955 21.9629H16.4995C17.3291 21.9629 17.9995 22.6349 17.9995 23.4629C17.9995 24.2909 17.3291 24.9629 16.4995 24.9629H7.49955C6.67155 24.9629 5.99955 24.2909 5.99955 23.4629ZM20.166 27.9629H3.8325C3.3735 27.9629 3 27.6269 3 27.2129V4.71289C3 4.29889 3.3735 3.96289 3.8325 3.96289H12V8.68789C12 11.0459 13.8255 12.9629 16.071 12.9629H21V27.2129C21 27.6269 20.6265 27.9629 20.166 27.9629V27.9629ZM15 5.42989L19.113 9.96289H16.071C15.48 9.96289 15 9.39139 15 8.68789V5.42989ZM23.61 10.4549L15.444 1.45489C15.159 1.14139 14.757 0.962891 14.3325 0.962891H3.8325C1.719 0.962891 0 2.64589 0 4.71289V27.2129C0 29.2799 1.719 30.9629 3.8325 30.9629H20.166C22.2795 30.9629 24 29.2799 24 27.2129V11.4629C24 11.0894 23.8605 10.7309 23.61 10.4549V10.4549Z" fill="#25D366"/>
</svg>
