<svg width="20" height="20" viewBox="0 0 20 20" fill="none" xmlns="http://www.w3.org/2000/svg">
<path fill-rule="evenodd" clip-rule="evenodd" d="M9.3745 18H10.6255V17.233C10.6255 16.298 11.2005 15.458 12.0895 15.091C13.0095 14.708 14.0145 14.896 14.6765 15.562L15.2155 16.103L16.1035 15.215L15.5585 14.671C14.8955 14.009 14.7085 13.005 15.0815 12.114C15.0815 12.114 15.0825 12.113 15.0825 12.112L15.0935 12.084C15.4575 11.201 16.2985 10.625 17.2335 10.625H17.9995V9.375H17.2335C16.2985 9.375 15.4575 8.8 15.0915 7.911C14.7065 6.991 14.8955 5.986 15.5615 5.323L16.1025 4.784L15.2155 3.897L14.6705 4.442C14.0085 5.104 13.0055 5.291 12.1145 4.919C11.2015 4.542 10.6255 3.702 10.6255 2.767V2H9.3745V2.767C9.3745 3.702 8.7995 4.542 7.9105 4.909C6.9915 5.294 5.9865 5.105 5.3235 4.438L4.7845 3.897L3.8965 4.785L4.4415 5.329C5.1035 5.991 5.2915 6.995 4.9185 7.886C4.5425 8.799 3.7015 9.375 2.7665 9.375H1.9995V10.625H2.7665C3.7015 10.625 4.5425 11.2 4.9085 12.089C5.2935 13.009 5.1045 14.014 4.4385 14.677L3.8975 15.216L4.7845 16.103L5.3295 15.558C5.9915 14.896 6.9945 14.709 7.8855 15.081C8.7985 15.458 9.3745 16.298 9.3745 17.233V18ZM10.9425 20H9.0505C8.1265 20 7.3745 19.248 7.3745 18.324V17.233C7.3745 17.086 7.2575 16.985 7.1475 16.94C7.0035 16.881 6.8495 16.869 6.7435 16.972L5.9735 17.743C5.3175 18.397 4.2515 18.399 3.5965 17.743L2.2565 16.403C1.9385 16.085 1.7645 15.663 1.7645 15.213C1.7655 14.764 1.9405 14.342 2.2595 14.024L3.0275 13.259C3.1325 13.154 3.1215 13 3.0745 12.889C3.0145 12.742 2.9145 12.625 2.7665 12.625H1.6825C0.754496 12.625 -0.00050354 11.871 -0.00050354 10.943V9.051C-0.00050354 8.126 0.751496 7.375 1.6765 7.375H2.7665C2.9135 7.375 3.0145 7.257 3.0595 7.147C3.1195 7.003 3.1315 6.848 3.0275 6.744L2.2565 5.974C1.6025 5.317 1.6025 4.251 2.2565 3.597L3.5965 2.257C3.9145 1.939 4.3355 1.765 4.7845 1.765H4.7865C5.2355 1.765 5.6585 1.94 5.9755 2.259L6.7405 3.028C6.8455 3.134 7.0005 3.122 7.1115 3.075C7.2575 3.014 7.3745 2.914 7.3745 2.767V1.683C7.3745 0.755 8.1295 0 9.0575 0H10.9495C11.8735 0 12.6255 0.752 12.6255 1.676V2.767C12.6255 2.914 12.7425 3.015 12.8525 3.06C12.9975 3.12 13.1515 3.133 13.2565 3.028L14.0265 2.257C14.6825 1.603 15.7485 1.601 16.4035 2.257L17.7445 3.598C18.0625 3.915 18.2365 4.337 18.2355 4.787C18.2355 5.235 18.0605 5.658 17.7415 5.975L16.9725 6.741C16.8675 6.846 16.8785 7 16.9255 7.111C16.9855 7.258 17.0855 7.375 17.2335 7.375H18.3175C19.2455 7.375 19.9995 8.129 19.9995 9.057V10.949C19.9995 11.874 19.2485 12.625 18.3235 12.625H17.2335C17.0865 12.625 16.9855 12.743 16.9405 12.853C16.9395 12.854 16.9275 12.884 16.9265 12.886C16.8805 12.997 16.8685 13.152 16.9725 13.256L17.7435 14.026C18.3975 14.683 18.3975 15.749 17.7435 16.403L16.4035 17.743C16.0855 18.061 15.6645 18.235 15.2155 18.235H15.2135C14.7645 18.235 14.3415 18.06 14.0245 17.741L13.2595 16.972C13.1545 16.867 12.9985 16.879 12.8885 16.925C12.7425 16.986 12.6255 17.086 12.6255 17.233V18.317C12.6255 19.245 11.8705 20 10.9425 20ZM10 8.5C9.173 8.5 8.5 9.173 8.5 10C8.5 10.827 9.173 11.5 10 11.5C10.827 11.5 11.5 10.827 11.5 10C11.5 9.173 10.827 8.5 10 8.5ZM10 13.5C8.07 13.5 6.5 11.93 6.5 10C6.5 8.07 8.07 6.5 10 6.5C11.93 6.5 13.5 8.07 13.5 10C13.5 11.93 11.93 13.5 10 13.5Z" fill="#757D8A"/>
</svg>
