<svg width="20" height="19" viewBox="0 0 20 19" fill="none" xmlns="http://www.w3.org/2000/svg">
<path fill-rule="evenodd" clip-rule="evenodd" d="M15.5616 19.0007C15.4036 19.0007 15.2446 18.9637 15.0986 18.8877L9.99962 16.2237L4.90162 18.8877C4.56362 19.0627 4.15562 19.0327 3.84962 18.8087C3.54162 18.5847 3.38862 18.2057 3.45362 17.8307L4.42462 12.2027L0.304623 8.21772C0.030623 7.95272 -0.068377 7.55472 0.048623 7.19072C0.165623 6.82872 0.478623 6.56372 0.856623 6.50972L6.55662 5.68172L9.10462 0.555715C9.44262 -0.124285 10.5576 -0.124285 10.8956 0.555715L13.4436 5.68172L19.1436 6.50972C19.5216 6.56372 19.8346 6.82872 19.9516 7.19072C20.0686 7.55472 19.9696 7.95272 19.6956 8.21772L15.5756 12.2027L16.5466 17.8307C16.6116 18.2057 16.4576 18.5847 16.1506 18.8087C15.9766 18.9367 15.7696 19.0007 15.5616 19.0007Z" fill="#757D8A"/>
</svg>
