<svg width="8" height="8" viewBox="0 0 8 8" fill="none" xmlns="http://www.w3.org/2000/svg">
<path fill-rule="evenodd" clip-rule="evenodd" d="M7.9955 0.699333C7.9955 0.333333 7.6995 0.0353333 7.33283 0.0333333L2.00417 0H2.00017C1.6335 0 1.33617 0.296 1.3335 0.662667C1.33083 1.03067 1.6275 1.33133 1.99617 1.33333L5.7015 1.35667L0.1955 6.862C-0.0651667 7.12267 -0.0651667 7.54467 0.1955 7.80467C0.3255 7.93533 0.496167 8 0.666833 8C0.8375 8 1.00817 7.93533 1.13817 7.80467L6.6635 2.27933L6.66683 6.00067C6.66683 6.36867 6.9655 6.66667 7.3335 6.66667H7.33417C7.70217 6.66667 8.00017 6.36733 8.00017 5.99933L7.9955 0.699333Z" fill="#07A287"/>
</svg>
