<svg width="14" height="16" viewBox="0 0 14 16" fill="none" xmlns="http://www.w3.org/2000/svg">
<path fill-rule="evenodd" clip-rule="evenodd" d="M0.231909 6.64C0.585909 7.064 1.21591 7.122 1.63991 6.768L5.99991 3.135V15C5.99991 15.552 6.44791 16 6.99991 16C7.55191 16 7.99991 15.552 7.99991 15V3.135L12.3599 6.768C12.7849 7.122 13.4149 7.064 13.7679 6.64C14.1219 6.216 14.0649 5.585 13.6399 5.232L7.63991 0.232C7.59291 0.192 7.53691 0.173 7.48491 0.143C7.44391 0.119 7.40791 0.091 7.36291 0.073C7.24591 0.027 7.12391 0 6.99991 0C6.87591 0 6.75391 0.027 6.63691 0.073C6.59191 0.091 6.55591 0.119 6.51491 0.143C6.46291 0.173 6.40691 0.192 6.35991 0.232L0.359909 5.232C-0.0640909 5.585 -0.122091 6.216 0.231909 6.64Z" fill="#C3C7CE"/>
</svg>
