<svg width="20" height="19" viewBox="0 0 20 19" fill="none" xmlns="http://www.w3.org/2000/svg">
<path fill-rule="evenodd" clip-rule="evenodd" d="M15.5614 19.0009C15.4034 19.0009 15.2444 18.9639 15.0984 18.8879L9.99938 16.2239L4.90138 18.8879C4.56338 19.0629 4.15538 19.0329 3.84938 18.8089C3.54138 18.5849 3.38838 18.2059 3.45338 17.8309L4.42438 12.2029L0.304379 8.2179C0.0303789 7.9529 -0.0686211 7.5549 0.0483789 7.1909C0.165379 6.8289 0.478379 6.5639 0.856379 6.5099L6.55638 5.6819L9.10438 0.555898C9.44238 -0.124102 10.5574 -0.124102 10.8954 0.555898L13.4434 5.6819L19.1434 6.5099C19.5214 6.5639 19.8344 6.8289 19.9514 7.1909C20.0684 7.5549 19.9694 7.9529 19.6954 8.2179L15.5754 12.2029L16.5464 17.8309C16.6114 18.2059 16.4574 18.5849 16.1504 18.8089C15.9764 18.9369 15.7694 19.0009 15.5614 19.0009Z" fill="url(#paint0_linear_1106_16405)"/>
<defs>
<linearGradient id="paint0_linear_1106_16405" x1="9.99988" y1="0.0458984" x2="9.99988" y2="19.0009" gradientUnits="userSpaceOnUse">
<stop stop-color="#FCA549"/>
<stop offset="1" stop-color="#F39531"/>
</linearGradient>
</defs>
</svg>
