<svg width="17" height="16" viewBox="0 0 17 16" fill="none" xmlns="http://www.w3.org/2000/svg">
<path fill-rule="evenodd" clip-rule="evenodd" d="M10.4713 8.86192C10.732 9.12259 10.732 9.54392 10.4713 9.80459C10.3413 9.93459 10.1707 9.99992 10 9.99992C9.82933 9.99992 9.65867 9.93459 9.52867 9.80459L8.66667 8.94259L7.80467 9.80459C7.67467 9.93459 7.504 9.99992 7.33333 9.99992C7.16267 9.99992 6.992 9.93459 6.862 9.80459C6.60133 9.54392 6.60133 9.12259 6.862 8.86192L7.724 7.99992L6.862 7.13792C6.60133 6.87725 6.60133 6.45592 6.862 6.19525C7.12267 5.93459 7.544 5.93459 7.80467 6.19525L8.66667 7.05725L9.52867 6.19525C9.78933 5.93459 10.2107 5.93459 10.4713 6.19525C10.732 6.45592 10.732 6.87725 10.4713 7.13792L9.60933 7.99992L10.4713 8.86192ZM8.66667 1.33325C4.99067 1.33325 2 4.32392 2 7.99992C2 11.6759 4.99067 14.6666 8.66667 14.6666C12.3427 14.6666 15.3333 11.6759 15.3333 7.99992C15.3333 4.32392 12.3427 1.33325 8.66667 1.33325V1.33325Z" fill="#BDBDBD"/>
</svg>
